<mxfile host="app.diagrams.net" modified="2023-06-09T18:38:26.626Z" agent="Mozilla/5.0 (Windows NT 10.0; Win64; x64) AppleWebKit/537.36 (KHTML, like Gecko) Chrome/114.0.0.0 Safari/537.36" etag="cc_Cj3GUWQg8q8apXDmv" version="21.3.2" type="device">
  <diagram id="upba7YI7gydIVo1AH_Sx" name="Page-1">
    <mxGraphModel dx="2901" dy="2285" grid="1" gridSize="10" guides="1" tooltips="1" connect="1" arrows="1" fold="1" page="1" pageScale="1" pageWidth="827" pageHeight="1169" math="0" shadow="0">
      <root>
        <mxCell id="0" />
        <mxCell id="1" parent="0" />
        <mxCell id="gmgexalFfcdxd5zf8jd6-41" value="" style="shape=image;verticalLabelPosition=bottom;labelBackgroundColor=default;verticalAlign=top;aspect=fixed;imageAspect=0;image=data:image/png,iVBORw0KGgoAAAANSUhEUgAAAoEAAABHCAYAAAB4fZ04AAAAAXNSR0IArs4c6QAAAARnQU1BAACxjwv8YQUAAAAJcEhZcwAAEnQAABJ0Ad5mH3gAACWJSURBVHhe7Z0JfFXVmcC/7PtKEpYQSEKEEAj7KijIpiLuaFHqUq0bYmunjjraaV07Mx07YjtjbStIQSwoyC6QsKmsgQAhCZAESMgeIPu+Mvc779y87W7v5Ya85H3//O4v9yzvu/ed75zzvnvuOd9xuSEABEEQBEEQhFPhyv8TBEEQBEEQTgQZgQRBEARBEE4IGYEEQRAEQRBOiOycwLjoGH5GEARBEARB9AUu5uXyMxUjcPKUKTBl6hQeQxAEQRAEQfRGiooKYcu3W7QbgS+/shyWLV/GYwiCIAiCIIjeyImUFHj6iafNjEDFOYGDBg3iZwRBEARBEERfQtEIjBxMRiBBEARBEIRWGjcshYaV8zqPtpw9PMXxkDQCjx87xs/sB4cdCYIgCILo23QUX4SmT15iR/Nnv+axzovHhCf5GYCLf39wv+VOHnI8usVFTHV1NaQcP8FD8nR0dMC2rdsgN9f4flqKysoq+HbTt9DS0spj5HCB1JOp/FyerZu3wOVLl3lIGZR3IkX5uxTkF8DX6zew/2rs2LZdNV/WhSz4/uD3PCRNe3s7nD59GvLy8uCH73/gsdLg/Yv5lTibdhaam5ph+9btqjqRAq9TVVUFmwVdtbYq6wqv1dLSAqdST4GLiwuPNaf8ejm7j61btqrqC6/d0NDAro3/5RDLIXlPEtOFHGK+Y0ePwelTp3isNXhdNX1VVlTApo2bIDsrS1FXYj68fyVd4TRe1BHWTTG/FIcPHWb3h98h7Uwaj7XG9LqoD3sQr6WmK2zzYv1CHeRelq5n7e0drI5gPpSL+pCiotxw7yXFJex/U2MTT7EG7zHl+HHYuWMnFBcX81hzsK/BOpSTk6OsK56vsbFRUVdYNw7uPwAXzl+APbt281hrUKdYH4uKivh/6ftDsB6hTGw3qSel9XX0iEHn+J2PHzvOY60R86HeT6Sc5LG2IZbF5UuXWD+YfyWfp5gj5svMzIS9yXt5rDTifR09clSoB+k81hz8/njf2Ad+f1CpDzTkY/2JTH1DRHmoq90KuhLlYbs6c1q+XYnyxP/yGNLVdIVgn5mZkWFoO7J9tEEe5tmu0MeJ95Wdna2qDzVc/EMBvHzYefvYufDWm2+xc0dBrv/oLtDocw0dxs49b3+d/XdUusUIDAoKgshI9VfJbW1tMCxuGGSmZ/AYaYS6KnQglVBVWcFjpCkuLmKdkBJ4zezsHGasaGHXzu8gP1+6UxMZMnQIkztI5TtjRTxx4iSkp0t3aiIpx1NUjVm8J+yszpw6zcpGDoNBniJ0zFcg63wWj5UGDZm6ujqIjYtV1Ykl4nXwx6xCuB80LJTAa6GxsOGf63mMNZcuXRR+8LLZoaQv8doH9u2HsrIyxfIQy210YiJ4eXnxWGvEfKgHuQ5cvO5xwbDAfFgHpGgT9B4YEACnuK7kOiQxX2lJqaKu8Dqoo8LCQpa/rLSUp5gTFRUF54Qf3ODgYMX6JF5386bNwg/bUR5rG3itDKFeq+lKvPcjh4+wHzxcrSZFWVkpfCcYa9evXYPN327msda0dxjuHcvipGAsVij0EXiP6UK9Listg+SkZB5rDvY1WH+PHDqiqCsxX4YgT0lXof1CWZvHPrGgQP7hD68TKORBwxf/p589y1OsCQk1yDQYDdL6CgkJhpMnTwp1+DxUKLRFMR+WdX7+FR5rG2JZ+Pn5K/aDYr6jh48yXSkh3lfamTPw4w/SBh7WIayv2AdWVcm3+SOHD7N8Fy9eVHy4FeWhrgoVdCXKY+0qVd5wRoMe+zfUk1K7EuWp6QrZuX0nM9ZZ2xHqvBSiPOzjvBX6OPH+zpw6o6oPJW7UVEDLtv8Ft8TbwCWkP/hOX8jiUT6CdQuN0dWrvpDsI/GhBvOsF+4Ff38wD/sdER7w8AH86tWrLN8WoR8wXce6bu069hB26MdDrK/G35R/rvuKfWbNP9YIZbWD5autrYXP//Y5e6j761/+yvLeDDymLQPXAWPAbeBYHuOYdIsRiDzw0EP8TJ7m5mb44vNVMGr0KB4jDXbarkIPcl14klMCDY8goWFeE3445GhrbYPo6KFCAzJUUDUGDBzIKpESWC89PT3Bzc2dx0iDFRwX2zQ3yY9WIDGx0dAqPPEpERMTCz7e3uz8Gm8kUogGeUxsLHj7GPLLkTAqAZpbDDpJGKWsE0vE66CuXIS/ayq6wmthYw8KDhIaubS+EhJGCfpqhaFDlfUlXrtfWBh4CHqorqrhKdbECuWA5YZP8XPmzeWx1ojl6+npYfj1kqCzbGNimL7c3aX1j6NUxwVjsbGhkenKzc2Np5hTXGTIFxIaoqirpiaDjrBcMH9wiPAULsGqlasg7pY4yLpwgRlLcoj3FxAYwAw4qY5aDbxWdEy0qq7ENj9mzBgICw+DcqGjlwLzpfApJWjkyZWZeO8lJSUwMmEk++GQA+8xPn4EG/GMjIzkseaI9RfbqpKuxHy+fr6KusrMyGQyDh44AK6u0rIQLHM0PKoEIwn/N9TLj2aLMnG0XU5fqPMOwbAMCw9X7A/FfAMGDoDaGvl2o4RYFtfLr7N+UK4dGMu2Fvz8/RRHZ8T76tevH/gLeaVob29j37+9o0OxD8TrYL7hI4bzGGlEeXv37lXUlSjv3Llz7B7lMPweBTGdyukJEeWFCf2Xkq4QN3c3oc1cV2w7orzDgjGo1MeJ91ddXaWqDyXaUpPBLSYRrkVPhaWb05mxhnVJbGP19fVw7333wrjx42CV0Pbfe+ddWPE/K5hR+PEfPxYeVM/BxEmThH67mhl0K/++Ev7yf5+yhyYcCd749TfMoMPvhJ9DcJS4ra0VNn6zUTCIj7H2haP7jy19nBl5kydPBh9fX2Y0orGI7RTrJob9/KTrk96g8ec1y7FHAREXoVCsXMRgoS5d8hgcO3Gc/TBYgvP90IegFKt2r4TqZuNIQJBXMDxz17M8ZGRXyndwoeQ8DwE01jXBW0vf5iEjWuVpyaf1mkjG5QxITjefzDk/8U4YHTuahwzo/X1/v+5D8PE3/qjEDxwJd08xPFmZonc+W8pGju7UFSJV/oie10W06t6ybOXk6a0rLd/D9DvgjyS++rlzzF2S5af1unLsFX4EKpsMIzGtLa3s6fzZhT9nYUtM9Yr31dLQIlnPPlz3Abh7uTNjB+89YVCCalngj1iobz9JHVhe183VVVannj4e4CpcF19dh/qEyuoU84lGorxOPwBPXy92PUSp/WUWZjB5+D1aGltl25+aTNT97rRdrNywe5fTvWk+Ebk6ogTqoKKhvLMslNqBadmOihwlWRaW9+8qfM8FCu0Pf8Dk5Glty1L5pHRlmk9sV3J1U0u7kpInpwMtbUfr90W0lJ8WWtb/J3gsfB7e/v1HbKpVdHQ0rP9mQ6ftgAYc3i++jkeD3sNDeLDmBAQGMoPRVzDM8OFxzrw5kH42XXhUABgWF8ceBAP8A8Ddwx3aBSMa888VDFs0HHGUGME3Mlj3hg8fzgzBkQkJ8I8vVsNLy5cJD1SFrA6hTTNh4kS4mHMRpk2fBpMmT4LTZ8+xz/d2+keEwaABETykjJSLGEkjMDkpCV56/gXIzLIuJCzwL9d8CS+/8jKPMedX634BlYOMQ/MhxSHw8dI/8ZCRj7f+EdICDUpEarNrYdMLW3jIiFZ5WvJpvSayaf9G2O6ylYcM3Hvjfnh4zmIeMqD39334rw9AwHCj4T22Zhz86n7ribZ657OlbOToTl0hUuWP6HldRKvuLctWTp7eutLyPbR+B0TrdeWwpe7o3Q606lRrfeopndpShmoytereljqihFYdaC0Le9uflLyulIVWeXLfQ8/7Q7TUEVvkadWHGvg6+OR3m+Dp333MwkOGDIHPV6+E4qIi2cEiR+CTz/7Bz7qPIMEQrq5RfpPYVUaOGAYL7pjJQ8po9hN4/py8hSy+AiMIgiAIwrlxCQyFyUueY4NGeOxK3g2BAYEwSGbKhSMzd9YMfmbOY4vvg4jwMB4yMmPaJPjli8+wwzJ9yOBBsHDBHTxkBD/z+i9fZAfKNWV0wggWZxmP4L1J3UNXcXtHgJ93gkOnx48dlx3tix+ZwM+sweHY4IZgGNA8gB1DAqJhfNwEnmqkqqYK3MvdO/OFQ3+4bcztPNWIVnla8mm9JtJxowPqC+o78+IxZcQ0iAgxH3bV+/teyroEg28M7syHrxBuibyFpxrRO58tZSNHd+oKD6nyR/S8LqJV95ZlKydPb11p+R5avwOi9bpy2FJ39G4HWnWqtT71lE5tKUM1mVp1b0sdUUKrDrSWhb3tT0peV8pCqzy576Hn/SFa6ogt8rTqwx5w0V1gYCAPOSbHT5qv7EYDLGZolGDVAly9Zj6nfeH8O+BC9kWzUb1bhsXAtMnj4csNm+FM+jmob2g0m1eJBmBU5CAoKCo2+1xBYTG7BsZ/l3SAxxpAmTh6mC/kYflMwGuVlJZZjSyGh4XCsJghPKQMjs5u2bwFfvHqqzxG5nXwn1asEI5PJF8HEwRBEARB3AxwAVRTUxMEBBhfXeuB5evgpY8+AOu+3gI/W/oofLVxK1ucJoKjdus3bWPGmQgajTOnTYLPVq1jYTR8xc+gMffgIoNvwKvXy2H1um/YuQiOBiKHj5mvLsd4HEHE61im4eggxpneA9LV18F2G4G1gjV64YJhkiq6hVBbeUX0XtAX1rjxhmXu4hyPfXv3CU96AZB25iyMHTeGxRF9D1G/NUJ7xwnZCOneOZDSvbgJQPaFHBger8+oEeF4ZGcJ+h1h0G98/EjJBaI3C3T70n/AAJgzdw6PMYCjdaaGmhoBAf4QHGQcnTQ1AieNH8OMupxLucyAw/+mRhgagcjh4yc749Hoe+jeO9nInZenF2zesbvTQHvxmaXMq4HId8kHIOOc0ZWUkhE4Y6oh7Q+ffMb+i6ARiCOLpveAdJsRiEuzV69dzWOs+c8P/wP8/APAw8MN8vKuCAXh2EO/hP3gak/0/VVeUQkzZ97KfM4FBQZDa1sLFBQUgv9NWnJP3Hzq6ushKmoweLh7QnWNYRWuh4cXa/ek+76NqHu44QIdN9ohOCQYSovLwNfPB4qLisHHx+AcmOh7iLpvbW2H2rpqeOttZU8RBw8cBHQGHuDvz2O6RnFpKTz55E/ZObp48fL2gsWPmC9uWff1ViFfGQ+pM33KBDZyJ6LXwhA0ApHuXgAiR7cYgS8+9zxbBaxkBK79xxpIHDMWpk6bxmOIvs53O3dCYKA/88MUO2yY8GQ2j6cQfZ39+/ayHSEQavfOhanuqd07F7g+IP1sGjzxlHEbNCnQoX5OzkXmML6rhIeHQ0JCAsxbYKhnaKKgj0VT1zLIhm93WL0aVcLSCCQXMQYkjcDHf7KEFbweRuDzz/6cTRy25KWXl8E9ixbxkHb0lrdgzlzwlPCqrqe8luZmSNq/j4e0s3PHDkCnmZboLQ8dWP9t5ec8JI+tRuB//9d/SW6nNmv2LPjXN97gIe3I6V5veX2xLiFdkWerEUi6N9DXdN+Vdq+1n7HE2eqSI9VNW4zApN1JsHbNGh5jP/EjR8JLy17qNALPnD4DLS3NMGXqVBYWkTICfcOug1dAHQ8BNNf6Q8N1w4paSyNQCXQo7+vry0N9BykjsNt2DBHByozb4VgeSh7eldBb3uXLl7tdHsbZA96DpazukCfV4egBer+Xup6aV3w5ZHWvt7w+WJcQveUpQbrXX15v1729/Yyz1SVHr5vdDT6cmILb/eXlqm9pGBKTB8FD88E7uKrzCI6+Au7eyjt0iXzy8QrYsX0H25d729ZtPFYb6KQb/TiaHhgngo65TdPQ8beIUho6YjdNw7DedJsRiKNOi+5eCAUy++7iSCI+8WhFb3n4dIny5EB5mEcravIwzVZ5eA9yoDwsE61g2cjJwzK1VZ4a+PR56IcfecgcjMd0W8D8crpHeT1Zl0R5cuhdNzGtJ+umGnrqXk1XvUH3Pamrm617LDs53WOZ29Pu9apLCOZXqkt61k1765Je8tR0b2vdVOOuhXezESYcybOX3/z2361Gpx986EF4+JGHeUiewMGFUHEpFkpOj2NHWfpo8ArQPk8PR7lxh5GkPUlQU23bFopZeReYI2/TA+NEUutOmKWZ7oallJZenmaWhmG9kTUCIwd3zdEjPmXg0wbuGyjFlStXbHoy1F0ef7qUA+XZ8mSoJo89edkoD+9BDibPhic5LBs5eVimtspTA58+xY2/LcF4W0chML+c7lFej9YlLk8Ovesm01UP1k019NS9mq56g+57Ulc3W/dYdnK6xzK3p93rVZcQzK9Ul/Ssm/bWJd3kqeje1rrZU5xNS4OTJ8xX0VqCo32u7m3QUmdcmOLpXwcdbe7Q1mTcuk+JhfcshOdeeA7e+/B9eP7F53ls30d2TuDkKZNh2fJlPMYafIownRv09foNcPLkCXaO4OqxY0eP8pA0ERERMPP223jIsGn8J3/+MzvXWx4+8ZhWeNx7UKmBIPhEkzDK6BgbJ6yKc0YcQd606dPZql0RU3m/fOUVtoRdBJ9y5TpTEUt5kyZNhkeX/ISH5OcEYgP9esN6di7y7cZN/EyehxabP909KtQ73NPRUveImjxL3SNy8qhuWqMkD5GbE9jdund0XWmRZ1m2vVn3au1eSz8jp3u965Kz1009dG/LnEBXVzfWL+Doo9p15cCRwKefeQZ2bt/eOScQXVIhopsiEdM5gTgXsN8tF6HgqHGuMr4eRkMQRwQRLXMC8bettraG7XYSKRxaOZh6ALZe2Mz2Yb7RcUP4fwMW3XIfLJi2gKU/t+JZ8A83elJI7De2c39tTPMT0lpb28Dd3Q3Gho3rTHvz769DnWcd2z9bMNcgRPh794n3WJo9aF4YEhcdAy+/stwmI/D1117T1MDUEG9Ob3ldqZgi2GB27DK8r3d0eajDroKd4R8++oiH5I3A1atWwQfvvc/Ou4LYAeile73lOWvdROSMQEfVvSPrCumtuu/Odu/o8pytH0FsMQJTjqVAcnIye50tN5qpxtChQ2FYXBzc/8D9nUagHKZGYGBUIfgJhmBTVTALI54BtVB/NRzqSgewsJIRKPo9Fn0iFhUVCUa59r2PT6ScYE6tC/ILIDc3Fx559BHYtnUr/OrX/8Jkr12zlhl4FRWV8NTTT0FyUjI8+bShTD/930/Bx9cHSoSHgMFRUVBefp19Dlm39kuYOGkSk9XW1s4eApqaGmH5L15h6bbSIwtDCIIgCILo21RVVTEj1F4DEJF65Y1+aXHgQQkP7yZoqTf3WerpV2/2elgJNADR4BOdYuMoIBqEatcVQfc1uKLYw9MD+vfvD/mCITx23DieChDRPwJmzZ7NjLjr168Lxt5gnmJIu2fRPTA0Ohr8/P1gzFjDxgzIgIED2b3gdnRurq5s15THHn+cp+oDGYEEQRAEQXSJ4OBgNpIoHmjwaAVHAMXPoSshU/Ly8iAjw7jSVgpcFIKjfpW50eyoLRnA5glqnQ8oBRqE+GpYC+PGj4fZd8yGhxc/DM/8/BnA3U3E19coB0cG40fGwxNPPSEYeWPMXm0vfuQRZjj+9MmfMofYc+cZR0DnzZ8HgUGB8NZv3oY33/43WPL4EugXZnB5oxdkBBIEQRAE0SWm3TqdvUoWD9O5i2rg62bxc5a+JB948AG2QlgOnPeHmL0KFuLQAMSFITeDsspS2PrDFti475vOo7SilKdCZ9y2H7ey/+mXjE61N+03fgaPjMvGtAMn95ulYRjYzEP9kDUCR8SP4GcEQRAEQRDawUUrepB+Nh1ST8qvDkaDz/K1r09IlZlR2N0cOv0jbHfZanZgnMhXOV+apSWn7+Epymm42MQ0DcN6Y2UE1tQYhj9xg3iCIAiCIAhbwVXLuKhGCXz9i4sUcOGNHNnZ2XAxx7AwSQoc7Wtv9YCB4890HmgY1l/T/toU5//hogkRXMyBYa0LQ3ozVkbg+XN9Yz89giAIgiB6N9OnT4fYYbE8ZA1uC9dQ3o+N/IlHeU5c53ZxWsB5e2jwoeGHB64OttUArM2uNTtMaShoNEtrrDPuYqKUVnet3iwNw3pDcwIJgiAIgrjpWG4RJ4Wrmyu4CYcSNQWDOxeF4KF1VbAlaPjhgYs4bOHhOYth0wtbzA6ME9n1wR6ztLeWvs1TlNP+/upKszQM6w0ZgQRBEARB6A6+5sXXvXKH5RZxUqCLFKlRudjooTBm9EjNR7/QUP5J/XFxcYHq6mpAt8stLS1QV1fX6Sqno6MDykrL2P/KykoWh+5kRPBz6AIGXePU1Ro+hz4HkatXr0FlRQU0NjZCc5PBYG5q1GeupYiLpbNodA65dMljsHrtasXhUEtn0eidPSP9LDvvCuLcAL3l4b6MuC1PVwiPQH8+i9i5o8tDR6ldZXTiGOYpX0TOWTQOnSfvMU5mtZf5d97JGrxeutdbnrPWTWS/jLNoR9W9I+sK6a2678527+jynK0fQbQ6i0ZffgUFhTzUddpaWmHxTwwjaWln0phRZPpb5GgwZ9GC8Sc6i150371w9MgRmLdgPoT1C4O1a9aAm5s7M+jmzp/HXjkvW/4ytLW1wXu/e5fFHT50CO65dxHb6SU2NlboY6fCH//7I+YyZm9yssGPoJ8feHt7Mxc09oDXVd0xRDQCM7OU5wZaGoFE30fOCCT6PqaGALV750LOCCT6PlqNwO7ks0//wkbYXnpZfgeznubM6TNQXl7OFtZWV1Uxv3+pqanwy1dfZelJSUmQmDhaMPQOQ0hoCBQXlbAd2XCEb8vmLSB8QSgrK4P5CxbAiRMn2EPHfMGAxB1DsK/FBwZsg7Nmz4Kq6mrBUL+HybUVTUbgF6tWwYfvvU9GIGEFGYHOCxmBzgsZgc6LvUYg7vzh4+MDJ46nwLgJ46GyuRKy8sx33zCdM6cEvkZFM8XNzY3HABs1c3f3YDt14BERFWHmkgWZOf426B/Sn4dsJ+tCFlzMyYE7775LKIOzMH7CBNi0fyNPNTAiOh5Gxxr2Ju4KWwVDcHRiImRmZjJj0TfET/fvg0gZgVZzAmu5ixiCIAiCIAhbwFec69f9E3Iv50JZ2VXYm7yX+b4z9XeHvvG04uqKC0OMBiCCAxEVFRWQLxibly5eVPXTZw/nBIMMR/byr+QLBmE2i1Py6WcvWF7Z2Tns+wyLGwaZGZnd8n3koIUhBEEQBEHoAr4WDQsPg9raWrYAAl9t6k1YeDhcu3aNGWniIgq9Ce3XD6qrayBqSBR4+9i//Zwaba1tbNu84qIi+OLzVTBq9CiecnOweh38pxUrhOMTm18HO9ukWUeXRwtDnHdCd3dMEJd7HUyT7+2jt+q+O9s9LQyxj+6qS4i9r4NxtSyCu4Z4enrBqt2fQ3p5GotD0N9dV9ydtAqGE7qNQfMFRwq/P3XQajeN++MfhNkT7+Ah20HZOErn6emJU/YwBp5b8Sz4h/uxdCSx31h45q5nech+sJxwwQeC1zqYul/374NomhOIRuDGbzZC8v5kHiONpRH4+muvwbcbN7HzriDenN7yFt29UDBezrNze0Hv5ri3IeLo8uKiY9j/rvDQ4ofhDx99xEPyRiAanB+89z477wroXR47NL10r7c8Z62biKkhYNruHVX3jqwrpLfqvjvbvaPLc7Z+BNFiBNbW1EFWlvl8P70QByHQYO4ORoyIhwDhN81Z0DQnEMGnHoIgCIIgCCXQAKxvaIGSqxW6HsXFpfwKwM6l8nTlwHs2NV7Rzc2p1DO6H7jAxJKDBw5K5u3KgTLtwcoIPHb0GD8jCIIgCIJQprWtFaKHDdf1qK83OlTGc6k8XTnwnk3BV9jTb50OTc0tuhxePj5MHs6NtCQwMBj6Dxwo+Tl7DpSFMu2BFoYQBEEQBEEIFBSXQkBoRJePy7lXuERpzp+/IPk5ew6UZS9kBBIEQRAEQTghZAQSBEEQBEE4IZJG4MiR8fyMIAiCIAiC6ItYGYFFhYUQEBjIQwRBEARBEERfxNoILCriZwRBEARBEERfxe0dAX7OwN1CpkydApOnTOYx0pxNS4P+/QfA4MGDWbiyohKCgoNgZEICO4KCgqGwsJClyREREcE2ZxY/g45I7164kKXpLa+oqBCGRg/tTEMX2devX2dpcqDjzNtnz+r8TMKoBJgxcyZLcwR506ZPhynTpkrKu3TpEiSOSexMK79eDvX19SxNDkt5kyZNhlGjjZtj5+TkgJeXJ7uvkNBQiImNZfFtbe3QcaOj83N4nD+n7rQUnVGbfuaOOXNhUOQgK93joSbPUvd4yMmjummNkjwkN/cyVFZWsnPTdt/dund0XWmRZ1m2vVn3au1eSz8jp3u965Kz1009dI9vBq+WlcHYcWN5jDXFxcXQ1NwK/na6KJHjakkRJCYatlDLSM+EiIH6+i+ur60Gb+H3DHWLlJSUQFTUEEgTrhUe0Z/FdYWqynJIGBkPBfn5ndcQKSkphcamZt3KDL+Lj7c3DBw0gMdIg1vTbdm8BX7x6qs8RmLHENxp4uVXlsOy5ct4jDSWO4ZYosVbO1ZAU+/kSugtT4u3duwMTHfMUKIn5Ime7LWgxZu8mjy5HUOk0LJjianXcjXU5PVkXXKGuim3Y4gUeure0XWlRZ6j9yO26F6t3WvpZ/Rs90hPyXOGfkTLjiG4m0dVTT30jxzKY/Qh41QKPPb4o+z8n199DaMnTGHnelFWdAWCA/06dyU5lXoKpt86A9as2wAJo8ewuK6QdykbFj90Pxw+9KPZ9qsIOneuqKrWrczwu4QKDxQTJo7jMdJo3jFED3APQqywfn7GffZMwQ2TBw0yt46V0F1eeDiTJwfKwzxaUZOHabbKw3uQg8kTykQrWDZy8rBMbZWnRmxsLHtqlQLjMd0WML+c7lFej9YlLk8Ovesm01UP1k019NS9mq56g+57Ulc3W/dYdnK6xzK3p93rVZcQzK9Ul/Ssm/bWJd3kqeje1rpJ9E0kjcDJU8ytVnvATajxiSVqyBAeYw4+Wfxt5ec8pI7e8v71jTcUn6hQHubRipo8TLNVntLTF8oz3ehbDSwbOXlYprbKUyNp/z6YefttPGQOxmO6LWB+Od2jvJ6sS6I8OfSum5jWk3VTDT11r6ar3qD7ntTVzdY9lp2c7rHM7Wn3etUlBPMr1SU966a9dUkveWq6t7VuEn0TMyPw/Llz/Ew/8MkFn0YsD3zqsQe95eGTX3fLs/VpVUR8MuxuebY8XdqC+CRqedj79Cmre73l9cG6hOgtTwnSvf7yervu7e1nnK0uOXrdJPoWLqZzAvH9/9Ilj8Hqtath8hTl9+9qcwKJvoctcwKJvoUtcwKJvoUtcwKJvoUzzgk8cOB7Fu4quOhnwvhxsnMCcb/fK3nKW8tpBRcElZWU2DUn0G4j8Ksv10F5eSV4eLhBY2MTNDU28hSir+EfECDo2R1aWttgxoxbIT8/HyquV0BrWwvpvo/j7eMDPj7e4OHuCaFhoSyusKCI2r0TYKl7XyGMusd23yr0BXUSG+MTfQNR962t7TA4KhIefOhBnmINGoH1DS1QU1fHY/ThhlDP7rvfMEVp29Yd4CLUQz0J9PcHP1/PTgMtOysL6uqUV7bbw4CBA6xGwVNPpoKLiwsP6QOachMnTeQhaXQ1AgmCIAiCcG5qa+ogK+sCDxlxdXWD6bfeykPy1NTUQEb6WWbEWCIaaGhoWoJG1OjEMRCoYXOLo0eOQEdHOw8ZGTEiHgIC/XkI3ewUQWSkvq5obhZa7l2zEZi0P7nXFgRBEARBED0PvmJVc0LiH+ALw4cP5yHbyM7OhrraBh6SowMmTJzAz5VBI6k7BsDQzNJ75M8SLfeuagQmJyXBS8+/AJlZ8gtEDh86BJ6enjRSSBAEQRBErwPntcePjOchI3oagW1tbfDe796F226/HUrLSpkLIhxcO3b0KLuGkgNue9DFCPzTihVsxxAlIzD/Sj4c2L8fnvrZ0zyGIAiCIAjC8cFFrWfPpsOSx5aYzaGrramFU6dSwdfXl8d0jdB+/SDl2HFwcXWFoKAgSNq9h7khqiivAD8/X5h1x2y2g4deREYOttqZxBJdjMB3f/sOzFswH2bMnMFjCIIgCIJwZoqLitnWdY5GoGCAjRgxgp3jvLm1q9fCk08/CatWroLf/PY3LL67aG1tZW9O8T++DhZfCbu5uUnOgexudDECCYIgCIIgTNHzVaqemN7Xxx/9DzS3tMCund/BvQ/cBwkJCbDwHsPey84AGYEEQRAEQeiOaGx9s+FrNv8NXFxg6rSp8Omf/w+GxkRDW2sblJWVslewI0cmQHJSMixctBBysnPAw8MD8vLyIPfyZZaekZ7JFnMcOXwY4uLimJsydE2Gr2rzcnNhzNixbFVxQ0MDuLq4wsBBA9noWqtg4DU0NkJZaRnMWzAPYmJiOu8L3bKcSk2Fc5nnYN/effDO++/AqZOn4Y1/ewMCAgP4t+jbSBmBVst2pCZLEgRBEARBqNHW3g4tgjF25coV2LNrN/OThy9BiwoLISpqCFy+nAuh/UIhLDwM4AZARkYGpJ1JEwy3UogcPJil46IKfHUaEhICHp6eLJyYOJoZi7jTCcpnr1mF/+0d7cxn5cWcHBaPDBk6xGpHnEzhOu0dHTAsbhg89bOnoL6uHrx9vOHChfM8h3NiNhL4+q9fg4KCAuYnkCAIgiAIQgs40ibli6+nQaf2t8+6nYecG9XXwY//ZAnU1FTDm2+9yWMIgiAIKWpqaiHrQhYPEQRBODa4cGfLt1uUjcCU48d5iCAIgiAIgugtoC9CfK2uxFcb1vMzCyOQIAiCIAiCcA6U93MhCIIgCIIg+iRkBBIEQRAEQTgdAP8PxsVWLih3cNoAAAAASUVORK5CYII=;container=0;" parent="1" vertex="1">
          <mxGeometry x="-623" y="-820" width="420" height="46.52" as="geometry" />
        </mxCell>
        <mxCell id="_3liKoyHfwb-iF2HT85y-1" value="" style="shape=image;verticalLabelPosition=bottom;labelBackgroundColor=default;verticalAlign=top;aspect=fixed;imageAspect=0;image=data:image/png,iVBORw0KGgoAAAANSUhEUgAAAdMAAAHTCAYAAAB8/vKtAAAAAXNSR0IArs4c6QAAAARnQU1BAACxjwv8YQUAAAAJcEhZcwAAEnQAABJ0Ad5mH3gAAP+lSURBVHhe7J0HgB1V1fjPZkvKbnrvvUN6D6EkoSsQREGBBLALtg/8K2BXiPrZJXyKqCSCggKhSBEILZBACkkgvbdNL7vZ3v/zO2/u29mXebvv7Su7m9xfGKa8M3NmZmfm3HPuveemVDmIxWKxWCyWetPMnVssFovFYqkn1phaLBaLxRIj1phaLBaLxRIj1phaLBaLxRIj1phaLBaLxRIj1phaLBaLxRIj1phaLBaLxRIjUfcz3bhhvZzKzXPX6sfxE8cl/9Qpd61uiouLpXnzFu6axWKxWCx1USX9+g9wl+vPlGlT3aXaicqYbvhovXTv1lVat2ntbqkfzz33nFx11VXumsVisVgs8eX111+XmTNnumv1Z9WqVTJ1+nnuWngiNqbxMqTwn//8R7p06eKu1c327dtl0KBB7prFYrFYLLWzb98++cQnPuGuxUYkBjUiY7phvWNIu8bHkMKbb74pF154obtWN9HKWywWi+XsJt52oy6DGlEDpFO5uXEzpBaLxWKxNDXqcjtta16LxWKx1En5hiel+IVv1Jiq8g+5v1qsMbVYLBZLnaT2PU8qD60LTpCS1U3nFmtMLRaLxRIBGM5m3Ua7ayLp425xlyxgjanFYrFYIsIY0GYdBkpq9zG6bAlgjanFYrFYIgIDineads517haL4Yw2pmUvPSwlj/20xlT63AL3V4vFYrFES/MLviNpgy9z1yyGM9qYNus9XKqO7a8xNevYw/3VYrFYLNFiGx35E1HShuXvvisTJox312InmUkbShZ+X6pyjuhySqvWUnr992XhwoUy59o50rNnT93elFn89GKZNHnSGXEtFoslepa+v1r27M121848yisq5JYb5rhrkRPvpA0rV66SaeeFT9pwRhvT8jWvSfm7z4hUlOt62oRLJW36HMnOzpb5982XBx58QLd7eeAPD8iS15bI5s2bZeKkiTJv3jyZNXuW+2t05J3KU13Dhg+TzZs267FXrFghc+bMkbvvvduVCg+ykyZNctf8mXvzXLnjq3eEleP3UNC/ePFid60arpXj3P2du2XJkiUya9Ysmf+z+Zqwg2thO+fE/WC7xWJpeP77xjuycct2dy12mjdvLl07d5Rc551nCqVL505y5Ogxd60as5/h8NHjUlJS4q7Fxje/FH3L4WQb0zM2zFuxdZWUv/2kpE28XFI69VKvFEMKbVq3kU2bNumylzu+cocaUozTipWu0XMMyKKFi1yJ6Ni0eZPc/pXbdfn+++9X73HR3xepgWWqDX7nfJjjfTLVB67FTOjP3p8ts2fPrrGd+4GxxEhyvbD4mYA+zhvYjlE150/BwGKxNF6mT5kgfXr5V2v9v69/yfc3DOWXbr1RbvjEVfJFZ+4nM+uCaXLOiKHuWjUYUvYzk9ewAueD3nC6w21vKpyRxrTywHYpW/J3SZvycUmbfKWk9hspqSOmub+Khnl79qoZFsVzxOvCWGBUMByEgvFejeFAxkyAvDGKzJm824YPGy4LHgw0eMJgnco7pV4qx2QdWYM5JrDM78hhAJFjwuCBdxlYDt1mwNNk4jgUFOb/POBpmu3owQs1nibHwWvmPDG0K94PnCMy99xzT3A7x7JYLI0TvMQhAweoAYsG5PdmH5Bf/O6P8qe/PabepReMXe+ePeQ8n+Pu3X9AHn/qOV1mf9ZDOXLsuMqEHvdM4Iw0puUrXpJm3QepIYVnDlTIY9sC46dicPA08Tq9YEQwLqE5iHVb69b6O14aYVO8zVkXOV7ct++WOVfP0WPiObJM+Hj2zNlqUPFMjWeHAcJIsp/xMvE8OS5wXGOQ51wzRw3vvJvn6W8YNKbXXnstqHfWzFlBA4zXyLbbbw94wX4gwzVzPV44v9vvuD0YigZT/8q2AwcO6Pn26NEjeG84BmFwP+NtsVgaHozdO8tXSG5uXlTeXovmGbLPNYKEeEPDtMY4t3G+iX7eaV20dfbjGG1DvrNnAmemZ7png6RNutxdE3ns0cfkzw/9WT/+GC08T7zOUDBgdYEHd8+99+jykjeWqMHBaALLi59drHWtxqMzmN8wqvPvn69GdO68ucEQbl5ewCAzXTPnmqBBA86VCW+Qxkbo5VjGuKmn6GxbuWKlrodC4YHwLnJe2M498W7nPEIJ3WaMaGjBw2KxNDwYqvFjzpXxY0dJb8eQhvNOMYahBvGI4zFOGHuubp91wXQN+xqMV2rw807roqS0RD3WcHWp6G2qod6YjCkGgWFpVq1aHTKtqhG2TCbUlaZ07CHNegTGP33pxZfUizp+/LhcftnlagD8Gs9gYDFGoeetBscxJsajY3+m0DAxGBnmJtQLLJtQMUYRXdTZsvzM4mf0N7xDDKl6zT6GHjD2RgfG1utBhsPoNuFdQ3C7515wHOOFA8abdc4XD9VcE7/jqVoslsYHBnT9pi0aTjVh11BPcF/2Ad3W1WMs4Z33Vsm2HbvVUHbp3LGG0eO47GcmPFevsYXiklL9zQ/ToAljSRg6FHNObULONRHwLVu10s92rVY7UJ+oW72NKR/UaefN0PHdpk6fHjKdJ33692sQg5o6xCktFRdK1alATP7pp5/WOVRWVsqCBf5JGzBMd99zt3quhGq1fpEWvyEGpz5wbAylaczEsYcPH67b8UIB7xADjUEzBjMUtnM+HItzM0avNpDzC+9yLnjGoYYYWfZBB7qQ4Tznzp2rYWnO//777g9r8C0WS8OyfuMWefGVN3QZ4/XPJ5/TuRe2MS156113SwCMJ9v++NfHTtvvXcfQmv3MFNqql3W2+8F5hdsPzG/IJRIMaWpqmkw9z892TZdpM2bI5i3Rn0PqDx3c5bDs37fvNE/k4MFD0rtPH3ftdFq0aCE7d2z39WB2794t/fr1c9fqJlr5Zt36Sfl7/5G1eSny29/81t3q2NjiYunTt4+MGDlCjQUlEEpIndzS1egxo3XatXOXvLbkNRkwYID88Mc/1G0GjGCbNm204Q7L3m0YQ/UWUxwD6i4budkXz9bCBQbw81/4vFxx5RU19jU6kNNjuBDWNcfDgKWkpMiLL74onTt1liuvvFLP3xwjKO9h6dKlcuddd9YoCfIwcS4mXO1lxvkzpLS0VHVwfM7Vu51622uvvTa43WKxNCytWjaXzh06SL/ePc/YqXvXzu7VRk44u7Fl8xY5Z9Qod80f5zMruTk5we8qEJ2rzebVu5/pqtUfyNRp1S1k/QjXPzVZ/Uy/e+93ZcP6De5agP4D+suvf/PrYLcTDBTel8VisVjOHMLZjbr6i8KpU7myx3GqvJG7hPUzraqsdJfCE4lMIvnpfT/VhjreCUMKdDth3RpSi8ViOXtonZUlubm57po/G9avP60KrC7qbUyHDR0qy995R0PAoezft1d/GzYsupOxWCwWiyWRYCQ3fPihGsxQ8EiXL3tXuneLPv9wvcO8BkKlTF6o8/PW+4WS6DAvLXqLTxyV4jilsrKcTtHgKe6SxWKxJJZePaI3bnXZDVrsmm6NBtq4hPNIz7rcvGVvPC4VH77prlkSxVujbnKXLBaLJbFcelHtdZx+RGtn6uKsMqZ0hyn5273umiWRtPj6H90li8ViaXxYY+pDpPLk5K1YX7PflCUBVJRJ+uWfc1csFoul8WGNqQ/xvikWi8ViObNJtjE9I3PzWiwWi8WSTKxnarFYLA3A66+/USPDjiW+HDiQLVdddZW7FjvWM7VYLJZGSNu27WT//n1SWVlhpwRMZaXl7p1ODtYztVgslgaAEUr4/E6cGP1QZslk2bLlsnd/tpSWlklqaqq0aZ0p502fJu3bt3clGidPPfm0fOK6a9212LGeqcVisVjqxa9/+wfZsHmrHD9+UvLy8iUnJ1fyC0vkxZdfk61btrlSFrDG1GKxWCynsfiZ5yQ9I0MyM7OkQ8eOMmjIEJ2AQb7fXf6+LlsCWGNqsVgsltM4fOSYVJRXSHFxka6fOB4YIxrDWlRYJD1695YlS17XbRZrTC0Wi8USwo6dO6Vtu3aSnp4eMJ5FhbrdGFQ81O1bt8qpvHxdt1hjarFYLJZaaNmyla9BtdTEGlOLxWKx1GDggAGSm5Pjrp1uULdt2Sw9e/eSNq2zdN1ijanFYrFYfOjapZMa0Oz9gTGrvQa1Q8dOsm/3Hpk1a6b+ZrHG1GKxWCw+zLnmKsk/lSutMjO1fpQpe99+adYsVQ4eOCCXXjzLlbSANaYWi8Vi8eXzn7tV+vToJu3atZXWrbN06ti+jdx2y00yZOhgV8oC1phaLBaLJSzTpk2VGz/9KZl706d1+vjHrmz02Y8aAmtMLRaLxWKJEWtMLRaL5QzlwIED7lI1eafydAolGlm/bdnZp+8Pfsf129bUscbUYrFYzkC2bN0qqekZOjdgBA8dOaKT1yBGK3v46FHHIB50twQMaVp6uqxa/YG7JQDrHNcryzLbQmWbOtaYWiwWyxkGBq9P337Sq1cvnbNujOOIkSN1MkayPrLDR4xwDGK6GkYmDGmv3r1l6rRpQSPJnHWO65VlmW1e2TMBa0wtFovlDGLLlq1SWlzirokOQJ5zMkc2bNwobdq2dbc6253lTVu2yMkTJ4ODlDNnne1e2ZSUFNmzZ68exyu7PztbJ0dAt0FbZ79l7y7TfQzIEtrN3r8/uD8gs2rVKnetaWONqcVisZwhqOfYr5+0aNVKtjsG8dSpU/LO229rsoXRY8fKnt27Zb9j0JhYPnfUKOnYqZPKAHPW2W5kNzlGuKSkRAYOGazHQYbjfvThh9LX0eWV3bhhgxx1vNgLZs6UkuJiXUd2w0cfSe++faVP//66zDZ+Q2bq9PPOCA/VGlOLxWI5A8AjJQSL50doFoO6ddMmDcGyznZj+IwhNbLIvPX662osQ2UxpAMGDqwhu3bNB2pICdd6ZdWQXnSRng9z1tevW6eGFFkmltnmlT0TQr7WmFosFksTB4/0+PHjsn9fIPUfkJC+rKJSqior1RMEMwfvcnlZmWS0aFEjiT3HapYiUlBQUGP/iooKSU9vLrt37tRtgCzHwNDioQKyGRkZUlZeLqdyc3UbsMw2fjPHZZ/WWVlN2qCm/tDBXQ4LN6pHjx7uWuzsdkow/ZxSTaREK2+xWCyNHRrjQM+esX1bTaOgocOGaei0sLBQtmzerF7muPHjJKVZM00FmJ+fL4cOHlQvsmvXrrJ1yxZp5vz24dq1rux4lWFf5kcPH5bzLrhA2rVrp7IFzja8TzzSkY6HWkPW9TK9svv27FEvdNTo0XpeBx3deY7xNLLe8ypyDHa7Dh30uCtWrHDsTXf36urPpo2bZMSI4e5a7FDn27tPH3ftdKxnajmr4cW94yt3yNyb50p2drbc/Z27dfuihYtk86bNMv+++dqKkemBPzygv1ksjQU+8O3ad9BQK2ho1TGCqWlpGpIFQqsYLsdFVUOIrAnN7tyx3ZENhIGBOfseOXRY6z0BWfZj/9TUVD0eGFn0mXCtVxadRjbwe1UNWX5r5hwvKzNTj2NkNeTbBBslpVQ5uMthWf7uuzJhwnh3LXbefPNNufDCC921uolW3tL0wcglkp49e+qEEV2wYIFu27R5k8y7eZ6sWLlCrrn6Grnjq3fI4sWLZfbs2RqO4pwW/X1Rws9t+LDh0rpNa3fNcqayatVq4fM7ceIEd0t04JEWFBRKZUWFjDz3XDVkNA4i1ErDns5duqjBM42N0hyD5SdL2NbUf2oDIsfgNW/ZUsO2551/vj77NDZi//Ly8pqyjpfZvEWLGrI0MMJI+slmNG+u547B5LzwlJEjFB16XtybCY5nXV+eevJp+cR117prsbNy5SqZdt557trpWGNqaTTgGeL9tWndRiZNnpRQg2KM6Zyr58jiZxfrtsVPL1ZDyXlwDvyOgQU8U9YfePCBhBvTJa8u0fmsi2fJpEmTdNly5hGLMTWhXYwPRomQKkaJlrjGy3zrjTcc49VCKisrgo2N/GQxgOvWrnGMZbqUlpQEPUcM4PFjx9QwGqNoDCsjx5SWFJ8mi8E1jY3Cyb63bLmUlZWq50oIuLZrWL5sWb0NqjWmPlhjenZAuHX+z+Yn1SvDgC55bYmcyjulBhRvlFAvHuismbNk7ry5KochJew795a5upwMOI977rnHeqkNDIWnFe+v0L/78OHDdU7EgmeD6oDWrVtrAYxnJxrqa0w3UyfpeKRTpk51t4gsfestSXWM0zmucQIMFGHcjIzmQVkM3M4dO6QwP7+G7HvLlzv/r3LW2wYNmTGGeLMzLrhAtwGypaW08B2kRhOQpYVuheNh1iWr57V9u/Yx9crWdg1Tp0zR9WhItjG1daaWRsOw4cOSbjjmXDtHvU2MJ3POgWXOY8WqFfqBnDdvnoZ677737qQZUkCn8YwtDQeGFCOKUV24cKG89tprsvCRhWpAN23apHMiF4mOWAAead9+/YN9OMH0DfX24cQIEdodM3Zcjf6eu3bs1Fa0fv09R4w8RwoLC4Kyph8px0YHGFmOy/HRgyzH4pheWQxpqCzT7l27ZMy4cTVk67qGptDK17bmtTQa+BgR3m1omrv1OgbWQ7clg2PHjuk8mQb8bAaD+MTjT8jjjz8uK99fKZ07d5ZOnTvpc7nO8bpMHfrmzZtl8qTJKnfttdfKiy++KLt27pI777ozeJxf//LXuv1A9gEZMGCA7/MTbWteb2i3n2N0MGwYm07OeeJNsp3Q6Tbn/HJyc4OhXSNLC9vmLZqfJpuXl6chWM4xy/Gyd2zfps+eCe1S90qLW45RWFAQlDUtd48eOqSJIkJlkcGT88rm5uQEQ7vI0oBqx7ZtdV5D79699e8QTStf25rXYrFYGoD7779fZs2epVUNRCGIUhjYRqGGaAFzwv2E/ZGnXptIBuvAMvuzD7/HoxU4hrSspFQ9NgMtawnNhlKVkiLNPKn82Kd58xaO0azeF/z6e0JaeoY2KPL2DQ1Q5eqsBj3o88KxWmW2Uq/U4D2+dxk9of1bgWN6+8dChXOuq1avdtcaH9YztTQaGotn2lggfAjWM008GEI8KL/nr2evnuodAV7m6DGj9W8yY8YM9Vz5/do514o4NsXIGVjHq/UewxCpZ2o8Ulq44gVSL2n6hk50PGT1GAsLpaS0VD1VvLkWLVtqH0718px57z69HY9wTFD26NGjp/X3ZI73iEdq+obWlJ0Z7Fvarn17DcdqikDHW2M/+qyyDwaX8zKyNGAy51VX/1avbMtWrU67XmQj9VCtZ2qxWBQ+2NaQJgcaoGHw/PD+DfA6zbrxXFn3bg8FA20KRtFCYyMT2tUwarducvjgAW15axoKYRB37twpu3bsCIZFkcXgncrJUcPFiC5G9uiRw779PXNPnpAOHTroOqisI4e8kUUnRn3tB6uDrXbRh170BwxpoECiss550tjInJeRZdvp/Vsd2R3VsuGut7GmHrTG1NJooKGPpRo+zuE+0Jazg2FDh8qG9evdNdEUfmXlFY63VqENdIBE9BieSseDI4oIhEdzTp50Cgl5NcKleI7qQqekuMsBWbqk5OUXBPbxymoIt6Ysx8vIaKHnYmTxHPGGSx3v2JwXc86TvqX8bmCZbXTZ8cqyTstjr6xeb9np1zt0yBBdbkzYrjEWi+Wsh9AhJKJfb7hjR9M1Bk+MOkNCnXhoGDFa2+IJtmjRIpiInr6lJFHA4BnPESNEH07CuNRjGi/TyHqTNtQl6z0uBra4sFAKi4qkffsOMvLcc2qcF8c1Xiaypl7U7xqikR0yeLC0bp2lv9eG7RpjsVgsZxD0X2aKhaGOAamoKA+GOjE6JEho26a11vWyDmPHj9dGPY41VIMHzFOcdRIn8LuBZfqAklTBK8u+HOM0WWd/jmNkOZf8gkJp4ejv3TdQl8h5ECrmvDg/c17IVlZWqdH0uwb28coih3yobGarlhEZ0obAGlOLxXLWU1tInfpOvMvaptqgbtXbMjha6Gpz6MgR6dylq3qIQKgTI9q6bTs5ceKEepR4bzQK6jdggBo+Mg0Bnl6Jsz5g0OBgH07j6ZFMAVkTxmXOOsfw9vdkmf05jpGlbygNsFplZcl6jyznw3kROmbdK0t3GNO3lN+Q8V4D8DtyyBtZdFY6hYm+/Qdog6zGiG3Na7FYznrwfIxnFAr9SoHkDTQmImMWc1oAk8yBfpr1qduOpDWvMaR4aBgYWtdu3LBeioqKZPKUKXrOpg/nMUfOhGDpW7rP+W7v37fXOcYpDdcia1ruHj58OBjaNf1QzaguobKEdrt2715Ddu+evZpkwZyXkc3JydFwLX10zXnt2bWrhiwtdzdv2qTGNxJZWuUW5OfpCDYUIKib3blzh3Tq2NG9S/4kuzWvrTO1NBrwAOrb6vFMhNBgLB6NJT6o9+kYUgwbzyctd0ng4H1W61PXGkmdKQY3NT09GFrFkB09dJgOnsH6TIwSnmOlcyxjIEFlHaNJP05awILxSJ0P/2npBDFY3Xv0DIZW1cs8dkzHMzVJ6AFvkfrbzl271pClSwv9TkNlucb+AwcGzwtZWv5CaDpBbx5gMNebmp6mifSBa9i7Z3edjZBsnanlrIUPx/QZ5wcnmvQ3BLzM5hzOdT44KbR+TDLoPH78hLtmaQzQdQYjijeKd5oM6E9ZUVamBsgYxwtmzVSvjZCvMaR4pHh5GLSgLH1D3WHUSBhvDCnPt186wVkXX6L7sM4xck6ckA6Ol8ixjSzGkUZBHNcra/qG+smOHjs2eF5Glm0mnaCRZf30awhcL8cxspEY0obAeqaWRoO35Ed9z/jxY3U52XjPI97PfjS89OJLcvkVl7trloYCzzR7f7bmcWZgBFIK0o3LhHbpo5ooz9RAQZOctsY4At4kDYWo3zSeHMYGg8l247nCK//9r7Ro0fy0hPN7nWOSBckri5EmlNrTkfPK0k2FPqbeBPvIsg0jaLxRP1lzXuCV5Roy0tKkRatWQS833DUgm5nZSrsLRYL1TC2WevLKK6/K4meekyefWiwvvvSynDx50v0leaAT3ZwD58I5WZo25KmlXvRXv/yVtG/fXoYMHqJdNF544QU1tCaNYCI5cPCgpGVkqKECDA51mSQ6ILetgfYtGCEMmVc2MzNT0tObq5Ez+KUTZB8G6i4uKqqRTpD90IVOryx60Gf6t4KfrJlr31JXlm0tW7SUEmd/bzrBcNfA8fLzCzXc3hixDZAsjQZvBf/+ffsjShkGW7dsk+f+85KUVVTJkSNHdXiqktIyWbvuI+2EPnDgAFcyMmqeR+TP/jLHm16+YrXk5edLTs4p7QQvzVLl1Vdek44dOkjHTrU3mAhl+7btMnjwYHfN0lBQQCLDUFFhkbz/3vuS0ixF+vfvr9uXLl0qV1x5RcIaIAF9TKnzNI10DjrP55FDhzSkOtLx5gKNkjbIIWcbBhBvzivLANyEdpE1aft4xo2saTzENowaqQSHDhsWPCYeMWHWcePH1ZA9eeKEepnRyHbr1t2ROyh79+6V/Lx8Sc9Ir5FO0Hte4a53l2MPMhxjTWOk2rDpBC2WKHl3+ftS5VZrDhoyRCc8h3bt2suGTVvU2CaaHc7Hdv+hI84HIk8/JuY8+DgNGDzIMfYvNIinbIkfJoE9hpPGR7ToHT4sfh9rP1atWhVsPERoFKPYOitLDZUJwRIeJaMQDYhMWNTIZmW20nfBK4vnWeJ4nkaW3zheVqtW2lrXhGD5HTnkTQjWyHIOHD9aWaZu3XtIm9at5fDhQ0FZv/My1+B3vVs83nhjwRpTS5OGkCr1LS1btlIjBhgw0pJRYoeVH6zReSJZueoDNaQ9e/fSc4Hs/ft0fcf27c68j7zz7jLdbmma0PiIhkem8RGD2SeaCRMmaOMhINRpshOR1MCEQPEKS0tKtCWu6YeKLA15mqWm1ZCl3pHkB7TEpUEP8BsyzZzt5Mw1svyOHMdGBxhZzoFzMeHbSGWZ9jrLpCnEszSy5hq851Xb9ZLEorFhjamlSXMqL1+Np9eQQlFRoXb6Tk9PlzxHJtHk5xVoGNBrSDmn7H375ZxzR+l5nXJkLE2P3bt2a0Ohn/74p1JcUizj3cxAn/zUJyUtPU1eefkVXU8UE8aPU4NqWu0OHzEi2Op1+bLlgVa7jjeHx2Za+ZpWu6GyeKkkokeW55PuKPyGDLIDBg3SkVrYzu/IcWx0sL9X1rTcjUaW5A6MMlNTdlmNazDnFe56uznXSJSgsWGNqaVJU1FR6S7VNKS8kMawUar1g1BdvBozlHt0eA0poV5DuPNIRgMWS/3p17+f40ilSEFhgQ4CjkGi/2/Lli01c88ll13iSiYODCrenAl1EgLlPMrKSmSgx0tjdBjTKMhPtrun/r9N27bar7PSeS6RAfbJLyiQrMxM/d2ADvbnOF5ZMhilEoJ1R6WBLo53GSpr5lJZWeO45PstLS7WQoCBY3FMjh16DRPGj22UhhSsMbU0aVq1bCEtW7WUQwcP6HqoIYVWzkcvlLu/c7fMv2++3H777drdIVZaOecA4QwpcK5eMORzb56rg0czt0a18WOSNdBVhoHCk9myNOChvqvhT0Kd9A0dM3acemyEQNluPFLjocKyd95RQ+SVZTKeo+nvCcxZZ+izUFn2R6cJzRpZb59V0hyWlJTUkGW78TL9+rd6+6waWeS858VvQxyvuTFjjamlSTNq1DlOCbZC0tMzTjOktCSkzjK1WVWNbDUYLbILPfDgA7Lo74u032CsdOrYXlsp7tq5U3Zu31HDkH60LjCw8ahzznG3BDD9FTmP+T+bLwsXLnR/sTRG+BtR8MIz4hm6//77tY9poqBf4ypn2rx5i7sFgzpe9jqGzYRF8dhMCNQYUrw5wqVqUF9/XescCe16ZY0hZRuyeLPI8pyyzjH8ZE1oFkPtlcVQrl+3Tg3pAHcEGyPLdn5HzitrrgH8ZE3Il/PyhnZpVct94f40pm4y1phamjQDBwyQzJbN5fixY1JWWqoeIUbUGFLqf2hqj/eXSK64/DLZtWO7bNuyRZa+9UbwHJgwrFmtmsuQobabS1OEghctd+lTynzG+TNk1sWz5LbP3qaearw/6CRz+GDNWk0QMNWZ+jpeGutbtgQSvA8dOkS7WeHF1YY2xGvRXBv2GLz7eJepE542fZrkevqW8nuvnj118srScvjckIIhOX2HDR8uaWmp7pbA/vRhpS+rt88qy6H9W8PJwrnnnquGFCO6evUaSXUKztwX7s/ho0dllbOtMRhV28/U0mjYtm2b7Ny5S3bu2CnZ+/fLyJEj3F9qZ9S5zovtfAxynReKwYmB0G6LjHS56mNXyq9/9WvteM9HkBIzDZOeePwJ7SO4aOEiDdeNHjNa9wP6ix46dFjPIyfnZMR9PQ843u8GQmBVgS46wHBR/RyjPnPm6Rm8BjgFAcLN65zSuHqpt1Rn1QHbz7RxwPPC38VM/E2Y801izt+xPvj1M9U+pdOnq2dmoNUr62QlWrd2rX6LSfJOsvfSsjLti4lHSsMelknDyQDbjDE6bsKEYD9UvE/jZXbt2jUoy+DjWifrQN9uCg3UEZPGkPXWrVurgaMu1chyTvT1pM/nUcegdXOOx7PuPS8KkniZ9FtFP+eBrPFI8ZiRMXM/WeORYkgxonirvMMGkuT37t1b1jleeevMrBp9T5Pdz9QaU0uj4Y033pJWrdtKRWWVdtQ2L3gk9OrVU0aPOlcmTRyv09gxo2T4sKHy4gsvSklpiX4QTd9ASrF8MPAqyIFLYxI+iobl770vmW3a6XlQBzpuXGRpDTnmhRdeIO++84488MDv9Dw4J87NDxqzwOyLZ+sHAoPu/VBYY3pmE2pMNzvGbfCQoWoQfvSDHziFuR1qWJa/u0w+WL3a8Rynq+E5lZujBg7DRVuBlq1aycCBA3U/Eh1s2ojhzHAMaaDVMeHeQwcPyTHHOI0eM0afMa/s5EkTVc6AAUWH95sfMKg56hUbjEGlsZIJwQLnhWxBYZFjzAIF4sBoM+ulML8gmBKR88BA0SjJXAOorGO0iTqZ427dul0N6XPPPquDDqxZs0ZWr1qpI/pgeElbuNYplHoTvdikDRZLnKGui8kYzE2bN+kyxnXTpk1xCwFjqDnm/J/Pd7fUzmuvvRYIHzofB6BBlOXsJd8xNKYwNWzYcLnuU5+SG2++Wb74lS8Ht+OhGiPMnGgMWb5MuBSPlD7WmrZvf6BfJvMKZ53w7BrHKBuMrN/4oH7Ok982jJ3XkALndfDQYaGVsDkvCgUM30CL5MByILSrMnk1r4HfSeBgEjNkZx+QXn3c1sJVIhfNmim33HqLfPbzn1fP1NBQA2MYrDG1nNGQnNxgljGkeJEYr3vuuUe3xQOSnePtRpr0nNFHMOQ0ZmEfr3dsOfvwjk6E1+iNUtCyNYhjkDBYDM2GR0Z4lBawtHylwQ7bTOMhkjSY0C7bTStfr2yfvv3iNuC233lxDia0axoasc208A2Vpa6X4dbI/ETYG4/QhL0rqyqDy+C9RyTmV0+3gbDG1HLWQZiXNHC05KVUneiUcOGgJE59La157billmg4ePBQ0Kgwp08mY4ma/p4YmQ4dOkhb5/lmPFJjdAiVpqQ00/FIWQZ+I591rIaI/cm56z0vdJWWFMtYN9EFsMw2cX7zyrJO/9hRY8boNiCsGtogKRw0giIc3VBYY2ppNNB4yLSAZcT+RIHhIrxKH1NSwxH29ULJ2JwHH6JEgaeMQTV9TEPPw3J2UUUMMxKqqmTI4EHBcKlff09CuySUaN22nWNU29eQpf0AaftMP1RkNflCeka9PdSAR5pxWt/QEsdoDhg0OHheTCyzDYNqzot5RXlgODnvNdAIaviI4cGQdW2wjzWmFosDTeNpBctEmCuRzJo9SxYsWKD1lStXrHS3BiD8Zc6DoasSCWFh6nPps2g5u+nRvVudRoOkCAyMTUSFlq5vv/mWPq94mXh3JlxqQrtsGzJ0mBQWFtSQZTIhX69sfUK+JrTL/hwXHegyoV3veTGxzDYT8iWdoAntemVNa2Lqavc5Hm9dUE/ckFhjajnrwAukSwwfJEYBuWbONe4vyYUEANTdUldKyNnWmZ7dYDRyTp5QD8sPDC1dvrwNfqp8DEil47kS8jUQxi0uKj5NlrR+JvWgt+6xyJE1fVrrAkO635MQxYAusi4ZzPEZk9Srq6S0VNMJYoC9cA1eSGxvvFg/MMgktGhIrDG1nHUQ5uWDRXhVU8P5fAySAfWlix5ZpA2hqMdtqPOwNB7wOvfs3iX08wyloqxUPTXgeTmE5+dJxYexNV6m8e54zk1jo3CyxkNFduP6DdK9e3fp069uD9V4pByDY3FMjq0eqaMLnejmuMYj9YaiaWxEWDbceXFsdIDxxDH8oZCoJZpudInCGlPLWYkJr5I0AU+1IeADQeMjsulg2C0WGDZ0aA3vDVpnta7RNWXr9kC/SzDhUmOE2NeES+n+gvdZmyy/kXB+3do10qt3L23ExHYN+YbxUGlsZEK7yBqDqobU0QEcF92cgwntmvNa+8FqzbpkxmoNdw0BgxpoGMX70tOnz/bHr/qYu9SwWGNqOSvBgNL4aM6cOTJ3XsMZMsK81NtyDpyLxVIbeKSkzyNcincHeHMmXEuCHcPunTslNS29Tll+q3Rk0hxZxt418Pvx48dP81DxFg8cPKzHNyDLMTk2OoDjoptz8MqSeSk9o7m0yMgIytZ2DegyHmooDM/mzV3ckFhjajnrwJDS4IdwLyXgeIwaUx+ot13y6pJAVqa8vOCg0xaLp8upktIsJRjanTqtul/m+++9F/TmjHdH+NSEdiORNWOM4iWakC/bjZfpbZRkQrsc14RxvbLGQ0WXCe16ZZe89pp07dI1oKtbN82dzf51XYM35OuF95d3pzFgjanlrITk5QZeyIbCNCZpyCb9lsZHaJ0pHtjSd98NhmsJgZJasHVWlublNc8wxqikqEgzCNUlS39PPEF0mf6p7EOmpNTUZsG+oci3a99BPvpovRx0jB/HA2TRgz70ArLoQBc6vbKk9Uxzto0kl7YDvx11PF/6wtIntq5rQHdV5endh/zqlxsCa0wtZx14pPTxJPsQXin1lg2BCS+bLEjU4VosfmBoChwPzLRoJSzKYPMYrH179gTDuHhz9CFlpBgjS3eaFi1a1JBlwnOkX6dXljnrmZlZsnXL5qDsZucY1KsyqowJzRpZ9KEXkEUHujg/I4tH2q1r9xqy/EbXM/rC0ifWyPpdg7nesnKf7i+Nw5ZaY2o5+6DVLGOHmhR+NEJqCAjrYkQ5D8bFTPQwcZamzcDBgzUEunxZdVgUj9WEcZe+9ZaGRfHmTLgUWTPGqFfWhGDx+KpllwXDtRyjVatMNagr3ntPhg4bJiPPOUfDs4wcw3G9suhFvzkuukzIl7Bx927d1CP1yppr4ByMbLhrMLItWlSPCtPYsMbUctaBMcWI0qKXibqohoAk+ySP4BwYJNx2jbHUBQa1rKxECvLzg2FRjJFmMCKs6oZrgfpPwqXFxcVBWTMP7e+J11lYkK/7GDhWaXGJVDiybd0kKuyDl8s5cC4G+qy2dSbOg/PRbY4sYWQS0LfxJGFBFkhy7z0v1pulpgZ/B3O99Fn1nm8NIkwclWisMbWcdeAJUmc666JZ2hAJY9YQYEAZx3TO1XM03NxQ52FpfPjVDZI/Fw9tzNhx0toxLHiSQFg0NJ0g4dGjhw/LhbNmSoljTFk3oV08x1BZZGZdfIl6gl5Z5PBI0cW2tWvWaviVc+BcCL8y5Zw4IR2cc/CmE8QjxTiPHju2hizLbPPKmmswHqpXFl2cH8fzM6h0sWkMWGNqOSuhbyetaBk1Bu+wIaDxEYad+lsyMdlk9xaDX57ejh07SP8BA9SgmP6Zb73+ejAsikeIoVy/bp0aUjNuqAmXst2EdmvIuuHa2mQxqG+/RYrAw3LxpZfqORjDd+LYMWnXoYPKmTAu54W3y7pXlolltvEb3WG81xBOlvMiXzfhYy+0Gp44seZ4rA2FNaaWRgPhKENFRaW7lBhMdxiS3dNFxUt+fr67lFgIL9PPlHAvSRtYtliAMGwoDOy9bWtgjE+8REZ+yWjRXPPaGhhhpaysTFvkIqPbnDl5r8scee8ILCrLMZzfIpGlhW6rzMwasmlpaZIX8r5gjDMcQ0qI12D2Ae8yMsjWuAYfWQZHv2jW6YXeSvXgrWdqsdSgsKjIXRLJap3lLsUfGv0Q5qX1LDlxGaTbCx8IQ0enxJwoCPES6uU8mBqqv6ul8TFx4gTtaxnKBRdeIG+9+ZasW7NWvbmp06brnDCphnbxMh2PFK+SMC2hUhPaNV4nckFZZ1s0snR7+ejDD7WF8O5du2o0NELOhHbxnM15mXAtckaWbfwWuIbwstu2bJVXXn5ZunTtqh6qFwxtVlYrd63hscbUclZC61lDQzVAAm8pvCHPw9L4yMxsVeP5MGBQ+w8coA3WCHOStKC0rFwOHjwoLVq21G3ZjlFiGxmNiopLdJ3t/I5cqCwyyLJPXbIlJaVyxDGugFFlopHR4cOHpcLxFDkfZM15bd28WX/3yrKN32qTZXu37t3kkssu0xByKBvWb9DUi42FlKoIam+Xv/uuTJgQv4z8b775plx44YXuWt1EK29pmvzq17+Vc0aP1eXDBw/I3Js+rcvxho8QyeXn3jJXW/VixLz1lQ8s+D8ZPCxQN1OYlytzrrlKl+MNXWNIJUj9rRkxxjtyzEsvviSXX3G5u2Y501i1KpCfFi80HMhMnT7dXbMYyNrUo1u3YNITP5568mn5xHXXumuxs3LlKpl23nnu2unU2zPlA8Q4kKtWfyCrV6+pMbEtdIxIi6WxQIgXQ0pYdfbM2dq/syG8Qgw4jaAw7JyHDfNaQsGJWb7sXV8P9WxFDanjsdZmSOuCqh4KKqG2S+2XYzTr002t3sZ0s+OOT5sxQ+PdU6ZNrTGxbdqM86xBtTRKeFGMAV3494WaASmWF7O+aI7g++7XFr2vvf6a7Rpj8YVxOvfu3i3vLF3qbjk7oT6VLjrqkcaQfpP3v32HDurxh9outV+O90loO1rqbUxTUuvaNUVTSlksjQ1NJzhnjr5UeIP1KYXGA9Mthla8nIetM7WEY+jQITJ50kR5+qmntC7RTGcyGE9zna++8oqcysnRcUtjLfgeyD4gvfr0cdf8GXHOuVrYjYZ615muWr1aW5LVRri6VltnavEjmXWmeKbGiBqjZuork1VnihFlcHAaQxF6xsh7vVNbZ3pmE0mdqR98e0tLSrV1LYamuLhEDh7I1oTv7dq3l3ZutqHDhw5Jfn4B/WyC2Yroq5mfl6eZiryyO7Ztc5yfVElLT9MRZADZnJMn9Ry79+gZTOWHLGQ53mFXx0sEZE+eOKHLp8mmNJOsrMygrJ5XQYE0c87XyNa4hnbOebVvJz179dIuOceOHpNzRo6I2oiGqzMlYkpUtTYCQ8qV1mjDkLA60yrtB1ibHa6SykqfpMQWSwODB0ipkxdl9uzZWm/pfWmSRfb+bDXow4cN18QRnIvFUheEfelHCpOnTJGx48ZKXxIs9O6tyRXYxjTIMaA9e3SXPs5vZhtVcAwyHiqLTJcunWTkyJHBbfyOHMdGh9mOkeN94fhe2d6OEWbyynJczsErO3jIEBk+dJhzHj2DsjWu4dzAeZkWvPUxpLXRo2cP2b93r7vmz769e6L+JqT+0MFdDgtW2jvKO6Do/eXvyX7nY5C9b78jUz3tc+T37d6jJX4/du/eLf369XPX6iZaeUvTZLnzPHXp1l2XC/LzZPSoc3U53nTq3ElmnD9DPcMXX3hRX9oBAwZIc/cDtcIpgXbs1FmXy0pLHGOXmOb3w4cPlzFjxmjSiJ27dkqnTp10m2H7tu0y2PUoLGceZnzOns7HPVp6OAaK55d8uKZvKB4lA2/TtYRvtulzShKSLZs3qyfqJ/vh2rXSvn0HmTx1qvYVLSwslJLS0mB/T7rFbN+6VfPzvrdsmfYjnTh5sq9sS0eW4+Lxrnz/fe0/6pU9duyYJt4fOHiQesdHHC+1wvF8Ob7fNXRzdNXXkG7auElGjKh+nwz0V+XYO3fs0AJtqO3av2eP4zF3P61f64EDB7SwEI6YKjUnTpqoMezx48fWmNjGbxZLY4SPEPlw8VCXvLFEh0JriAZIGNE518zREDPJI5hbLJHCd3btB6vVCFEgNKn4djlGwiRZAJO2z092547tOm6oGWPUJGvgGPyOHPLsx/4mRWBtsiR2WPvBB6ozVLa4sEhHsEGW30rJtJSTo4Y+9BpiMaR1QZUKVZB+tmvCxAn1ilTZFkKWsw4iJkteX6LLJLtvqK4xGHFa8S58ZGEw2b3FEg1THW9ynydkicdVWVmphowGPLrNmZOeMCOjhezeuVO3AR5penpzlffKsq9uc45loO6T/TmO6aYTThYdGRnNdfxRI4tnirdJ+wAjy2+B4+VJUUFB9XGd30eOiG9oNxlYY2o566Cekpy8lD5p8EOdaUO8uCRtYCxVPFLOwxvitVgiBW+KLiOkHzQeKd4doVcaKDGiC54l3T5M2r7qVH5Tg7Lsb8K1xpNkLFGTIpD9OQ6hYo4bKsv+5rjImtSDel6HD8uMCy6oIWtCzsi2zMzUdbYn0iNNJNaYWs46MKKEVRmpBUMWrm4/0dDoiPPAkLLszcJksUQDBrWqskKNFRAu7dChg/To3l1bzhJCBUKrJIfHazQhWGTJR906K1P3YR04VmlxkWQ0zwjKchy6PJL0HmPplWXsVELGXtnUZqlSXFgoYydUt1geO368lJYUaytfc146GoyzPn7c2CZpSMEaU4vFYjkDmOAYLDPGKSFYRpXBkGI4TRgXz5EGeHiaLAO/0RiobfsOcsLxYo2seqRduzpLKTVkOR4Gdd+ePRqaZeJ3ZBnrlJAuMC9xjPGgoUPVQzWyeKADBg1Wg+qVHTp4kC43VawxtVgsljMEE/I9dPCg9HE8R++oLkvfektDsHiOTCyzzYRr8RKNrAntImdGdfHKclwT8qVVrDmuCeNyDhpynjlTj2tCvia0yzavbFMN7XqxxtRisVjOIDCojGlqQrDMafzTp09vadO2rW4DlumKwm+hsnRFPF2292mybdq0lbTUVO0fasAIDx08WFv+GpBt27aNpgE0+wMynG9TN6RgjanFYrGcYRgPFZizTq6ACsfIEqrVcK2zTH9Vf9nuPrI9grKEa/ft2StDhgzSVId79+zWbYRrjZc5ZNAgXWc7vw8dMuQ0WWTOFKwxtVgsljMQNXzvvqNzgzGSxpAaopXFIGJIDRhKkvF7w7XMWWc7vxv8ZM8ErDG1WCyWMxQaJYWCYfQaR0M0sl7jaMDrDDWOrLM9FD/Zpo41phaLxWKxxIg1phaLxWKxxEi9h2CLBTsEm8WPZA3BVhfJGoKtLuwQbGc29R2CrTHDUGxr133oriWHCy84312qSbgh2OpLwoZgs1gsFovFsHbtOnlr6TJp065DcMrOPhj3qaSsooaOpxc/q0a8obGeqaXRYD3TmljP9MwmXp4pY/OWV5RrSsCCggLJzMx0f4k/5vi5ubmaeME7uso/n/i3DB1WnV961coVMmFi/FN1Hj16VAqd8yARhOHY4UNyySU1xwNOtmdqjaml0WCNaU2sMT2ziZcxZUhBIMc0y4nMNW2O79VpeOwfT8hwNy/vpg0bdPmYY/j+8tBD8uG6tbo9FhhP9fwLLpQbbrwxeHzD7p075No5V7trAawx9cEa07MDa0xrYo3pmU20xnTF9o/kl3//oy7fdfOXZNKgwOD5L734shw/flyat2whOSdP6tigicIcv7SkVDo488uvuMz9xd+YPv7YY/L8s8/otnjQokUL+fmvfq1pCBubMbV1po0MhuUyUPqzY1xaznR4zs14sjzvxus5m5g0YZIOFs/4ugwRyMQYt3d85Q6dz79vvnz3r7+WZ8bk6nTXn3/u7ily3DFwI0aNloGDh8r4SVN0nqjJHH/4OefKsRPH3TMIT05ufOsyi4uLZVUjfT6sMW1k3HH7HUEDuuJ9x5gutsbU8Kkf3K7Tn1/9t7sl+eAdmPNg2RI7POf333+/LvO8s342QQGanLUMUs/YukDhgqQGmzZtUsPK8Hx7Co/qb+BdZlSXpsKnbrhefnLffe5a7RhZM0xbY+eMDPPycPJCNpUMG1TiM64mzL15rq5TF8FLRCmdMS9ZbmpeKh8EPgKzZ8+O6G9RV5i32+0z5cTsHvKF8rHywCfv1NL6ps2bZLjb6IFR/Llv5l7Wl9rCvBjyuz58VIoGtJYFWVfL5y/+pP7NOAf0A9fNGKWxjk8aTZiXRiivvfZa8CPcFOAeAUaEZ55nneecv6H5jWeebU0F7n/PXj11fFpv4xw/TJjXm2HIvDPA39T8Ldn++7f+JU/sX67rV6QPlb//4Le6/Ohjj8uIc87RZcO6NWulrLzMOb67oR6UV1RIQX6+Nmxq166tDBkyRFp5Gjdt+Gid3HzTje6af5j3jw8ukKXO99vwi1/+Uu/PjTfUXYVjZH//29/pYOSGm+fdoo2PGluY94wzpnxgKd3xMDdF+DDrwNXfuTv4gWG9qcIHYeHChTL/Z/PdLeF57LF/SLdu3XS5Xbt2Mt6TJxRCjakxYngz3Cs+wJTkzYe4vjz88F+kf//+utyvfz8ZOGCALkOoMZ3R61z94GPUuVYMAR9DnkFv44z6EKkx5Rmh8Dhv3rwmY0i9YEz5m3Ef77n7Hrn9jttj/hs2JBh/c021GdT6NEDatHu7zof3q86LG2pMl779tgwbUW1oWrVqJYWFhe5a3aSnp0lZWbm7JnLieCCceyo3VyZOmqjLYI1pTc6oMC8PMR+TpmpIYc6cgFeF8eGDbNabKmpYHKOCoamL5s2by6xZM3UKNaSQdrJUWu7Mk7KCIl3n3vCy3X3P3cGPrwmTxULPHj2C5+E1pIaMA0V6HsD18cxhyDgP9A8fPrxOrySeLHl1iV5/UzSkYP5mRBQeWFAd6myq8Le/5557ZNEj8S0EU5Cbt+Beuf733wpb1bFr507p6xYEDX37RBYmxYgOGTxIunXtqnPWgbFKMaj9nHfhow/X6TbL6ZxxxrSpv4jeEGU8QpaNAQyeCYHGwtPf+LW8OuNe+f7Ft+o692buvLk6pwDFFKs3WBc3TL5MXrj+p3oeLAOGDN3mfFhOpjFtqkbU4P2bJeNvmAz4m0T6d8GLJcpCNIo5BU++ZTRGYp3GSXjtf37lSVk7LV02z8iUP7z0D3fvmuTn50nLlq3ctejAiO7avVv27c/WOeuhlJVXuEv1419PPC6vvvKqu1Y7RnbTxo3ulsaNbYBkaTLwkWVKpqEKhQ+kOY+mbsQsjQsMKM82z5Wpe812DBvk5eVJcUWpLkNJZZm71LRYtXKVPPLXv7prtWNkGfu0KWCNqcVyBsKHmbpUPsrJJpKQfjwx12oaMCUTrjXW6yWioWHhvy/S6gIMKtUHbHvm2Wdk8bOLtfD21cs/I8OWFuh06zj/uvTMzCwpKoq8ftTLocOHpZdjwHs7E3PWQ0lPS3WX4stnbrpJJjTxHMVnhTEljNIQLWEJ29AgKtmgl2tuCPz0tmndxl2KjTFXXSiTvnW93PXwz9wtyeefrz8v42+9Us+D5cYKz11DGFL+/hi1hiDZ14wR5Xp532LBGE8wczD18eZ3Wo4/8bX/1ek7c293pWoyYOBA2bNzp7sWYM/e/e5S7dDoaNeuPXL8+Amdm0ZI2fv3ab3prh075NxRo3VbvLnyY1fKp66/wV1rmpxRxpSHjikU6lEbosRqQoHJ/LhwnXRF8SZ/SBboXPDAAnetGj4E3ItYOdS7mdYZFbdN13Xqk5jo1O6dJ5L8imLZfk6angfLfLxN53pvHRcd8JOFXzsBnrtkF6h49ii00kUnme8b7zx/B+pbvcYo0aC3tnc7mhbJ3DeeH54d8yxrzwRnnWcLKERe8rc75byHvypf+eOPdZsfMy64QLL37ZXdjlFl2rh+fXA5kmnjhg06375tm3y0bq224i0oyJeRIwPdxSz+nBXGtCHgpaZVJy9bPAxJpHD96E52PQMfM7rADBuWvI8Z4PVyrdQtcd3x8oIjBaOh9zvvlNZrAX8DOuEni9Dni4IcoUPOK5lGTbvn3DJPzyfW0Gc0mGcvGuMVD+gOpS3Knb93PO4zdaTcO67HfMf4G5q6+efXvyOHx7SWvPEdZcnm2gvoY8aO1W4ssUxTp06RmbNmyfmOcR43bpxkZmW5R29YEpkuMRZsnWmC4IW4/Su3x+1FixQTeuLF5ByShcnUxLUm6kPas7CljFlWJu3KA54pdUoYjQUPLpBFjy4KtKa9JbGeaZd2HWXIzmZ6HizzsSMSYOq8mN99b6CLTEPBM4enQ2GO80sW3H9TiMNLTBYUWLnvycYUYvhbG+NXXzjGDTfcoM8vz4+2EL94ls5NIaFr83Y6hzZlgXcgQAyZGRLMdZ/8lHTr3sNdC8+hAwdl1aqV7lp4rvvU9TJl2jR3rXFxViS6x6jgOcT6wEcDOim5AokFTOkyGWDMTF1LskF3fT/gTz75lFx33SfctYajsSSYt4nuz2y8SRsohFIIZq7fK6dQcuDAAZXDS6SgRvrKnz7yB932jU/cIjPHBoxKQyS6Lykqlo4dO9aZ6B4YOebbd/6P5tWNBQzpnOuu02U7aoxLso2ppWlgjWlNrDE9swnNgEQ0wRhTUxCnQIzXXVth3NTb4iknulrJHN+r0xDOmMLaNWvk97/+lZSUlLhbosNrSMEaUxdrTC1+WGNaE2tMz2zqk07QD6JBuadypW3btjUGB9+1a5cud+nSRY4cORL8jblZNuveOZPBuwxGxg4OfjrWmFoaDdaY1sQa0zObeBnTcNAqmAZ5S5YskR49ekibNm2CjdIwwBjCzZs3B39jOw3nfvHLX0hFRYV6yNR9R1p1g7HJzSvQbjQGPMh408kpHHTu3NldE9mxfZtcPOsizeftJdnGNPWHDu5yWPbv26c3PF7s3r1b+nlKFXURrbylabJx4yYZMaLhm99v37ZdBg8e7K41HI3lPCyJ4cCBgzrv2TN+39ZQyHet3mOKaAMnllNYcf4bMGCArjdv0VxmzJghV1x5hRrVT13/Kd3O73R3Y1unzp3cI4aH62jmHPew4yWWFBfp1KZN67hPaanNgsdnuvLyy3TQ8FA26fek2lOOFeqwe/fp466djvVMLY0G65nWxHqmZzaJ8Eypy6RfKh6m8TYNeJfUcdLq2ls/a2TYvvCRhbofDaDm/3y+zLt5nix+ZrH2TKDVfDJbh8eKDfP68JTzke3Tt6+7ZjlT2bp1i9x4Y/WQTg1FozGmL70knTpVh7MsZxYpzZpJVWVlXI0pIVmTkYlGSxhL5oR7CdniaRqDiOFluxm2ECNKf11gP9PQiN9IxGEMcVPBGlMfKMFNnT7dXROn1JQr69d9KFUJ7l/Vrl0HGXluzUF3N3y0XnJyTrhriYEwzDmjRzkPd1t3C6H2vbJn9253LXFQqd+rd81QxvJ335FK56VPJM2cD0tKSqqMHx8YHLwueCYofQ8dOsTdEj8iNaZ8cLZs2yo9uveoMcBzvAh97nkG9u7Z664lhpQUcXTW/GAkRa8zjRx1bo1nnvd8w4cfJfQtbyi90KdvH72viaozDYcxsGc61pj6EPpReW/Z8og/urFAqWz6jPPdtQDvLn27RnPwRBF6zfH+G4Qj9IFJ5r1OTU2PWNcHa9Y6pfqqhJxbpMbU3Kvly5y/zfj4/21Cn4GkPXurHb3TqvUue+edpHzwT3vmHb3JSH7O6CRTPc98Mt81SLYxjZZlzjdg7/5sKS0NjFTTvl0bOW/6NGnfSDMRGZJtTM/oDEhLlrwui595TqcXX3pZTp486f6SWHbs3CnP/+cF1ct89eoP3F8SC9f3yiuvBq+Z5WTBNXrvNfcgkbRq2VK6dz99vMVkwkcQQzN0cPy941jguee5Y16vZ76eLtmbb76lf/t66w0h0tPg2TN66+NB19cDXbtunb5jTIl+3huKX//2D7Jh81Y5fvyk5OXl65RfWCIvvvyabN2yzZWywBlpTHmRFz36T8krKpEDBw/rdOjIMfnnv56SZ52PfSLBmKxYtVb27jugepnvc+YP/t9DrkRi0A+K84Afz8kLXnNhabn8+jd/SOhDz71+7J//km279tS418veWylPLX7GlYo/w4YNjWsL8/qCQW0sIbP3318pD/9loZRLqj53PP/PvfBf+deTT7kSiYFn72+PPColFaJ/e/Qufu4F+dvCv7sSiQEDhl7eL/QeOZ4j776/Sh77x+NxMebhQC/fl93OPeZ9Y+Kd/+NDDydUb7LhW5aekSEM60Z3l0FDhugEJaUl8u7y93W5IdmyZatGqVZ/sCaYMaqhOCON6fMvvCzlFRVy4vjx4AOQmpoq7dq1l1379ifMuOANpKSl19DLtGP7dmnfsZP85a+PuJLxhZd7x559kpOTo+tG7+5du2TA4EHynHNeiXrJX3z5VWmWmqadqI3eVpmZmjrs4KEj+oG3JB7u88Gjx5yPXKls37pV/w48hydPnpD8giL5+98fcyXjC+8Sz15hUZHq5aOL3hPHjkuLlpmy4ME/upLxhef5nWUrpCpFJNt5p03fxoPZ2VJSVi6POgY1EaD3vfdX6/cFvQb0tmnbXv78cGLe8YbgsFNAqSivcN7lIl3n7wrc66LCIunRu7dGAxqSvPwCmTxlikyZOjXY1aihOOOMKeGeNm7n3Z69euuchyAjo3ngoagSWemUYhJB9oHD+oLxITPwgRk4aJCzfZ+0ymqTkHDQylUfSH5envTs3Sv4UWEMwn79+8vunbuc7X3knXeX6fZ4gkeS2bq13l9zrxmYGMOaldVaSotL5KP1G3W7JbFwn82z533+eAaOHzsmzR3vIiHPnvMumWcPvS1bttLtg4YOcT5u2dKzT199TuLNf19dIhUV5UGPyejt3rOnJhxo4xScE1GQe/OtpU7hMVX1ode8b+hlmLI+/ftpobqpQwi7W4/ukp6eHjCe7oDjxqBy7XzbTuXl63pD0TorU95/7z15b/nyhDQCjIYzzpgWOiUmPipeQwo8DDwUPBw5Obm6DWjZZgb4pRFMfaG+qP/Age5aAB42PjJqbJxSHOzYvkPnQF8v+oQxj4WiwmItKZoPihnMl/tA/kr0n8or0N+AfmVm4HJvP7Ro2esc31t44B6jy5xH8xYtpFlaatAr5l4zzifXHMu9ttQEI0mhxov3GaB1Nh6G99nj785zH+vfgXcp3LN3zrmjdH7gYLXHgF6egVj15jvPs1ev9z3v3KWL5DvP2r791Z6jefZiHecXTwhdXCOE6j1+9FiNdw29vN+xvuPJhpby3F/gHnO9oQa1MUBr/nFjx8r4cWMbvNrnjDOmJW6LM/A+6DwM5sXzosOVOaVK+lItemSRPvz1gdKwlxqG1DHsLVu11PMgDAf0B+PFnv+zgEGL5WUzxwTvx8wYOfCeH4aU66XPGAY1HnBtXKu5x+Zjw/rRI8d02QzTxjVzr2Mx5JZqdu/aHbzfEPoMsMzfpsD9OHLfKdAwRBt/h/o+e3gvPOOGcM9euWPIDejlfVvieJaxDKDufebNe84c/eYZLCyqHqXk9ttvVwNBn8pYnnkK6wajN/T7EvquGbzLjZ2BAwZIrlttBFwb12gM6rYtm/Vv36Z1YxjjtL5NyOLLGWdM27TOVMN16GCgMtrPkDbPyHCXAh8WjAovOJ2ZzWgN0TLOKRnxMYFQQwp8YFimFSpQMkdv6zatdR5LSb2Vc70Q7mMGrVpWp9uio7a53ljIdPSi7+CBA3qt5h6zzcD2IUMDKfEYPJrBlLlmxm+kQGGJHe+z5/cMsM374ePvMHfeXO3Ez9iZ9X32xowerXrATy/vHu9iWlqqrqMHnUYviQDqi3mHjUFjjl7ve04IEHjOGAaR94xCZH3fcTDvmtHr933JyKgea5ShH9HL1NQKj127dNLnhu8ZeA1qh46dZN/uPTJr1kz9zXIGGlNyMVZWVUl6esZpDzovAOsdO1b3j+KjbkKteIr17cdHn6u01FQpKys7zZByHnBg377gw4dRIdsIpXNKyrxs9WXQgH7a+zz0YwYfrVur59O7V7UHAXjkTBi2+kJL1vz8fOeaq70EzgHMveaFNOjAx07pnGs2GVUsscOzl+IUzsvKy3yfAcJ1uTm5anSBZ54oAUYGzzSWv0O7dm3D6mWdd8/kR8WgYVCZeAZi09sm+F4ZQ2owhdke3QN1aKaQjF7ecwqS9YU+lrRwpXt+6PeFAkXHzp0cvd10HTTRvPNdYWK5KTHnmqvk6KFDek3cUyb+ps2apWoB+tKLkzcAfFPgjDOmhCfat20tx48fk7LSUv3jmwcBThw7pg+JgReakjKlRsKPsTB92mTHkFfK4UOH9QNm9PKyd+7aRaZPnexKBlAvrXVr1c+Hpr5MmzZVnLdbrxWMXqbBQ4dKeUmxTJ48UX8DDDepw5goqdcXPuL9evd0rrVQ0tIDrZiNXiCbzqyZ1ck5+IhxrTBv3ryzIgtLsuDZogX1vj17dN37DGBYBg/oG+xkz9+B+0+BBkMTS0FuyuQJUlpS4vvs8RFukZGm7yTw90YvnjG5X2N59niuMGg8c2TP8urlekOfeXRReMjLy9PxQevLxz92peTl5sjJEydO+75gVHNOHJfzZ1R37FdPeNMmnfDGmxqf/9yt0qdHN3VAWrfO0qlj+zZy2y03BSNOlgBnbAYkWvJt2bZdOxkDYSEeCK8hBYYpwojinfKy86J5c1dGmwGJxja0NMzJOaV1J3TJ4QHko2M+KkDJHEOKETfhH68xr08GJFoRHjt2UrspACHloUMGBoytB66Z6zR1OIufra4zq08GJLpH0KrTNOziXuM58MEzH3DgHvNBwRPnXnMfzYece11XBqS7Hv6Z7HW8+5tnXS0fP/8Sd2v8qSsD0qd+cLvOf/OFe2Lycuoi2gxI/B3o+0d3EaIiGBrqvUadM7zGM4B3hmHhOcdD5Zhewxaqt64MSDSAenfZ+9pdxKt3iPPszbzwAlcqEG69//77Vdfd375b62wfePAB99fo9fKu0TWL5w7PFE8R49aje9ca7znvF8+6ec/5m3n1hj7zdb1r6F3y+pvadaQ2veD9vkDou5ad7ezXCPpLn4ns27vfphMMhZds9959zkMbaFBAifC2W+fqcqzwYedDTh0SLzuhSPOBZHtG85by0frAmHzcqmHOB6K2D1qkcGzCrIR+MCgm2bSBa176zjLp5I7b1zwjXT71yfiMqMILTkMrXnIN94Z8WI6fzJGjRwONhuJ5r73hXfRz3d6CS13GdMbDX5P3O56Qr28dJP/77R/KpAmTdH/+bhRMevbqKYv+Xv9GLYa6jGnbXwVG9H91xr06xzCYETo4D67L+7esL//691PBBnXRPHt87D9wCjf9+verUYAzEHLEoFKfx3myHFqQM8/esaNH5bzpU2s1agajt7djUP28FmPUAA8VvaHGtD56gf6OjGc5fvw4d0s1PGs88xTguE7e+dBnfpNTEEkhlOIQzbuGXrqBeb1gL3OuDrTH0CoO5zlZ8kZ1a2L04inzzFjiDwOiX3nlFe5a7NRlTJvEeKZ0xmXq2r2nZDoPbq7z0o4bN8b9NTbeWfqOPuizZ892vLpj+lE0Y/fx8h85dlyy2rRTvYUF+dLJ8W7j4Y0Q6kLXD3/8Qx03EF2U1A1c76HDR6V3336q+8SxozJ2zGj319jQVsQ/n696161dJzPOn+H+gl4yNx2UTl26xf1ev/jCi87DfaXc8OkbgoP7eu81dTG19RX72wcvSXarIplyvINcct6F8ueH/qxjMO50PCPuJWM3xhKyNNQ1jujPlgcSAsztG4hacD8ZD5IPY0lJif4dqZeMlRXOy9utZ6+on72WLVs6f9v+0sETFfCya+cuvV933nmnPgMYm3DPXm5urvR0/iaRjLlp9HbsVN0AzcuB7AOOkTwmd951p4x2nmVzrwz11QvoDffs8F4bvdw/njnvfeSZP37ipHTp1j3qdw29vZxCXDjWrVunzzuFIO55zes9oM8sBQaus7FOxSXFGhE66RSyCx0vnOvAufKTbUzTRx9+lNTxTJtMnWlpWXWXl3hCyZxm+oRh8HAorXs5cuiQuxRf+OjzYlFyxSvDmCQLE2rFK/Vr2VhQUN1PLp6gVz1w514zD73XdTEmv71cs7atDO0b8LbuvifQxYeJyAJ10MngooOddDKtoimYqOfhXB9/13gYUshxCjKJgHpr6izxEnnuTJelREMUgegBz14y9fI34m/C9fKOU5ANJccx3omA54H3jHc8WdcbTx79xz81NSjpGr3pUZ98arFGIizVNBljajoQxxtCP3wE+Rj6NdUvKy93l+IPHzXCkrSoTCZ8XAhzUcLk4xJKmaevbrwxxo+Qb7T84Rs/kn/9aIF87oZA2Nl4oczNlAye+eVfdFLjwIfa8TrMnGuLJBTb0Ji/gwm7JgsKPbxvydbLu7ZgwQI1bH7PfEZadXeWeMKzgF4K7H56GzO0O8nJzdOGbaQIpX6YifrhsooqrTe2VNNkjCn91RIFLxgP/TPPPnNaq9r0tDR3Kf4YzxDDRh1SMkE3HzZvgwhDuqefXLyh7kobvjh6Y2nBfDZAy/BEgadEZIDCXDKfPROFQS/GPFmgl65ovGt+essrEleARC8FCG89bVOAFJWkBKVOmBShpisSBpVGZmnNWyQkVWRTpckYU2+3i3iGIQk50RCCjzxZUkLDraWlgcThTNS9xAt0asMPRz+6/bxiGmEY3ZxHvECfuWY/D4H7a/TG+15TOkcvUzJD202RyorK4N8hns8eEOo0oX4/T9o8e8zjCX9/9DL5FaYSpTd7fyDLGM870ahQSE9o7nU83zWu1+gletFUIIRLKlBSggLdfvgGG4Nq+tJ7U0We7TQZY0rnaBNmyMwMZDaJB7xYpoUdH5XQeryMjIyg3k6dqhMQxAqGhLo2E+r1Myy0ajS6OY94wXWi2+8jCtxfozee91o7zq9aoXrxDqKtMz3bSEtLC/4d4vns8YHXj7wblfCryzPPnmlNHg9o6EShkeedOkwMeSiJ0AtcI5EnU4cZCi2Bzb2O57uGEV30aMALpwDRVFi37sNg0hm+veA1qCxT9eZNFXm202SMaaKg3pAQULJLjeijtAzo5zySidHNefCRSwYmAw4Y/ZbkQ+MvjAofdz7yfg1yEgEFRgpSGDMKkbGk9YsG9PLsGS88mRERCuvcX96zplR4vPDCC9RLN4QaVDIgsY2UopYAZ70xpY8XDzsGhS4OyarHo1UjLzV65908L+l9zdDN9YJf2CsRUFfKvdZQ3/3zm1x6tTMF451pfb0zT1bDLdMnGC+R0GeyWl9rwdV53tFLYS6ZdfWm8ID+ZBfYY4UkN7RVwXiC16CWlpZoKtFI+wGfDZz1xpQPCX1MTWOMZBkWXjIafugHbUHyPmiAN8KLzcfN21k/0XjvNSFG9FuSDwYFzzCZRgUwKPzN0a0FybzkRESMXoy3eom19AtNBDzzFB6SGQWKB+TeLS0J1B+b+mQMq+lP3bd3jxoZzs52znpjykN++1duDxq2ZD3s6KERDi8aBpwXPlloPc7CRWrcTNg1GeCVmHutH9Mo7/Wkb10v3W6fKd/6eSDPCNfA34+SP3Oznmh6feY8nbh3XIPRzxxvn3ky72u0mDpr8/dnPRlgTNDL35/7lWy9GtJO4vWC0ctzwXkkq7AeDzCU139yjqRIpaZFNT0qCO1eOmumXHLxbF23BGgyxjRR/Uz1IXdKqtps3g3HeElUP1MaYvBiMdePbxLrrZjQjV6mUBLVz5QPaG33ui6aD+0qJ2ZXZ8Th3pmQIYaausBkGLG88R11ArxsniEMObo5F+q/6VcYK4nsGsP9Ik8ufSCT+YE3emmUk8zIBM8arfW9ube9JKprDIUt9BIBSmb0KV5gUG/41HXypS/cJnOuulJu//Ln5cZPf8omufehyRjTRPUzJeQElFaZQj8siepnakJNlFbRm6zQk9EH5ppDSVQ/Uz5iNDwyeqP9iFccy5eWO6u9Wa6FiUxSyfwwZxwo0snAOaCfOc9TvEKJzVIS83pi/OdcM6f6Q5+kVqYYUqIx6CU6kiy9GFIyjfHsYcj99Kalxv+Z5zq1C5irl+WmjA3p1o6tM3VKi/pxnxwIffFBTAbopA4HQ0DYy8+oJQquk/oyrp3lZKH32rnP9b3X3551k/xy1E1y2/U36bomLXcmOsNzbLOeaO6/7PM6cQ+5BvQb3ZwH6yTEaKxQiLn9jtvV8PPcJasggl7uS7L1gqabdN/1ZF4v12r0JvMdtySfs96YUkqnxExYLpklR0qthAbJkYp3wDkkC1MyJ9SaLO8ACIPiJeC54SlEy9UTZ8rnL/6kDO83yN3SMHAOTNF61o0FCgCEopko2HiTrycSWm83pF6evWTqBfQZvUzJJDv7gKxevUYHEPCyavUHOnlBZvUHUcg6x+UbZmB569btssXTnQZY57ihsmwLlW3qnPXG1KQYI90XnkayjBp1fXhnTHg0nEey4OXmetGbrL5+QA5i6ui4Zk1l+HTTS/x9JoAxpRCndcxOwYZ5MjCFj4bQS9czU5BLll7AkBu9TMkCg8eA/VOmTZVUZ26MJIZx6rRpOhkjyW/ITJkahaxz3ENHjqhhZDp46LCMPPcc6dO3X9BIMmed43plWWabV/ZM4Kw3pnxYjAHloU+Wt4Fe83IxT2ZpuaE6j+s1uw2EmCfzmi3VUIjho2bC7sn6O/Ce8awnWy/vtSm8JlMvEP0xepPlmQaGUTwkvXoHMhj16tVLDjrry5cvl5HnnKPbgOX3nb+HyjoywJx1tofKsj/HMbIjRo6UNevW6hCIvfsGhiYjApCamibbt2+XgoLAcG2A7PoNG+Wj9et1GfgNGc73TKDJGNOC/Hx3KZAvN17wgWcCDKlZNhQVVTc0Idlz6O/1Bc/AvFy87HXWp9Q9hnvEmP6FfNzomhNKSXGJuxTfe8399dZXxetenqlUVla35uXZi1eSCxpH8cxFTJyePf7+URXk4qTX3DcKEOEo87TmLSkudpdih+utTW+8CXiOGVJaUiwbN2zQbcxLnPUBgwbLho8+0m8PE8v9Bgw4TZZ1tofKsj/HMbJLXntNunXtLq2ysmT7li0qt3//fjlx4oS0bttOysvLdR3eefttYRzZzl266DLwGzKc75ngoTYZY5rqaVXbvXs3dyl2+KhQV4ph4eMe2rXCa0xbtmoVNwOAXkqteAmU1OsK8/bpEyhlxgOukWvmWvwS7Fc5/wzxvNfopRUn95rCg59uSzVFxTWfvXg2nGHIQbxEQu91hT0nTproLsUOXhp6ee6TpReDhl71UB29oe84eFtODx4cvzp506eaNhnx6C5VGyYEi+d4wUUXydEjR2T5smU6Z53tvfv2VcPIxHJ9Zd9643XHkHbT0C6eZgvn+cSg7tm9W84dNUplmbO+9K23NHsSckwss80reyaEfM/6MC8fdTIfYdj4yCcrKwyGjDpLXjQMDAY1WVBfyceFhk/JbGHIvaXOlIIDDb+SFfay1ARjRsMzbUXu/A147pOBPuvfvlujITzvfkYtEaCXAel51tGbzEIc7zb1tRReEtk+AUO637lOL3iBpY6XndE8MPILmLBrVWVlcBkYHaawIF/38WIGuvDKKk55O6VZirvi/N62rRSVlDiFEs82Zx/06LLzu8EsV1ZUBI/L/OSJk7JlS9M1qLbOtFdPNSpmvMFk1ZnyUmPAqb/RUTSSaNRMSdk0BkoW3GM8Yj7i3Gsb5m04eP74WyR7wAGeN/pcYtCTCd3Q0Jto7zAUTWHoFBqIACQK45EaT5DwKaFY9TJnznQkqtTrNOFavMw+/fvrMts0DOwY3VkXX6L7sM4xck6ckA6dOgU9VGTfeuMNNbgc1ytrvEyvLOFcvNDRY8cGz8vIsq2jc2wT8mXOep9+TddDPeuNKR8T6jTm3pTc1qUYNMCgUnpNZr0Kuiklm/B2skAXhRX00i3I0jBgSPnIkx951sWztJCTDIhM4JWaIdiIzCQD9OIZopdrpxCZLNBr+h8nQi+Nd0xoF+/OGFQTrgVa48KHa9cGw7VMLK9ft66GrAnjnjh2TNp16FBDlv3xYE0DIiNrDCn6vbK0JkbWe15eWX5D5q3XXw+GgdmuId8m6KFaY+oYFj7wPOwsJzPkRV0Onbr96moTCbrRiW5CXsky5KaOjDAzJddkGnJLNfztTQQmmRERdDaUXhMFod7ZnEMySKRePNIDBw/L7p073S0i+/ftk/KyMjVSeIHAu0ZjrtS09Bqyp3JzNV0q47eqjAP7ZGZl6eDg/G7YsW2b7k/Y1iuLHvSh14COUFkzB++2li1aSoZjoM3INMCxjjvrTc1DTalycJfDsvzdd2XChPHuWuy8+eabcuGFF7prdbNq1Wp5b8VKGTw0UJ9ZmJcrc665Spf9+OnzD8uh4lyZ0mu43DT1Cndr9GDg3n13uYwYNUbXDx884Hiwn9ZlPx5d/qK8t3+TlBUUyZ9u+a67tX5wze+v/EAHK4Y0qZBZswjZ+PPFR34q6ZktZe7YS2TSoHPdrdGzcuUqR++qqO91txZt5bsf/5y7NXq416mp6TJ+/Fh3S8Px0osvyeVXXO6uNRw/ve9+mThlui7X9ew9//Yr8vbyZbr8v98ODARQX7zPHiOFkI81HJt2b5e/PvGoLn/jps8HjUd9qK9eMmLFksiDZ37l6jUycHBk75oZaOHyGbNk5rQZulwf0Av1GcbM29iIUCvGCMNGuBaPEUP10Ycf6gDz1E0aj9RPFqO4b88eaZaaqrIjzz1XPURCuniiyBHaxXP0ytIS13iZRhbDarxMP1ngvDRxvmNISV2KbLhr2Ltntwx1v4HR8tSTT8snrrvWXYsd/l7TzjvPXTudM9Iz/e/hD+WhtDVq2EwYlQYIpiVpokAfeh8/vlIb2KDT6GeeSNCJ7hUb16o+GpiYa04k5l4z5xqZ0Iv+ZIbNz3b+vuRZ+d2Q7fq34Bnn78AzyDyRf4d3tq0J6l23bp3qM6P3JDKUj150onvJh8uD14lOlhOJ0fvS0ur7a645WRw8VLO/J70dUpulqBECDFzffv2kR/duktKsWa2y/IZM925d1eiyL/A7chnNm+t+YGQ5LscPleXYtcma8+rZo4cUFhUGZcNdQ7v2HTSU3RQ448O8eDx8XJYsWaKNfZKVsIDwKbr4oMWrf2AknDqeo9dLJ3XCqsnUzb02E3VihJPjyU0Pf09mPPw1+f1jD+s6HzLvxMfMzBP5YZv2s9t04j5zjX7nYc6Fe5Fs0M153e94tswTWYD0strxLNHFwO9cdyL/Bl72bdsV/Dvw3sX7uQvH8YNH9DrvufseWfjIwqTcZzzSD9aslQrHg8TzA7y60pISqaisCjbowavDKyQBQ12y/IbniCz7mDAs3iZyyLMfIMvxQmU5ViSyTIcPHpRsx0Cmp6cFZWu7hkOHjzSJkO8ZaUzN6CKEWxlyiQYAi58JjJ+YyK4v6EMvI4qgl4lWq9rgw5kSCTrR3blXN21QQmOLBQ8uSLhec6+Zc5/1Xj8bGAg53rr3SK683/GE7HM/DHw0mRY8sEALLXgHZpkPa6LYkH5cJwpLFFbQF3oeZmi4RLbiDMU8ezR64Vmf//P5WoCkkVEiMXpnnD9DC1H3z79f9VM3nkjMM997cH/Vd8+99yRl0Aijt2P3LtqgisH9aaUcz37AfpjQ7uQpU4INepYvWx5sQESKPtOH07TajUSW30aNHq3b2Id9TatdtiHPfuxvGhBxXCNr+pFGIrvembp266ayQ4YOk6OHD2tL47quoSn0Q43ZmFIaM96ImZJVEg7Hsu/8VXLvfFbrLXnAvVMiGx+gD71Hf/WK6kEfRsXMEwk60U0Cdj4m3mtOJOZeM+cazZSMaza6evQIjHG6eXPguUP3kjeS0wWCvzOTXvOwYVqaNudBYYLCVDK46+Yv6Yg6jGbDuaDbGLREGpfLx58f1Dt+3HjVh24zJQr0ohPd15x3ieqiQZ0ZpSWRGL3U1XK9Rmci9WJI9+7dGwzXEgKl3rGsrEQGDq4eW5QUgqnNmqmnWZcs/T1NPSkywD5kPWvTurX+bmA/9uc4XlnNYEQY2U1dCH6yzLVxDv1b3eOyrXnLltoX1tu/Ndw15OcXyOYtW3Q9HlAADrVdTPWl3saUE1m1apX2V5o+4/waE9tWrVyV1O4eljOfT7YcJV/fOkgbfgDeABOGE29405ZNOiW67+wXysfqZAoLRAHQyTlwLpyD2ZYsaHRmRrNJJr06dG2QUXS8ellOJkZvskYvMh6pt18mYVEa6owZO049QEKqFOTw5vj+emXfW75cDZtXlsl4jl5Z45F2drzHo4cO1ZBlf3Sa0Cz7aN9QT5/VTRs3nibLdjzSPn36+PZv9fZZDXcNRrZvv/5x8VBXrlipdbShtmv6jBmyanWguiJa6m1M+QNPnX6etPWUXgxsm3reecESusUSD7524+e0pWosLSjjAefAZIypxZIojCHFQ6ORDiFQDJ4Ji+KxmTAufUYJi4bKFhYWysRJk2rIGkPKNmRpRbvk1VeCrXY5BgZ1965dNWRNGJfjcnwji170l5SUnCbL9j6cl+NxemXNNYBX1u8avNcba8gXQznSOcfeffq6W7ykyNRp0yW/sMBdj5x6G1NaadVFJDKJgMYhbX91tXYX4caZCRcejzpRoA+9ne+8RL1ydKLP6E8k6ET3n1/9t16n95oTibnXzLlW7/Um8l5bavL5n35LJn3rehl/65XuluTwz9efD+pN9LPmBb3oRDfLycTo/d4v73O3JI7WWVk1+nsGqApsd7w4A2n8qjyp/ICuJhnNMyTDMZQG7z7eZby+VplZNfp7Qop7TK8sXq7mE/SQ5/xOwvsix3Ab2Ic+rPRl9V6DX//WcLIBqqRtu3Y1ziEW8vLzfZ1AL4ySE+03u/7WLqIRHSKRiT+pnZw/6oDW2u+SFGK3f+V2mXNNIH1fIhuEoA+9pT0CeslBS2Yl5pxDIkEnuo/uP6TXSJYh0yWHRjGJwtxr5nSHYeJe0/iGZUtyyC0rlLXT0mX7OWn6N+fvzwDsTJMmJK7ONL+iOKh36dKlQX2aC9eZJ6pAhV50ottk85p10ayg/kQadqP3RG6O6kWf0R3vFsyEzrs53iJhTqaAhzYzmFieEKxpqGO8TrYRHm3fvoN6WXh3rHtDu15ZE9olU1JdsvyGDOfAuXBOhHbxSAcMHKjnwfkga87LeJ01r+GiKGRnqqE11xtL31MlAtuFQY+22qLexrSyskJyTytBVJPrPGhZTkmnoTEpzK6Zc422vCQXbzJAJ97pvFvm6TxZYyi26dhO56SLIwzJNSerLss0eJo7N5DUm5adluTDs8bfnoYx/D0S3brV0LlTZ9WLPp45dCeDth3aB/Q6zxu6mZIRgk93PvC8X+gz95wwZLwxBvXokcNqbIAQaCleXE6OtGvfXsOi6Mbw7dyxXesDGdHFyKalpcvO7dv1d+S8siTCR8bIkr2I7afJOvtzHCMbMHyH5djRo2pIkeM8OB/Oi8ZNrHtlab1rroHfkPFeA6isIxd6vcdOnJCKstLYDKkDDQUx3rWx/qP1UT9DMWVAwg3OL2Cc0ZrhBTxSDGm4l8lmQKobmwGp4WiKGZDuevhn8vaWNVJVWCorF8TmHUWTiejZla/Lff/6k+r9+x3zYzKg0er96SN/kJRWGXLvp74oV08M/27URbQZkCbePkf13jTmYq3Hry/RZEBatfoDqXCMp6mnxEOjDyZVaaTtM1mL8Bwxhjg7JEfAQCGLZ0l4lgxF551/vh4Tj5SsRfQFrUuW41Kv6pVVz9ExepKSEqxrJRSLoQo9L+NlQn1kOS8S79Oit1u3ro6hC7Tgr43aMiARMaE+2oSxvXAufsP/1ZUB6YxMJxgvojWm8SRaYxovojWm8cIa09OJxpjGk2iMWjxpKL3RGtN4EakxxZCaZPXGqGVlZgYT0RvDiqEzxhZDZdL2sd14mRgq6kXZ5jVqtcnCacdtliolxUXuqDTOtTjvL11ZCKESrvWeF8ZSW+26XqYx4hitSGVDr7fCMfQ9enRXmXAkO51gkzSm2Xt2yZixAQMXbyj9mYfbz5g2q6qUEecEwhzxZP/efXLV1R931043pieOHJKhw4bqcjzZuHGj3HTjZ9y1041pIu91bs5Juch9aSIxpngjR3KOy3mDxya0W0JdxpRGXnDD5MsSGkK3xtQaU/pV0h0E4wYYErqslJSWyZRpU3UbkOSAvpnnjB4dlKUu07FYciovXxMfGBjYm2iiMVjw/nvvOQarlTRLTZPhI0a4WwPGLCWlmZx/4QXulkBXm+LCQhk0dKgaN8DIMlIM4WVj+OG9ZcultLRYxowbHzwvZNd+sFrSM1o4stXXQKKHivIyGTVmTI3r3b1rp6Q53wbv9ZLoYcL4ce6aP9aY+uBnTL/45S/pcrxZ9s47tRrTkcOH1fijxgseOq8hCTWmpYV5cu111+lyPOElGucxln7GNFH3evky57kaH3iuIjGmpBIkAxJ9Temaog0/Zs/SBlZ333O3Zh2i/uqOGPt31mVMab0Mr864V+cMeE19HWN00nGfa+EcOJdYsMbUGlOgGwjdQTBChw4elG7du+vILMZbNI2CSIaAd0e4FFnCtYRkmbdv315lTWMjwOskjIvB8soyx5hhHDmuVzYQgj0sY8dPUA/VyJoGRPv27lV5DKoJ15LEwZwXGFlGojHesZ8s12CW16xeHZSNxJCCNaY++BnTGZfNlIf/sVBKTxXKkO5+/YVEjY8pOcHvf/tbd6km1PkVV5TKledfLC1T0uo0pv964z9SUFAgI7v00+2hUAr0lgSfevJJyXYe2FCO5J+UwpRy6d2rt0wdPLpOY0qL2bfeXSqtqtKkS1Z73R7K177xDXcpYCiZ/NhTcFTbWs8cNUUuveTiwEYHP2Nq7jW1C30zO+v2UKK91xdMnyFdMlrHZExpQUmDMsak5YXGS2wIY0rrWTPItjkPa0yjxxrT8GBQCwoK1Ws0XhtGtLKySjp17qRGBky4tNL5rJtwLUZp65bNUpCf7xikrkFZDNjxY8e0EZBXFiOZmZmpLWi9sseOHpMqx9M1Hq2RpVuOCdcCHmZZaWkNWXNe4JXFuJNIn7y8obIVlZWa5tBcb0A2I/jNqAtrTH3wM6bSr518KfdJGfr4QSlf6z+qwGOP/7OGURvUr7+7VJPmlw2TjRdmyjd3DJXrLri8TmN65V/v1O4gPR7y7zj8tW98vYZR+8z1Nzhey/vuWjUl3VvJ8Y/3ktHt+slvxtxSpzF9tWy7/DFllfT63SZpfrC6P5eX7bude+OCQfv9b3/nrtUk5daxkp1eIA92u15urCPMa+71oC2VUvW3Nbo9lEjvddqYHrLlhu7ypaoJMrfvjKiM6VXf/YIcKsmVS7uOkp/cda82gMNw0aKS1sOm9V2sLTnrMqamL+f/ffkH2lqcHL202EavOY94tKK2xtQaU8PmzVsk3zGGppEOYEy9dZ9gvEwMnFcWQ4SBbOVMobKkE5xxQSCMi4HcuWOHOgumoRGo53j4sIZxTaMkZPEyMdyRylJP6g1FEzIuKSqSzl2rjTznRbIIwtah10u9bqS2KNnGtGGyKlgs9eC5nz4kK/73CTWkQMtRDJfxSFmO1ZBGwuq/vaATOtGNTs7Fex6xGlKLxYAh7du/v3p0GCQMkwnt4s0RgsWAGeOIl+mVNaHdIcOGSWFhwWmyJm0fstu2bFGPlO38jpwaR/p7zpypOo2sCddGI+tNJ6iGNCSdoBpSxyHAI/W73qnTp2uDrMZIkzWmowcOV6+04ihdc2KjdMthPRahx0gYkdJFei4L38c2UtIKy6TPinzptrvc3VI73Ytb6HmyX6ykvJ8tw9cTIvIP23rhXo977pTuEysVuUV6DVyLxWKpHWNI8c7w/DAw1GXSotd4cnh/hGuNcQyVpTUssmw3I7V4ZfmN463/6EMd0cXIGiOpxtENwRpZjsvx0RONrDkv0gbiZRpZ5uzLMUaNCniu4a6X+tjGaFCbrDF97fFnNbxblR17iqmqXSf1WE/83yPulvC87ZSQmm08JlXrD7tb6k9qbpnqPfHuFtnj1ifUxsp/vaLy7BcrlRuPSOVHh+TlF19yt4SHe40s+8SKuddci8ViqR0G0d6/b5+7JtrwiH6khEvx2ABvzoz+4pWlgU+oLPM0x/OkD6mRZVulI0OrXcKrBn5HDkOGDkCW43FczsUQrWx68+ZSVlISlGXOvt7zgnDX26N77d1iGoIma0w3btjoLsUP6jWXvr1U0/CFS4NGto94p0gLdCA+oHprS/3HYN/xJC8vzzHiu7UBDbrDwb1GNp5wLZs2btK0c/G+nxbLmQLVBWQ/IiQaDHVOqx53lAaGxsuk3pOQL7ImtBtO1niCyJoRXbzpBNluvEzjdbK/Cddy3PrI0v4Gj5TE+4R86ebD/n7nFe56I+lj2hDYOtMQ+MibxiTJJDcnRw0pXT2SDflEk329YAoHDaHbYmkqYFDHjxvreGhpwVAnIVASHJDw3nRPAUK+NOihhaxXluTuobJjx4+XMscwkQXIjEfKPujJcCZ+B+TZj/3RyfHAyKIPIwi1ydLymFa7GFLgtxIMY7du0qFDh+B5cSyO6Xe9dONrjIYUrDENYcb5M5I6DqWBUREYA7MhuOfeexI+oLIf4yeMl7vvDe8RWyyWaoYOHqyNdIBQJy15MTB0IzEhUPVIu3bV5DNGluQNXRwv1SvLhKfX3/EOMXBGljnrJNLfsX17UJb92B+dJjRrZNGHFwnhZPm9o+NlemXNNRQ4hvP4ieM1ZJHznhe/dXeMbmOmyRrT7/3g++5S/KB7Bwmra8svOsMp+V37iU+4a/GB440ePbrOvKb3fv977lJ84FpvnjtPveHavEPudbwT9XMtffv2tV6pxVILRMkMJuRLP04TFqXfqQmBmtAu3hweKiFfZM2ILl5ZE4LFIzWhVZIhmHAtx2jueLeM1GJk2d+EcTmuV5ZwLFmY/GTZzgg2JN73ynqvgUZHRpbfkas+r+WnhXa996Wx0GSNKX8AY/xihWOE9pMMR+fOneVr3/xG3AwbejleK6ckWBefuO46lY8HGPBf/OqX0reff8ILL9xrZONRiDD3mmuxWCynQwL2VavXyAdr1srho0d1zjrtKjCoE8aP1XpHExYlBFpaWirpaWnBcC3Q5aV5RroUFxcHZc2cBj1mGWjxi+eLMTZwLMLF6PTuj+4e3btqtiID2ZfIskTSexPaRRY9VYxH2j4wmhUgCzSY8h6XdRpSmd8BHegyhnTV6tWy+oM1wfvCMv2TGwNNxpgWFRZox3WmtDQGpw1kGmrt/jFigWOEM6QtWjQP6q2qrNBtPCwjHAMTD9BrHr5Qck6eCOqm7xcPXCQGPxJ69e6lRtKXqsqgXnOvkWWfWDH32rxElvDwNzd/B/PsJQvz7JHMPJk0lN7iosLgvW7XrvrDn2zIdJSanq6NbnhPeO+Ys56anqG5emHIoEGaghSMR+rtw0lol3tJAgxayBIuNaFdPEevLL9xPOP5GlkdN3ToEB3yjGWvbI8ePdRbJPzKVFlerrKk+cPDBcK17Tt0kDFjx6nXaWRZHj12bLB/q5Fl3XizRjbgkfZQTxTDyfisU6ZODd4Xlul7+sYbb+lxGpLUHzq4y2GhqTIXFC92OzerXz//VHx+UFLLysqU666dI6NHneuUwsqkd58++tumTRudj05z6ekYpNDpkksvUU/S8N7y93zlRowcIee7GUDILWmG96GVKU3Gb7j+k6p3zOhRcvDgIS2xMbL8ju07fI83eeqUGsa2tnP8xCcDHtr+fftrhDG45gH9+8oVl1+munNyc6R378A1h7sOJnM84GE8lXvKV86cI2kOu3evroug9EsBwu9e13a8+txr73PFvW7WzCnxNoLGBdu3bZfBnlJ3Q8Fzc+st84LPXrLwPntTp052tyaehtN7QDp36ihXX/UxvdfJegbRC+Z7w3qrzCwtXD/0xz/KQed+EOLkPdmwfoNjPCbL8WPHJSMtXQ0f52nqFwmLUkClrnLb5s1SUlLsGJnzNFTbxzGeW5xt9C/t43x3Ob5Xtp/zO8cD5Dk+7zrG0dCpY0fNjES9pZFt3bq1DqLNSDHebwjnteL997QB0bjx4/WYFFC2OgUBGlpiMNFPAYBrpgsP/d1NaNnIts7MDP4tPnKun9bG7yxdKh+u+1DWOV7ptq3b9F2l3hWjSm8Mr52it8CIEfGrnuJczbfQjyaTTvDosaNy+WWX6XpdaZ1iITTR/f792XKtp3HO6tVrkpbonjEJTX5XwhuUyuINTc1DE90fO34sKfc62kT3yaKxDMH28MMPy+c+V//xMutL6LOXLBpKL884mYEucAt5yQK9YL433nf8n489FqznxMvEsF7jfoeWv/uO8z2eoN7alm2kNE1RQwN4jhhNwrMmFZ/xSBkiDe8PoxWUPXJEHZt4FiAC57VNG0GZdIIYZzxO8KYepDCA0Q2VpRETRhuvmOMR1uVevPDCC2rYKZjj0CDLNeKl0p2GVs8Gm07QYrFYzkJSPJ/jDh06qoEwhiIzK9P9xSGlmRqYQ44hNMaX0KoxpKTnMw2NMDYmtGv6oSJnDCmNfAgrExWIB9XnVd1n1RhSPFJvGJffAv1Ia8piSCkIMFIOYW9C2xhSIIE+9wNjzDbuj6Ft27aqv6Fossb0Ty89Lq3uv1SGXTFFk6r7TXhdXvxkmEbcdrEe63/uC+R8rYuun5gg7e443/dYTKEjppDo3k+u99SRepyJP7nRlaydzz78Az1P9vM7HpMXzsNPhmnwN69Q3TrmYR2Ye80+fsdiivReD7tmuh6La7FYLPUhRbZu2x70MDFGeGlHDgUMKWBs2rVvL6dycrRRj/EE8f4Y/UWNrmNIgd8OOevxAI/UnBfztLR02bl9ezC0y8Qy28hs5JU1mZKMR83Urn2HQCg5AmiPQX/ahqJJe6aM3CIZgQYysZCSkRY4VoSUt8+Q0h4t3bXY4DhpHbPctdrJyGwZ1XnWSrsWUV2D6nX2iQcci2uxWCzV1FnfFqRS6yjx4gAvk7rGFq1aqncHhHZzTp6UU3l5QitZ1gFZhkYjtMoy8BsyNPCpr4eKR8j+6enVx+X8KiorNORMfl0Dy2wjpG+uQefOeZlcvsB55Z7M0ZCuOf/aoP1Hsuq7/WiyxrRr+046JFhlYam7pf6UH83TYzGuaCR0S2srXQ5G/uiHI6W8UnoeTZW2uZEdK7MsVc+T/WKl2f486XOyhbRq5QkfhYF7PWxXmu4TK5Wl5XoNXIslNviA/fnVf+u0/0R8PItIMXpXbP/I3ZIc/vn68w2i99mVr6ve19cEWqomgqysVnUaDYwOeWkxGrR0pa2FCdfSCMeES01ol20m5OtN+2f6obLNK1ufkK8J7bI/ifSpf+a8TGjXe14mtMs2E/LlHExo1yu7b89eGTJkkAwbNlQ2rg8Y6NqgsWhD0mSN6dA2PXRszcqtx9wt9adidbYea9rQ6oY44Th69KhcmTlS0p7f5m6pPxlHi6Vq8SYZdayN8wD6j0/qZWR5Rz1P9ouVile3y+D1kSXM514PevuU7hMrJMvnGrgWS2wwdupdHz4qt+c/Ky+tflsbcTHGK+khFy1cpPNEYfT+8u9/1JbY6EZnovX+5qWA3kVrXgnqRR8TOaYTxS/XPaN6//jMY2o80Ef6T643XnqHDR0qG9avd9dOB0OLt2larGJQS0tLavT3pKcBY5nS2MiEdpmTxL65Yyi9sqPGjNFuM9TBemW3bNmqLVcjgXuxefNm1QuEZjMzs6Rt29Y1+sISxiWdIC1vTWiX39IcD7ltm9Yakjayeg3Ovt27ddV18HrifuAN00+2IWlSxpQHd/5983X5Jz/6sc7jyY03fFr++/LLpyW654ExCdmXOiWmp596yv0lPnA8mnVzbaEfIm/y+/t+/BOdxwty4/590ULVYe6rgY8U2zDy3Ot4J9nnWl5+6fR7bak/ix5ZJHNvnqvPS/b+5N1TjAnvx2uvveY8xyvcrYmH60Tv4sWL9RlK1nPEdc6/f75eN+9FPPUG+mm+K5VVNb0sWrtqv88h1QaDYcjGjKvuw4mxxcukD6m3DyeGhq4ynbt1k2OOB+mV7TdggHPsQD9UwEts36G99mmty0M1Hqm3zyrHPnHihLRu204Yq9Qcl3Pp1LmTdocx54Us4WVk2cecl0m8z7HRAcYTLy46vf/xxo0bpVvXLsEuOw1FkzKmvKh85KlATxSrV6/Wl8Ob5g4PAL2JfFnJUsJHITSjE9e8cOFCdy0xPLP4mdMeRHOvCwvq9pjrC4YaT6pNa5vAIR5MmjxJ7r7nbk1LSa5l1pPB7NmzNZ81XVrm3jI3aXrp58j1op8pWfmle/bqqXpJw4nOeOulu1j7du3dtQDtnHW6iRgwpDQ8wpsz4VITrsW7xPsjXPr2m28FQ7ts7+QYM0Zq8cpWpx5cFhzRhe21hXyNIUUPsiaUbEK7bEMnujkHzgVZc16kDTShXWTNNRhDineKbKhB9cvYdtONn9FnoaFpUsaUl5QHlxJOohjvPMih/dz42LMtkf3fWrRooccPzc/LR2LevHnuWmK4Zs41p+XIZZ2PRSLvdWfn2Oho6BJlU2X4sOHyy1E3yYKsq+Xy8efL3Hlz9f3AsPEcJTLvsdF7181f0r8huo1BTaTeb14e0Dt37CVBQ4ZurjeR7+ddo69RvV+65kbVY+4zy4nU6wf9cfFUvRDarfRJGUDmLAykAeNbTCL75s3dLQGQKXUK9JmZNdtQ7HcciFCDinH7yDF6oaCf8/DCcUOzdzFKTWqzZhqKNqFdYF9NexByDHQZgxoKjZMiDUknmiZlTHlpmMCb6SdefO0bX5dLL7vstFFjeFEfeDBQL4LnOGlyfLOzcLyR55wT1OGFUVX4WEG8E+zz0SMb0fyfzdePgxfzsQDudbw/kFwLgwaE3mtL5FAI+fzFn9SpV4fq+qVkYPROGnSuuyU5fHrmxxtE79UTZ6remWMDyRGSjmtf1COdPj3YSMeEa/EMjXdHuJTwqnqkM2f6yhLyNbIk5SERPbKmHyrbjZfp9VCNR4osxw+VNR4qutCJbq8sXfGKCgvlnNGjg6HoSK7B66F6wavNzrbGNCZIlI4Riod7zzE41te+8Q13S3joKIxxiUeCfUAvx/Om4gvHrZ+9LW6GHON48aWXBFP71Qb3Gtl4GFRzr7kWi8XiT0qzmt4ZYc/XX39DQ7tACJRuJGs/WK1GCKNiQr67duwIGCG3H6mfrAmt7tyxXX8b5qbdI+R7/NgxPQa/c0xkAwb1gGzdXt2/1YRxQ2XRgS6OGypbmF+g+YKRNee12TGwNECq6xrQ7WeyQhzZBqPJGlP4xxOPBzNjxALH4FiRgnH5bpyGgENvpCOoRHuetYEB/+73I78GZOMRDTDXEI+/29kO9c3TfnabzHj4a9p1I5kYvXc9/DN3S3K46rtfUL0/ff5hd0tyuOnh76ner/62YZKNYGhOnjypHhvgzTEiS0ZGC010YCCPL11EMFJ1ydKfMz09Q0ecMbLMaUmry86xDFs3b5YdO3dLfl6eHg+QRQ/6vLLoQBc6jaxJDpNfkB+UNedFK9+igoLq49ZyDUU+DZAaizVt0sbUYjmbOZV3SjakH5f3O56QIznHtXUp06QJk2T40OHasheDmwiM3r3Oh8+rd9ZFs3RuWqDHm0Mluar3UHGu6qSRHNeKzjlXz0lYt5w9EtB7+OSxGnrRie7Q1vCJoHuPnhoCJduYCYuSJ9yEcb39SPHuapNlIrSLp2tk2d+Ea03qQba9/tprzn6dZOasmTJ02DBZ4RyT4xpZ43Uia0K76EInupE94mZc8sp6z4vByBk7ta5ryMxs5d6NxkeTN6YMXM34mH5TqPfjJ8NUn4HGObbfsZiuDfE0azvH+uB3HDN54Tz8ZJhCzzESajteIu+1JTJobc5H3lv1kYzuIkYv1QB5jueCfuNlJBpjPM01J6rwEEpQb5vWget1CjaJhtGcSBLfOitLR3zBWwVCoGQ0KnG8NowQEC7t0KGDJngIlTX9PRmsG5Clv2frrEzdh3Ug5MsxaXU/xh0Mg1FTWrRsqefAuRhZ9CLLeZjQLjrp31pUUChj3QEtgOXSkmJi2TXOq6SsTPu9GlmO7Xe9jRU7akwIdtQYO2pMUxk1BsNx27O/kNROWdralEYy8SCS0VsI86J3svSQX37uO+7W2IhEL2Hek/1ayKVdR8l3Px6fEXV4xusaNYYwL97pmPz28odv/MjdGhvoBfO98UJqPrIBeaGPe1pqqtYv0i/TjL5iGurQhxNvEiNIeDTHkcG4eWWN5wheWTxAZMzcK5ubm6tDL156+WU6RCV9a3v37q0JJEweXSNrzgPjqOfleKQDhwwJdoMB42Uy9FoNWWdfkkqEynqvl5SBJLr34v1me0n2qDFN1pg269JaFq5+Sco3H5Zz25/e9wjwpLylmdAE9IadKTlS0qWFXNZ9jHROy6rTmC5YsVgqmlXJlEr/Bjn8sb1/8KeefFIfglD2FhyVk13TpE/Hbs7HYUydxnR75QlZtm+DZO7Mkz6Z/g2WvI2oMJRMfhCmK2/eTOZ0nSCXXnKxuzVwb0ONqbnXlScKZGSZf+aiSO/15uLDUtW3rUzrPVIGNetgjWkt2CHYkgPPeGMYgs3LKuc7w4DgXl5fskSGDB2q7xme/0cffqhjAOPlGY8Uo0QDopatWkk3xyv1ypIgIXQINmSpIyWkilEMJ0sfVPr3N3e8Y4w8shhhDF/o0G4MVk7u3dKSkuB5GVnAkJpvRaSynNd/X3pJPnn99brdgGxFWWkwK5QXa0x98DOmH+Xtly/lPilDHz8o5Wv9m0YTVvQaNUYt8aP5ZcNk44WZ8s0dQ+W6Cy6v05he+dc7NVl7j4cYS/B06GLjNWqMGkOGo1BKureS4x/vJaPb9ZPfjLmlTmO6aM9S+WPKKun1u03S/KB/MoXtu3e5SwGD9vvf/s5dq0nKrWMlO71AHux2vdx442fcrYF7G2pMzb0mpy6pAP2I9F6njekhW27oLl+qmiBz+86wxrQWrDFNDjzjjc6Yrlqlg3uHgndKlzKgfjE1tZmm7zOGDONCwR3jRL2nAc+RT33/gQODhgxZPFEMp1eWhAoYWOOhArK0sKVhkDF6GDgGDC/Mz9euLhhYMB5p85Ytg941sniZNCLyynINhIfNAOeA7Pp16zS0azxf9HOeDHTuhf29Y5h6seOZWiwWy1nO0CFDfYdHHD1mjLyzdKl84BQ8SNc3dNhwLQhgwDA4u3ft0vYL3nSCJgQ7euxYNZ7IGUOKRxoqy7pp/OOVZX/CsniTGLxdO2i1m1EjnSDnQfiYvqEmnaAxpHiZobLIePuhGlnkkGf5gw8+kJMnTpxmSCE0IURD0mQ9097DBsm0j8+StIIyST3ln7A9Um+pom26lLdKl//+Y7HkZB+p0zP9w3OL5O233g7rHUbqmVa2SJWy9s3liksulVsv/WSdnummw3vkB7+4T9JPlkizYv+HKFLPtLRzC+kzsJ/85PPfkvPOq+6Izr0N9Uy515++41bZu2N32CT70d7rH/2/e2V4177WM62FcJ4pLWVp+EKDH/oe0ugnUvBa7rv/PnfNn3AeotFLRrAlr78uZLKJFD6S3/nOt901f8Lp5dkA9B44eFATq0cKeq+55hodeSQcPON+nqnRCyQtiDbTzkzHSNSlF/w8UwjnncLaNWvl6NEj6rWVlZVpvWZFRaV06NBe0tPTVSYnJ0e9vmZpacF+7MiePHFSl8nBa2QZwKOyvFy9yXbt2um22mSbpTST1LTUoGxBQaEUOB5qlfOvq+NlGg4fOqSNkDKzsoItcYOyVZXStVs33QahsvztWjrnM8rjyXqpzSsFG+b1wRjTjLR0TTJN9hxtnu5joLxE+oH3cve99+gLwAttjOnkyZNUH1mBnn3muToT3UdqTL3c+a1vSf9+fYNp4MyHhRy5PEgjzhkpN3/mJlc6PJEaU8PwEcPl9ttvV53oNsbU3OvLLr9c/vqXvybkXv90/n3Su1cvTYtH/mNrTGsSzpjyXBqDQ+GupDTyYQjXrV0jX/7yl9w1f2ozambbgwselAsumqkf8UjAg5g+vfbsQZHopVDZsmVmVHrxnsIZLKjNmHqv9+prr3U8tEBdXl2QQ/aAU3CpSy/UJvP+ipVy3owZ7prFQEMowr61jV9qw7y1QMJ3WjBGMlxZfWHUGEai8ELT/0T1mzNQKmMEldBRNxgpJ3RbvEEvhQUv6NR7ncBE9/9l1Jhv21FjYuXQ4SPSuWu3Oifk4ske54Pmp8dvoj9qvGgovVs2b/HV4TchGw9GDBumzoylGjWkTiGpNkPaEDQpY2q8p1atEtdxF0ONjlDYFlpiTgShOXK55kSPwkGYMPSaGRmD601kovtOnTtrWka/+22xWAL9WIkK0iiIusuzHQoW6pF2b1yGFJqUMSUhO1Mi+cIXvigLFixw1wJgVBb9fZG7lhioO1jy+une7+JnFweT+yeK115/7bSRadBJkv1EctnllyX873m28Nyzz8jKFSvCTvyeCF5+4QVffd6Juq1401B6yQbkp8s7IRNvpkyZLKdycmSJc+xw3d3OVChEvPvOO/Lqyy9rwaKxeaSGJtsAidh1XfVy0dbjUd8YSdKGFSver7UuMto6U+QnTZpcZwMk+pQxgHltRFNnSsL5r3/zGxElbajrGqK918hzfbYBUngirTPdsy/gsdACMxz0HYTDB7PjVmfab+AgycnJ1fEva+OV/74sHdq3k0/fULOPYCiR1pkeOXo8Kr2DBg6MS53psBEjZffuPTW6kfiBF9mvX1/NKBRrnWkojJyyddt25zx2SY+ePaV58+baoKewIF+HQGPdNAqi6ohvBp9404BIGyWVlOjvRtY0NCK5flXl6bIMjdYqM9AoKCjrbGMAc9PYSGWLix19zYKynFd+fn5geDjn72oaG+l5kf/XOS+vLNcAGRnNpW27trpMYodOnTrL0GFDozaits40CjAc8RhFhWN4jVBdYCgxBvEAvV7DWxsYq2jOszYw4NEkzUeWfWLF3Guv4bXEhy9//nNy349+KK85RsRMrF91eaBglCjQ+xVn8upd+JeHVa8x4ongvh//KKze555JTI5e+N/581WHVy9TovUCYV8KnP3699cRn3iPyJnbtm1b6dQhkGuXbUzjJkyQNo585y6dtRET2xhisl3bdtKze4+gLL916dpFG0AOGjwoKMvvHJNjo8PIcjyOO84pCLMtKNuxo6ZWNLLMuxhZ51yM7IUzZ0qb1lnS0TGSXln0YNzJMGdkz7/oIseQDmm03qgX28/UYjlDoNUqXV/yTp3SUCBz46UkEvTSjaH/gP7BrFt4MIkmy/Fq0Eu/RqN38NAh7q+Jg+uFHj17BPWSyD2ZDBk0SPtlgukb6u3DafqGjhk3Ltjf08jSDqKl4w2SWB5Z+rPipbZt30HT9rEv201/T28/VI5D/lyOa/qhemVNP1Qji26vLBOyAwYN1sxN3vPq0KGj9BswoMY1VDi6/LIbNUaavDEdMXKEejt+U2jfJD8ZJo4RLRzb71hMjP7upbZzrA9+xzGTF87DT4Yp9BwjobbjJfJeWyKHD9BGt7M/c9LAJQM+fo//ozpa86b7QU006F29erW7JvLowsS2bfCy8G+PuEuOMVi61F1KDnio3VzDRUIGsgeRrYhEB2QPwniZFIFkLCIpgleWiZFaPnJkCeUOcDMjmWQNHMOk8kOW/djf5PPluOFk1aC+/rrqRLdX9sSxY0FZ73m1dzxgEu97ryFgSBu/R2po8saUcTYJQfpNoSOZ+MkwRTOup4Fj+x2LKXR80trOsT74HcdMXjgPPxmmSMdQ9VLb8RJ5ry11s8XxMhj5A/ig3XLrrRoGxNj4QVcoM1EPV18OZGcH9ZIY4Itf/rJcdsXlYfUy2grdvdAbywgv6KV+D7p376bXe821c7Qw4Qd6zfXGope6Qcb/BDx/qmi+5FxzuOul3tXoZTmeYFDPPScw8ouXqpQUraf0kurWUYaCXFFIV0O2cYxIiFSW+9PWMap5+YF6UYM5r9DEIxTcm5IhBRvmtVjOAE45HyPCdECjmS9/8Yu1hscwaPSdXvBAzZbr0ZLDR9LVe+XHPia3zZsnfFpDC1cGdJIMBL0Yg/qC3uZuF7lPfup6vd7cnFytZ/Nj8eLFalCZYhkujQG6s9oEGsd8+sYb5dt33aXH/lSYxlX010Yn1529P/79qY2HSriUgoTxSPHuTLhUQ6iOZ+lN28dE/typ550XlDUhWNaNJ6mRDkdWUwQ6niTH4XgcN5yseqSOLhPyZTsj2LRzvE+vrPe8MKpEUdje1DxSQ5M1pn966XFpdf+lMuyKKdpy1G+iLsOLnwzTiNsu1mP9z333upK10/UTE6TdHef7HospdMQUWsL6yfWeOlKPM/EnN7qStfPZh3+g58l+fsdj8sJ5+MkwDf7mFarbL/9nKOZes4/fsZgivdfDrpmux+JaLPGjmWPBTGvInTt3ym9+9zttWRkOunrR9WlxjA1m0h2v1OjdsHGD6u3WrXvY5wqd99xzT1z06piYDm+9+aZ8/4c/1LRz4fSic8GDC3Si73Z9Ib1dfn7AGK9etVLu/d735PobbpCXX3xJt4VCv/FFjy7SLmD0qU4ExqCSiB5jRVjVhEvXfrBa0tLTNVoBgdDqYTl66LAaMUCW1rV0vWG4M9ZNaJZjMrIMoV3gOByP43L8UFkT2jWyzVu0cHQdUkPqld25fbukplWfl2mZHRgBpukZUmjSnikjt0hGqrtWf1Iy0gLHipDy9hlS2qOluxYbHCetY5a7VjsZmS2jOs9aadciqmtQvc4+8YBjcS3J5I033tKuFw3Nc8//RzbHKTuOl/HjJwTDdW+/9ZY8/s9/yj8ee0w/Xn6YJCTMY/EQBw8eHNS70vHC0Pu3v/41rF6TeIUpFqOGXhO2XLdunWYu+91vflPr9cZDb7du3TTVJhw8eEge+dvfTis8e0GX95oTBX/DkSNGyP59gYxPeI67nUJVRkYLYaQWE4bGc1Sc0pdZ5jcSIRDdYIxSI8ux6AKDoTWFFH7jeByX4xuQZUQZDC3epW5z5lQBlJSWaRcXw4dr1+qwa3SX8cqSiKGpNDbyo8ka067tO+mQYJWFkeclDUf50Tw9Vu9evd0ttdMtra10OVhn99w6SSmvlJ5HU6VtbmTHyixL1fNkv1hptj9P+pxsIa1aZbpbwsO9HrYrTfeJlcrScr0GriVW/vOf/8hDDz0sH3zgPyycF+rVElHizc4+IP9+8inH03tMk6HXRXfnY9wzxg8GuYzDQen/E5+8TsOdzOmyEC9q04sR+5+77gx2abjQ9U7iQV16P/bxjwf13hTHBCe16YXbv3pHUC/1xA2N8VBJVsGILoRQ6WZiwrhsD3iOM4ONf9hmwrUMl+aVNY2N8CRppFRD1jmuCflWH/cilSWMyzZGsGH8VWRNyNeEdtHllW2qoV0vTcqYzr9vvsy9ea4OUluxP0fH1qzcesz9tf5UrM7WY6We9B8RhQYL6KXugxLa6JNtJe356pJWfWEElqrFm6TD2lM6EoMf6CV3LjRbd1jPM9zILdFQ8ep26brsuOzZs9vdUhPq1NC9d88evddd/rNf94mVyo1H9Bq4llhYtXKV5OSekpudj+dy52WsCwYvSESpF0M+cOBAmeZ8MF5b8rq7NTx00I/FEySPMYMC+EHDGBpuPPXvJzXsznzv3r3ur7FBIyXqOv1AL0bt17/8VbCrSFFRkftrbKA3XMOd/IJ81bt2zZqg3jci+BtECnWhfpgGSM8ufiao14yu0tDwbDGSSmFRYTCESgFLR2Np1UrGuklSgGUdycX5DRnQObLO9lFjAslcuMek/uzerasex8hy/FTH82QwARPaRbZDhw7adQevlHVANqN5htaNmvPiN2Q436ZuSKFJGVM+Irxc9JPiQxFvyBa09O2lMufqmvlxabCAQaXOY9OmTbVmAqoPHG/79u2+CedXrlipQ09BXaPVRAsfZkKCFFKMwTaYUA8vEfc63snouZZNGzfpoAL1aeWY5Xw09u3dF7aOLFm0aNlcP6Z0Q8nKqtvLjxX+Dn4DHxzI3i9f+erX5Ko519aYbpp3i9z381/o77HAu+dnXGjRit4vh+i+cNZs1Qvm+a0PvHt+Rhy9V10zR/Wiy6sbvf0HDIxJL/d54SML3TUPKSly2ZVXqg6v3nETJwX1ItPQDB08OBjGZT5k8CAtUO51Cs+820wsD3M8x6HOb15Z1tnulc05eUILoxzHyOJRomfChAnBLliEa1u1bKlGnSiMCePyO9nOyKTnle3mGa6tqdOkjCl1PLNmz3LXEgNpxUwKMQMv5Zw5cxJa50HnZl7g0ET318y5JqF6DaGNI1ifPXt2QgcVOHbsqL50dYXT/OBlnz59qhw6dEguvuRiTfUVSxeP+jJl0mTNGpOVmSnnOiVukyIuUYQ+m4bi4kCKuHDU9XtdhNNrvLTaqKio/wDOps4xlKTo7XW6XhIW1EUkMomG94qQL4aLOeswdMgQNZJMLEN9ZcePGxeUnTB+nG7zhmuZs852fjf4yZ4JNCljesdX79ApkeCJhY7SgjFLdNJ3Wr1hvEI/HLQCDDWw8cavcQSFlkQn2CfnJtdsXshIwGAyaPLbS5fKseMnZIfj0TNQ+0HHqD7xr3/Jf1951ZVMLAwUTYOm9xyv+tDBw7Jv3355x/lAbNm6VRYu/HtCGzv5vQN0un/wD7+X5xY/XWN6dOEjcu+3/5/+Hit+gz2QHQe9/xei+80lr6leKHAKqLHgd73oJXUfetHl1Y3eXTt3xKzX73oJS5JkHx1evR+sXBHUa/rdNjS8Vxiu0PcLw2iMo6E+siI123qwLdQ4sh6QrYmfbFOnyTZAonFFvCH37Pjx42v1fvHYyOQTTzjeoEGD6jReDIoeTzDcdOzHWIfzPIB77ecdxALXwsDk0UQaaAW7bPly2bxlq1RWVsn0886T/7nrLvny7bdrQgnmO3fs0GToiQRj/sKLLznnsUU6duwo133qk/K5L3xevvDFL8qtt92mjVFIiM7viSBc0gGTTtDbAKlPnz7ur7FTm15Cgd4GSHQhiRfh9Jp0gmPGjg3qvWhWoLtHPKjteuHqOdcE9ZIc3nJ203SNqfPxxPjF4yPPMThWJAnn6YzOSCvxMmzo5Xhkj6mLrzly8Ug2DxhwjocxrQu9145sPAoRwXvtHC9ajh47JiWlpWqwLr7kkmBDCC982FIS+Fhv3rxZm/pT6OI80GcaWRg4rwEDB+iIGYmgtqQD1EN5GyARTosXtenFqHkbIMUznWBdev/z/PNBvfFMJ1ibXljwhweCesP1M7WcPTRZYwoYv/rkmA2FY0Q6cgvwAY2XZ4xejhcJfKSjOc/amDLVuYYoUgoiyz6xYu61nyGsDbzS1NS0sPvxUU0G+fkF8uG6dWH/Zsk6j1BWr14lLd36bQpIpNf7zI03hj0fWmp7W4rXl23btgX1Tpw8SfVSyKhLLw3PYgG9pqHP6NGj5YZPf9oplH4zrF7TEwC9sTSmo46+tDxQJ2rSGNb2Thq93Odwnq7lzKBJG1PL2QO5O1u0aO6u1eTWufNkysRJwZaDCaWWhppTJ02WS2df7K4lF9LUMjYkDBgwQNPr0ZguHIT1aVQX6we+rLw8qJf+s+g9dOhg2HSC6KXBGa3iYwG9Gc0DSUQuuPBC+ebXv66FnHB6Z108S6+XluOxtPKly09WVmD/8RMmyn0/+YkmbQjXzxS9XO8zi585rT7yTINuWE8vflYe+8cTwemRhY/Kr379u7hNDyz4vxrH/+cT/5aXXn7FPYOGpckbU5KnMz6m3xTqPfjJMHGMaOHYfsdiCi2p1naO9cHvOGbywnn4yTDVx8Ot7XiJvNeh4H2cO2KkfsjgU9dfL+e4I04kk0cffVTOHT5CPnDraD/28Y9pg6qGwJtOEIPxf3/6k5yope8j9eTU/9PALRZI62f0vvvOu/LY449rIpBwXZbQy0Rav1haX6PXm06Q6+3Xr5+GXP3AoHG9fo2KosGbTvD5Z5+Vn//yl+oV/+vxJ3RbKOjlemNNn9gUWLV6jfQbMFCGjxypE7Rt104umjUrbtOYsYHGTJ26dFEdQ53727V7D3nttSW6vSGxnqmlScJL2rt3IGPV9h3bHY8h9kQW0dKxfQdp2769ZLUOeBw7duyQ0rLYM3LVB286QfoBkuaOPsSh9bkG6q79WnFHizedIIlH8NKeevLJiPTG4qmFphPkekljGK5Aha546PWmE0xp1kyvlxSK4a7Xqzce7Tv8IJmMGYYu3iPThGKO/6ZTgCF5vxfvO0hmo75O4Ybp8ccekz86had4TFu3blUjeuzIEVdTgPzC+CQJiYXG0Ya7HixZ/Y4seGqh5G4/IF1T/F+O7/3g+zXCPiSc96OgY6qktmsll46cKuf2rXtw4Us+e51UNKuSrqcCL1Uo1Kd66yN/+uMfOx+400vqxysLJL17O+njGIW50z/ubg3Pb/79F1m65j0p2HZIOjbzTxDg9fz4qIVLbnGqi/OnT0mRudM+JuPGBjKdhMPc69K8ImlzpNzdWpNI73VuVqU079pWZoydIlN61u9DzoeLcOE555yr61s3bxEyNXnry6ijom6MDxihTD5mBpIe4EHyYeBjR9cLkyyDhOiRct75M2TYk0Ole/dAE/89u/fIkZCXnAQg6PbW05mPqjkvfsNLW/zsYpk0IZAvt74eFMZkhPN3IIkEcwYHJ29touFvcsNnPh0c05R0gs85nluiQS+NwbQO1eGmeXPlZ/fdr8uJZt6tt8jip57W5fNmzFCjmmh+tigwys935t6uc2As0K1bt0nOyRyt6khkf2tzfApO3dzn3o/CggJp5RjSZ55+yvHgn3G3xg55fR986M/uWjXkFm5omqxnuv3Iflk86qRkl+ZoBiG/KbQxgp8M0/bKE3qsLbt3uJK1szrlgCzvn+97LCa6J3jBkPrJbdy/U17vdkTWZB53JWtna/lRPU/28zsekxfOw0+GaUunQtVdW72awdxr9vE7FlOk93rH8Ww9FtdSX9D10osvym9/8xtdv//nP5Pvff/7NbwDXng1mI7hxDhhuFhmTv0rhpRuOazrNvcDFI338Le//FXeeecdx1j9V9f/76E/ybe+/W1dhj2OgUe3qaNDB8vUn2FAzYRO5qbUX18PxqQTbO3cB8LuzBl/M9GYdIK7dgbC/Uzp6f4FzXhi0gmS69Xo3bZlq/tr4jAJIw5kHwjq7RJjJh+TCYxCoHkWWSatJ42YKOxd9d0vyI/L39LpkntuVRnYvz9bho44R9p37irnjh2v80RN5vhDHH37ImijQIOteJLrPM/0822MNOkwb8udzkNXGnuJpKq0PHCsCEk7WSoZB+ITVuA45ccj60JRWlAU1XnWSk5xVNegep194gHH4lrqCx/Q+Y4BXfTYo7p+82dulHvvvrtGA6S5t8yV1q1ba90cdWUk3WCZOf15TV0hc4wzhhVvt67uEF7o4vOzX/xcrnNbdn/6U5+Sb3z1a7oMffv21WPSCGXevHnqAXNeDyx4QJfNpOd3z91q7Dm3+hrT//vzw3LvD34osy+9LDix/txLifVM0fugM3n1zvvs51QvycwTxb3f/0FYvaQaTBTfcp41dHj1MtVXL4W5JUuWyN3fvlsLW96CFUZ00aJFmkhmS/4BHbGKaUveAf1dSWk6n/EJEyfILbfd5q7VjpH1FpIbM03WmF4x8ULp+Px+Kdl/wt1Sf4pW79Fjfe4z89wttTN78ERpvToyb7I20k+W6HHGlUdWqp3ecaieJ/vFSsk7u+ScY5nOB7+fuyU83OtxHzbTfWKlZNdRvQaupb5g/L7zrf8nc2+8Sdcf/NMf5Rv/8z816su0teq1gQ8buV0xVHygFj2ySI3V/fffry/pwoULdTvegPESI4Vczt++61vypBtK//Xvfif3z6/ZoIdzUCPtnLPqcs6DZT6SGHsTXibvLefBORnPJBp27dopK539w038ngiOHz3qq887tXEH044nDaW3rKzMV5d3QiYaKMAt/PtCmXfLPK124BnkmWFOYY/CFwOL96xqowV5poHNOrp7+3P40GEdAOCDDz6o97Rs2TJ5+aWX9DgkQ4kHn7r+Bk3/GQlGNlwL7cZGkzOmptL727d/Q5ofLJTUU7HnwUzNLdNjXXXRpZronrBK6AeN0iMfWxK0v//4yyofK82KK/Q4SxYu1pFP0GtKpF7MNd//zXtVnv1ihZFnDr23WX79q1/qB9181L3QsAG418jGY7Qac6+5ltWrVus1c1+jAYPzyesdL/Cb39T1Hzve158fekiNVCgYUv52hMtIXI4HiuHiY8X16UfK+WhR+if8Gg23fvY2ufjSS+XSyy7V9e9/97vyJ8ew+8HfkEELOA/uNd00OA/m3ns///75YUeFqY2rrr5GB1gON/F7IiDpu58+78RwW/GmofTOnD3bV5d3QiYaeBaZiEoQqTANpFjmeWWiUPbsT/4kX6kcpxPL4aCRTk5urvTs3Ud69+lb72nwkKEyfuIkbVhUXlmpBtYSniZlTPnoULpnCLZEQef30FEq+BjjyTBPFNQF+I3KQV2KMWqJgg986LWhk/NJ5L2mEUO4Yb3q4p2l78j69R/p8rgJ46VHzx5qZP3AYDFR8seomf6GGlLtFaivnDhposyaFd0gCtu3bpM1zgfm4MHAOKYjR47UtJB+UHeKDnTzkTSGlDkhXgMyfFgtllA2Hdkte/ft04llP2gARyNn6pENw4fV3ajS0L+/Y0idd4K5YdCQIXLc+Q6QtzxeHuqZSJMypuodOp5EK8bgSyDUYZnSIRCGQbef5xNPTHjHC53bo6nHqw+EG/nYezH3OpIGSrFAXVA0oVXg74Ah3uYYMxjm/L06deqky6FguKgnNXWlDzzoeIVOKZ/WsmZuJn6Lhp27dmkDn0MHA40s6OfYvr1/jlbOAx2cR6j+0PNANhq6de0iRw8fqnNCLp707dPHV4/fRIv1eNFQeocOG+qrw29CNlIouJpCs8nQRGSMZRwIGiLx23f/+mt5ZkyuTnf9+efu3jU5fOhgDUMaDR07dnD2PyL7nPeeeejz0rJlq5i/gatWrZRDEQyiD0Y2tEFnY6VJGVOMCp5EIocFI3QY7qPKRy9R0FiFrhGhMDpJoj2VJW8sOe0DTmGCQkUf57wSxWWXX1avpAF4oOs3bZSf3H+frv/2V7+W95YtT04GJA+fuO4TsmHzJjn/gvN1/d//+nfUoeL6QCEHz5qP7qlTudI8IyPiqcrtm1kfvHopgBUXFfnq8JuOH6t/GwMMi9GL2xWtXs61Phi9FCx7OAU+Pux+OvwmZCPVq/fTed8wnBRq0Uuon21EjXim+O7tKaxuAe9djhdtHH2F7qDuzP1aZFfG8PwAyS3u/J//cddqx8gm+72uL03KmPLhNR/feGTSCYUMPX6QxcQYOhLcxyvZvIHjhatkf+3114JG/LHH49uPjcT13/3+9921mtD61Huv4z1STrTXwocpXHeLp599Rl57843kZEByviV0OfFjiXMOTImG54ECFh79RRddKOPHj414+spXvuweJXq8em+ee7Pv8cNNV11ddz/qcJiW1uhlIGq/44eb0Mug2PXB6MXAXXPN1b7Hr22KVC/RGQqutDanoIg+9LLN2wBpUvtB2mCR6fxO0Y8BXBd4owz+zeDezI8fP71xZ2pqqrtkCaVJGVNeJm9IEOMXj488xwhnSIESolcvafXiZdjQW1tqP+8105+ttvOMBgx4bQUSrpnJgGw8ChHmXnMt0cCHif59r77in4fTGNJEh+IZg5HE6mTbCYUPoam3TfR5WM4cMJxUQWBEmRtY9jZA+vsPfisv3fILnVj249xRo2VXSL3mseORRQXwRnft3q3hXubGSy0qKpSWrVrKgez9MigO4+L68fyLL8jv/vAHd61p0qSMqeXspnu3bvrhwZBpdidn8uaAJRzEVFVV6W6JPz169JCMjHRp36598Dww8N5QFOsVFRXSo3sPd4vFUjvaIM4dXcZbT0q9KaFe+POr/5Y7/vRTnVgOB1VGu3fulO1bt+q0/N3lweW6pk0bNsobr7+h8507tsvWLZtl4/r1UlZaJl27dJHMrMCgBvGGwmdJSexd/hqSlKoIKlGWv/uuTJgw3l2LHfI6Xnjhhe5a3axatVqOHjsql192ma6vXLlKpp13ni7zMQtXQX3tddfVCP2RR9MPssaY9H/L3nlHJk6coMs84GQXudZTV7p69RqZMm2qfjyfdnT7YbKiGGo7R+OVUudHaMjANVdWVqjx0PXVq2XqtOm6HO46wOvlmrEW/TDnyO/edILc22PHj/ne69qOV597vXyZ81yNDzxX3OvU1PQa9yAcnJOOvpXSTHbv2i3ZTom5V+/eknPypIweMzp4zPry0osvyeVhRgExUK/F4N8pzolQgj927JiG4vBM8ehHjhghQ4dG3orSj4cfflg+97nPuWvJI/TZSxYNpZfniYZ2F0Qwtm88QS/wvcFg0tjQNHQkxEtEitbuhIEJ90761vWydlqgqmPY0gL58NeBqqdHH3tcRpxzji4nkw0frZObb7rRXRMdxcUkuN+0YYMuk093qfO9rwsifbw//++uu9wt4bl53i2a89fogt07d8i1c6521wI89eTTzrfmWnctdrzfQj+avDGNN5Ea03gTjTGNJ9EY03hTX2Nq+M9//iMHDhzSZ3PcuMj3q4tIjKkhO/uALFu+XPvizZ41U8PA8cIa0+TAM97QxpTCmTGc3p4D2nXL+QYR5h31P3Nk84xATu7+b+XIlt/+R5cbszEl4cMDv/2N837UnvHsH/96Qtas/kD+9+f+rZQNo0aPkW/fe2/w+AZrTCPEz5j2HjZIXlz5pmQUV8mI7v11eyg06jF1WBDOq9p96rDkVBTJjGHjJCf7SJ3GdF3uHikuLpYp3f0TteN9eb00QpF+dWiH80/KwbJc6dq+k3SrzKzTmKZ0ypJ1OzZJ9/S20jXLvwuG1yPGew7nEa8/sUfKU6pkSEYXOe+8ae7WwL0NNabmXqdVpcg5Hfxb90Z7r0cPHC5Vx/LrbUxXOee1eetW9XL/6hid22//ivtL7ERjTJ9//gX94HHty5wC0dybqz8usWKNaXLgGW9oY8rzT3gXo2rYvDnQ95v+z/QwIMn93z54SbfdOu7yYLL7RX9/VN+dZNOiebp84hPVxsrPmMKbS5bIn8MkM4kGY0jBGlOXeBjTj/L2y5dyn5Shjx+U8rWePJUeCB14jcugfv5Gt/llw2TjhZnyzR1D5boLLq/TmF751zulaEBr6fGQf1JtGup4w62MoEKS91BKureS4x/vJaPb9ZPfjLmlTmO6aM9S+WPKKun1u01hMzB5GygRaiXlnR8pt46V7PQCebDb9XLjjZ9xtwbubagxNfd60JZKqfrbGt0eSqT3Om1MD9lyQ3f5UtUEmdt3Rr2NKSHWxU8/o9mHli9b1mDG9FXHm9i+bbsWoMrLy50XOn6ZhqwxTQ484w1tTAFjqv27s7ODhpQ6+vk/n1/rPQl8p/ZrAZ79Q/uMxxNzfKPPe17hjCksfvJJedLxPuuL15BCYzSmtgGSpUkybOhQmT59qo5KQSahhmLKpMkyaPAgycrMlIujzKBksXihrzceKN3wNm3ZpBN9wCMpXDAMIHWsI88ZGewBkIjJHB99ZjQkP6jTZExTw5zrrpOvfuObWt9Zn8lrSP1IT2/40USbrDElTDjizQKpOBF7jtzS7Uf1WBdMn+FuqZ2xHQZIr02xDwKdVlgm/bZXSv/clu6W2umX2l7Pk/1ipdmHR2T0kdaaIqwuuNdT16bpPrFSkVuk18C1xMr5558vV1x+WVzrKaOFxkYXz54tM2deVKMrkcWSLDC2U6dOVSPH2K7G8HlbBpMDe+5Nc4Prs2fO1nUzsY2xd5mT0QsPlInjYDTNMc3x0RfqAXfo0F7HMYVWTuGSCQ/STG3btg0OGB7t5D0Ok9crPXH8uIwYHv9+t9HSZI1p9ofbpOTlzVK1N/bxGqu2H9dj7VkbCK1oppUwUP/ZZU+5VC71z40ZDSR9L319u8jaQ5oerza9cPz9wDWzX6xUrM6WjJWHgl1LatPNvU5ful/3iZWqXSf1GrgWqOuaLRZL/TAerclcRSMmDKHBtHEgyxpgHKmzHTJkSDBhBbms2TcSLr/sEmmenioH9+/TsGtB3ilp2bJFQiaOz3T44AEZNKCvDBw4wD2LhiOmOlM+hEwpIePp0c+PrEHhSur1rTMtLizSJuRf+OIX5fHHH/eth/QSaT2el89/4QuazJkcqlwbdaaTJ0/SEhtZgV5//Q0dOaY2Iq0z9XL7V7/qPPT7dEBrHmRTf8SQXTzQ937/u3LzZ25ypcMTaZ2pYfiI4Y5XNVOvleb3ps60Y4cOWppN5L2+57v3yvvL3wve62hb8yaKaOpME4mtM00OjaXONB7gTeJ9AoaT94rvMEYSY6nZlpxvMy2H+c3AMvcdw4knSjrDe+65Rwf40CxMzjEJQ3uNcWOnrjpTrjXUdpGu0i9XOSSszjTw8UuT6TPOVwXeiW0HDx2q8ceKBzwo/METmeh+75492t/LCw9iol/wkuJiNZyh94xrxrgmEh4q9HihNJtovcecAhK6vS0YLRZL/SF/OQON815hMFk23iWTJtRfHBg7l+1MCx5Y4O7tfAucb5AaWuf9Z4Quhg3UsYDdQv2ZwutLXnfs1IzTbNc0Z1uf/v30uqOl3saUYad615IEfeS558rBCEcHiBQMDQ9BIhPd4wGbDtMGHlCykSSyToyuNoRdvOnEgGuOd6EkFD/DGbzXCSy4FBQUql6/UqDFYokeCv3k817y+hJZ9OgiXaZB04pVK3REIubI4HWaUYqQwfskDMw+TM88+4xuM7nBaQgV+m1qqvBdu1QjT2R+OZ22bdtJSj1yENe/zjTUPfZD09TED0IU/GHhez/wT9AeC4QqZ5x/flCHgbAHBpaHkN9Jdh9PON6IkSN9h95CJ6FfuPf739N5vOCabp47T/Vyb71QmEA3BRfuNbLxhGshxBx6ry0WS2zw7lLwZ24mLxRe+d1M3t+NPNvN+o6dO+XFl16Wxc88J8//5wVZvbppDxIeCO3WbpumTpumRjca6m9MI8p/Wmd1bFRQMjKlI5IEUDcZ+qDUB47Bsajzo7VaqJfGw2eGZevcubN84pPXxc2gopfj9enTxzesSn2i2X7xJZeofDwg4fwtn71N+vbrqwYNw+mFbca4c6+RjcegAuZecy3kEA3Va7FYGg+P/uOfsuy9lXLoyDE5cPCw7N13QPY588f++S85efKkK9W0COTurt02bVi/XuuWo6HexjQrM0v2793rrp3Ovj17tC9SIqGRD53lY4VjeBsM1QVGFwMYD9DrbbhTG3SSjuY8a2PKVOca3By5kYAs+8SKudfeDFEWi6XxQUavnNw8rYKim8ugIUN0yt63X5qlpsl/X234OtQDBw7KKsdTZoq07QUF+P86nnY4cnNzJdcpKBjvPFLqbUzx1srLy2TZ0qWaz7bG5GyrqCiPi9dosVgsluSzcdNWKS0ukays1tp/lKHYAINK384WrTIbPOR74OBBDckybdm6xd1aN/QL97VdzrR31y6ZOGmiKxk5TTadIC2vEgE3s650gjbRfXyINdF9orBdY2zXmGSAXohn15h4QQh38XMvSFFhkXTo2FG3YUxZbtmylS5jUDt3bC8f/9iV+ntDYL6LpDc8eeK4ZkYz2HSCFovFYmlQdu7cFTSiZo4RxYDqYOEYVMfQlpdX6G8NBYXx5Y4DVFFWVsOQNgRN0jMlYwfufSLo0b27JpcGP8+UpA1t2obPSVlvnD/DhAnVJdTQUjqJ3fPz83U5nuSdOiUXXXSRu3a6Z5rIe52VlRV8AaxnejrWM00O1jP1Z8H//VnnhHUBQwoY02bNUqV58+bSsV1rueSSi3V7Y8OOGuNDqDGNN6YvJ11gvH0e/YxpvKEjNBXdoR+QRH9YSNLANXN8b0V7qDGNN7Xda2tMa2KNaXKwxtSfx//1pBQWFasXarxTY1Dz8k5pF5Pr5nxc2rePPc92IrBh3gagITPwMM5pQ+gnEQVGlHkyMdeabL0WiyU6Lr14llS6YdztW7fqhDHNy8uT4qIi6de7Z6M1pA1Bk/RM+SAT9kwEhB2Np+bnma5c4ZQm45uLQtF8kMOqY/6hpXTCrdnZ/uO2xoq3ZBzqmSbyXvfs2aNGSN16pjWxnmlysJ5peGiItOT1N51vwkmpqAgY1nbt2srEcWNlyNDBut5YsWFeH0KNaV0XFQu2Na9tzdtUjCnh8h+/+jdJz2wpc8deIpMGnev+EhuRGLUvPvJT1Tu6XR/5/MWfdLfGRiR673r4Z1LcNl2m9BouN029wt0aGzzjdRnTnz7/sBwqzpXBqR3l69fe4m6NDfRCYzamXhj8Pi2t4ccNjRRrTH2wxtQa02TSVIwp9+zipfdJ0YDWsiDraumUF/jQsV3HoOzVs175VCMxam1/dbXqvWZtW7nrynlaB08ydKI6pJ5MlN5J37pe1k5Lly+Uj5U7zrlSr5WBKejTTuGCfLLRwjNelzGd8fDX5P2OJ/R6f/OFe2TRI4t0u6muqK/eEydOONccSTY5S7QQQLzs8sB3LB7U9S1sssb0SFqx/Piff5A2J6p0sG4/5t16q4wZM9pdE/nuvd+TgvzT6ye3pJ+UQ2U5cvO4y2XywHPqNKZfWPA9qUhPkUvaVg9Q6+X8Cy+QOXOq9/nD7/+gw7qFciilQDYV7Je+vfvK3bPn1WlMn9vxnvx31dsyNKWLdKvK1O1eMrNay0/v+4m7Jjo6xNtvvuWu1WRF1X4pKCqQe2bd4pzr1e7WwL0NNabmXresSpdJKf6ZiyK91xsrDsvR1EK5dML5ctXAKdaY1kK0xvTFB/4hmzdvlmvmXKPPDca0NsMUjmiNaZejKTo6CR3dySNNw7JE6fUa055bS2XRokWql9SXGHO//NZ1wTMejTH92IDJMv/++TJs2DDVhzGvr15oCp7p3j17Zdv27dKuXTvnHR3nbm3c2AZIEXL45DFZMzVdTpTkyfPPPus75efV/JivWrnCV+5IRZ4ea9/+fa5k7WS3LJRdQ5r5Hovp2NGjrmQADKmf3OZd22Rr/0o50qnO8oySk1am58l+fsfj+rxwHn5yTEe7iOrmI1IX5l6zj9+xmCK91wePHNJjcS2W2Mk4UCQtdwbuvXeUD4xatLlFo8Grl/zRi59ZrAaFPNKJ1FtxLF/1lhUU6XVyvYyAgs5EDppg9JYWFOs1opfrxvAnUm9Ds3XLNvnbI4/Ku++vknJJ1by8f3zor5pq0FKTJt2al4e7orDUXas/Zc4LYj4MkZB2slQ/JrFSVlqmxyk6GFnC6PwTuYEPibNfrFQcK4jqGvReO/vESmVFpR6La7HEBh/yo796RXLvfFbrLfEICXeynXCrt8tTvDF6//WjBarTeKMsJ1Lv6r+9oHr/dMt3g9fLHJ0sJ4pl3/mr6n3ml39RPUzmPidSb0PCaDHPPP8fyT11Slvx0pqXvLw0RNp74JCOIGOppska009Pv0ImvlgoJetjb+Fa8MomPdb/zPuyu6V2vjDsMun0n8i82Noo3nRAj/PJjMgajnyix2Tp8dBW3S9WUp7ZLFed7CN9+/Zzt4SHe33dhs66T6wUr96r18C1WCyWxsu7y96XjObNpd+A/rpuEt0zHT96TIpKy9XgWgI0OWNqRnv/xc//V7L379fleMCxfvD9HwaWs08fjJv6Kba/9fZS+e/L4UccqA/PPvOsbN+xQ4/v1+fUXPO/nviXzuPFmg/WyAsvvqjLftfsvdfIxhNzLTRciZR//vMJ+e9/X4lqevOtt92948fjj0d/Hh9++KG7t8XSNMjLy5f0tHT1Snv27qWeqYEkDhXlFbJlS/W2s50mZUwf+MMD8tprr8kxp1Tk17glVrL375PFTz+terzGhWVa7zGvKC8LZgGJFxwvP79A9WK0vdzxlUDDCjhxIr56SQtGOsG7v3N3sHWiAUPqvdfIxhOuZfWq1bJw4UJfQ+7H4cOH5GNXXRXVVFJc7O4dP4YMHeqrq7Zp+7bt7t7xg2el852XaGOgP7/6b72PTNqy1i38RXpvo8Xo/dQPbg/qQSe6TXatRDD+1itVL11z0EHh06uXKRFM+9ltqveauz5bQy/LidTbUCxZ8nowjWDPXr1PM6gYU7aVlMRezXam0KSMKQ9uol5Sw549e9R40bXACy32/LzGeFGQn68vJHq8cL2JzhbE9W7aXFMvmZkS/YHYtHGj6q7vfWV/uvb4TcnETz8T55doSnu01Fa1sPjpxTrNuWaOzLt5nsy5es5pz3G88NOLzrk3z1X9iXpPUztlqV76uKKT51av1dGJ7kS9K0ZvRmaLmnqde4xuCp5nEpMmTlTnwhBqUDXZfauW0rx5hithaVLGlI8ulf2dOneSAQMHas7IeMGxJkycJK1aZWo/OW8jCj4MpNCiFV/bdu1k7Lj4dRMCjpeamqp67ghpYs82zgfOOSc+nfINvfv0kV7OS9KmTRtt/ekFvd57jWw84VoYcJhrowFJffjJj34sN97wad8pmfjpZ+L8konxlugaQ3cR+nqynmiM3rlz52qjHPQnsuBp4PkkmsO1opPuaCaKk0i8ernH6D7T4PuX5nyTvHgN6rYtW/SbOXRowHu1NDFjSlN0Y2y++rWvyqSpU+NiUDkGx6KP5ozzZ5xm0Gh2v+jvgTDo+HHj5LIrLtcHKx4QSuF4AwcOCOrwsvjZxWrEgZfWhF5ihTDN9BnnyyWXXhzs0uCF5v7cb+BeI2uSXccC95pr4FrGTxgf1GGJHj7qN3ScqH0uR/cfpveSZ4guMsz9/q7xwui9+LwLg3qZP/DgA6o/UXrPHzpW9ZIBiWcUveaa0R/67saLS7uOUr3TR0+soRd96E6U3oZkysQJ+s7jiRpvlGHXaNHbsVMnKSkqkIED/Pv4n400KWPKx4PJ8Je/Piyz4zD8D8fgWODnKVFK82777Oc+K/fNv99dqz8YlZdf+a8er3Pnzr4emveaz5txnsrHw6B+/otfCCZ44MPnva8Qeq+RZZ9Y4V5zDVxL3759T9MbKZ+5/oakhFFrA/2cR0PBvaOLyAOfvDNuqQQjxeiNVyrBSPnl576jeuOVSjBSvvvxz6neeKUSbAqQe3dA397SPCNDvVG8UvPtadWiudwy72ZdtgRoUsbUYoHf//a3suL99zX03lAwsv/f/vJXPQ+L5Uxl8uSJ8rnPzpPe3btK547tJU0q5Iufv1VuuD65haimQJPPzUvKvNCMQ4ZZsy+WAW4fKfjLw3/RdGWhdHK8QpP+L9LcvIxEv+S1V92tNRkxcqRMn16dRzfcOTLALl4pRJObN9x1eI8H7zp/t40bNrhrNTHnSEOZSHPz1na8+tzraHPz/va3v5NvffvbMqhftZ5wbN+9S+f/ee45ufTSS3Q5UupKJ/jBmrU6p160NiZNniz/eOJxXX7iH/+Qaz8RXWozO2pMcuAZt6PGnHnYRPc+1GZM441NdN94E93HYkxNtyNaKBMeJXTPMg1IQuu7EmlM6epEi9OVK1ZqAxbgPKhrDDUi4YzpooWLtEqA63j2mecCGb0j5P333peFix5x1/wJZ9S8ehc8sEB69Y683QD9uO+7/z53zZ9wemk9S55hWiYzHCDDEUYKeq+5Zo5zr8MbLJ5xP2Pq1bvk9dclJSW6sRcnTphYp16wxjQxWGPqg58x7T1skLy48k1pll8mw7v5f1xHjBwhHTp0cNdE3ln6jrtUk915h6UgpUxmDBsnOdlH6jSm63L36Ms3sUv1+KNeejgfG6+XtnbtutNy18LR/JNyRAqka/tO0q0ys05jmtIpS9bt2CRdJFM6Z/kPyktdpAHv+UCYLgobTu4VSW8mQzK6yHnnTXO3Bu5tqDE191rKKmVke/9WvdHe69EDh0vVsfwGMaZg6qdpPBJab5ssY6pj2DrnQQM3DLq3BTmEM6Zch3kueB5peZ3lHKsueAazs/fLl7/8JXeLP+GMmlfvgwselHNGj5bysnJdr4uKinK5uI5GSZHo5T0oLCqOSm+7tm1rNVg8437GNPR6ZzjfrKNH/KNgoXTu0lmKCwvr1AuJMqa0qN6ybasMHTykxrO1xe0rOtTT9iIgu82RHXyabFVlVY2xls1xzbtrQLZ1Vmvp0aO7uyUwDvOBgwdPk121+gPp0b17Ddl4Y42pD37G9KO8/fKl3Cfl3KePS+GK3bo9lEf+/vcaxuWySy6tkcXD0G7OWFk9uZl8c8dQue6Cy+s0plf+9U7tc0ZaPD++fc/d8vkvVDfW+ebXv6FJ3kNpPbqvbJncXEa36ye/GXNLncZ00Z6l8seUVTLmn8ckb90e3e7FNGgy/Pmhh+Tn9/sPDdXsc+Nlf7M8ebDb9XLjjZ9xtwbubagxNfd68HaRyodX6/ZQIr3XrSb1k4+u7Shfqpogc/vOqJcxxZuuy5CFGlMMDhOYvpd8NEINKURiTIePGOG8rE/KfT+uHqUnFD9jijE3fSHNeRhPOZRIjemeffvl3FGjdL02PvrwQzl8MDtuxrTfwEEyeIh/gTKUVSvek0/fcL275k+kxvTI0eNR6R00cGBcjOmwESOldwTpN2Hfnt2OYclsMGOKwTt46LCMPPccrZrp1qWLPmMYvD7uNex1zhGDiuyhI0e06ica2eXLljnvb2AEGSNL//SKsjI1kgcOHJTU9HTp1atXDVkM6dRp07TdgZFNBHbUGIulDiZPmSJf+8bXfQ1hOJDlw8iEN2jClfWFvrkXX3KJnkc0oDf0PPwMqcUSC3iZGFLA8G3dtl02b96iBo9nl4llwuZbnN+QMbKss/00WWd/jmNkMYgYRlIKGlkMZ2FRUcDoHj6s69Wyq7XAxDLwGzJnCk3WmBImnLS6mVTlxp4urmzHUT3WBdNnuFtqZ2zHgTJ4d80OzfWh8OAJGba/uQzIO31sUj96SVsZ/36l7hcrmVvyZEJOB20QVBfc6ws2ttJ9YqagVK+Ba4mFr33jG9LTfVEbCj4GnEdj4LlnFqvnGW7i90Tw3LPP+OrzTq/8N765rKGh9L7w/HO+urwTMg0FRgwDx4DjeH6gHqDj8RcUFsqHawNVFMByQUGhRgO8sqyz/TRZZ3+OY2TpGlZaUiLHjx+X/fsC2ZLwTHNOnpSt27dLZUWFrgMeb2lJqZSWlgYbMfIbMqs/WKNebFOnyRlTE6o7uGGnVL2+U4q2HNL1WCj4cL8e69j28CnQ0MuDus0p8Z1b3FFHmomViiN5curFj6TLgUo5euyYu/V0zDW3yC6SnMVrdL9YyVu6VbpuL5M9e/a6W07He687ry/UfWKlcMMBvQauxRI/+g8YKJlZ4Qtl/J4IunfvUaveSMLP9aEuvQMGJiaZQJs2baVr167u2umgF5mGgO8ToV08P+77nt275b3ly3XO+pSpUzUJwztvv60Ty2yrr+wRx6u84KKLdDp65Ihu2/DRR9K7b1+VZc462/m9NlnCwU3doDYpY0rruvn3zdfk62+/+ZZ2Io4XHOvf//qXLH17qebbNIYEWDYNWPY5JTC/+s9Y4HjZ2Qe0cQrX6AW9XDO86qkPjQdrPlgtH65bpzq4Zi9cq/deIxtPuJZNGzfJrItm1bjX0UB9JHWjflMy8dPPZOpLk8XvfvUreW7x05Ke2iw4vfbKy3Lvt/+fK5EY0Pt/f/h9Db2b1n+kevHUEsXzi59RvZXlZUG9u3ZsU71LXvXvthYP/vnoo6rDq7eoID/hemsDQ7px0ybHOAUaCBJypUFg2zatJS0tTdeBEG1lZZWOSWrCtfyGDHW87OOVRQ55ryypT2lcNXDwYN0GY8ePl/KyMpGUlGBol3lKSjPHIy3W3w0ss02c37yyBw4eiqqldmOjSRlTRjJZsmSJtMps5W6JPzREoA7LW5/Gxx7d9f3oR0JZaalv3RnGNZF6gUYxpqGFYcmrS9Sgcj8SBYMKmLzDlvigwxKmBMJ1zDPSk5OInJBd3359VS+TCe8lGvQwGb2RVFvEi/Yd2gf1HjrUcF6V1k863l6/AQPU2zP348SJE9K6bTspLy/XdcDLJN925y5ddBn4DZm27TvoPl5Z5JA3soRoS4qKZNzEieqhIos+9KIfaGwEKusYzQGDBgfPy8iyDYNqQr6BMHCx46FmNFkPtcmFeemb16pV4ozp6tWrnQ+Sv/EyyQYSAXUJGGz6tXkxCfYTCQWU0NE2MOw0junTt6+7Jf4UOqXbaAoKWVlZ8tMf/Tiqqcz5SMSbl1580VdXbdOgwYPcvRMLH7f/d+dd8shf/6rzeI+9Gw4+ktdf90nVS4aq5+IcvQkHev/35z8P6v3ZfbGn+YyUO778laDehx/6s7s1uRhDiueId2dCqyZcyzYTml361lsarkWWiWW2RSpLhOoood2ZM9VDNbLoQy/7m8ZF9CE3oV3veXllTcgX4+uVbaoh3yZlTEkwPW/ePF2ed+utcUs2Dxzru9/7nnpK6PGCl2r6AfIAff5LX3Z/iQ8cj9y8GM1QD/Hue+6WSZMD27jmeELWIlqkknQ+VC86vfca2XjCMTs7JV6/vMDh+NznPivf/s7/i2r62JXxz+F67733+OqqbRrlPDeJZPXqVdLSLWTO/8XP5W7nHJknGtoQGL23fvaz8qOf/ET+8cQTup5I0EtIET728Y8H9ZoQZaI4dOiQlJaX6fLMWTPlnu/eK489/rgagWSDIf3IMU6hVFZVSTNPggnuSVVlpWRlZrlbArRp21aapaZqIyDvfcvMzNTt/O6lqqpSUtPS3LUA6EGfl7bOfqXFJRoONpjjcx5eXc1btHBki9UD9kIr36ZmUJuUMeXDa7y0MWNGy9xb5sVlODSOwbHoJznn2mtPy4jDx55MOdC5UydHbnpcDCqlPfqkcrwhQwZrAoFQMOzG0E2ePFnl2S9WPn711XLZlZdL7969VG9oAQKd3nuNLPvECveaa+BaZpx//hk52kZDUOl8z1q5H8s+ffrK3d/+jrRr207X/Zg0wfn7XuQU3px5LNUIeP5GL8/MN7/+dfUy6IfrB+0CqJ9HL9UI9QW9Gc1b6PKVH/uY6qX+P5xexjrleplC2yVEQ1FRkWRlBYzBjAsukIWPLJQnHGN601z/pO+0R0An10wGqXhhPFK8RO43YVKiEsbLNJ4gnrtpQDTQ+cZQbRMqywgwyCC7a8dOycjICHqdyCFPmxI8R45jZI2XGSqrXqZzXn6yffr3D54XsgzeH3oNu3ft0r9jU/NQm1yY1wt5aHs5xiBWOIY3p21dkNN2+vTqrEH1hYeN5A7ePL61QVYl5ONhTMlYFE3YGln2iRXuNdfgzRBliZ02rVtL7slAl6nXXn1VfvO738n69ad7LYZY+th6aed4GUbvX//ysOotLCoMO6IPeonwxAp6SwoLdRm9eIc0liGhRzhCq1DqQ/v27SX/VK4u/+WhP8vXHCN+kWNkHnxggW7zw7QLwIDEC7qeEH4FEy41xhHPz4RW6dKS5hglZNk+ZOgwNaheWX5DZvuWLZKeUS1rjOTxY8fkPKfgC0aW45pwrVdWDalzPuFkzXmtdwo+XllzDRjSUaNHB68hYFCbRqOkJm1MITOrtWb+8ZtCIZTrJ8cx6oPfsZhIOO8l3DnWN0wd7jpCj8d5+MkxhZ5jJNR2vFDifa8ttTN06FBtRAKU8B//5z9l1cpV+lHyg3Fyl7yxRFasWhGTYSV1ptHL84HeZxzPL5xeM/YpekOrFqIBvSnNAqHM/PwCrbd8+6239APshxl/lGsOjcJEQ7t27dRzg9bONT7yt7/pNYe7XiIv5F3mfscjCoNHumr1Gg2XGuOMN4fRojWt6e8Ju3fulNS09BqyzEtKSqW8tLRG39D0tDQpcfb39pDgd0LAhHzRAchyPI7L8Q3Iop/ziERWIwvOfTTnZa6hwtkeeg0HDjaNkG+TTSeYqOTrNtF94010nyzqSieYLCIZNcakE4SH//RHadGihdz62ducD9J+jQKsWrlS/vX4E3Lfz3+hMrGkE/Ri0gnm5OTKowsf0dbov33gD9pIBYqLiuShP/1J9R48eEA6tG9X73SCXkw6QfQuW7pUtmzeJLfcdlvwo0zbg+/de6987otflBYtW6re+qYT9GLSCe7evUc+WLVKR4z628KFsmbNGv29efPm2hAKve3bd5B+/frGPZ2gt7ERxmffnj1q6CjMGC/zrTfe0HpIDBsRrEhkMaRdu3XTgQtMSNcYZzxS7i1dnOg+g3E1XqZXVsO1jncZiSx1qROdv3G01xBt6kGbTtBiCcNND39PZjz8Nfn9Y4GB3OnSwweGOfV+GGTmie5KNO1nt+lk9BudoefBb/GGere7v3O3u1YTWoQDhtTM9zgf/3hAS3PqO/0weo0hhV274tPXl3uJXr97mV+Qrx9vY0hhrWvcYoW/JfWsfs+SuV5jSCHcMJDxgusnRSCGBTBQKc2aOQY7S/r2C6TyAwwaXVdoKFSXLP09yxwDVepMZgQg9mFfjmFCu8izH/tzHOP9e2VNuLY2WUAWQwrmvLp37Vqjf2u4azh46FBC3ql4UbNpVhPimfdek59/8G9p9cExGZXpHy6lxSiNZwzfvfd7UpB/+h9jR1a+HO2ZKp/KHCuTBwbyWdbGuK9fLeVZ6TIr3z+kdP6FF9Soj/zD7/8gO3fscNeqOZRSINs7FsrATr3kG6OvcbeG50eL/09ePrhW+m2tlG5Vp2d/IYT60/uqE68zjqr3A+dlTbuTUpBWLt8afFUNz9QPc6+bHy6WsTn+o9VEeq83VhyWUyPayGXdx8glXaNr4bpHcuX9jidkytaAsbj//vsDYbQ/PKDrZiQWwnkSnypBXzakB0JhdCc6tfmUrHg/0JCGDz9wHsOGDQucR5yh25bfBwXv7ytf/Zq7Vs1Vc67Vid/JGhRvChyPzk9vV0fXhbNm63LHjp2kqrJ+XZS41k2bTs82ht6rrpmjkxf0jpsY+Fhj9OqrF9BtBiMwpDue1WVXXqmTF/Qa778gP1/n8YLzwCMldR8eHgZGPTXH88MY4d1hiJho8NPZMU7UP9YmC+s/+kj69+8vO7ZvD8oyJ9TKMTjWqDGBbwP7tWvfXo/D8TBuyHJORtZ4sX6yRDc7deoslVWVQVlzXgWO4SQJhJGt7RoOO4WWPOf+JnK0mfrSZD3TwyePyXsdjsvRUyc0g5DfFDrs2aqVK3zlDhSe0GPt218dq6+N/9/eeQDGddT5f2R1We5Ncu897iVxSXNIBS4JgVAuIUDoueOAu4NwwHG0/IHjD/c/DnJwEJIcHAeB0FNIQkISp7jHSWy5V8lyl2VVW/J/Pr/d32r26e3uW+2uZCXvmzxr9+3vzcx3Zt78Zn4z85u9DUfMjr71vmFxeXupKFI/ua27t5tX8o+avedORiWT41BznaST5/zCg58L0uEnx1Vd2CBxB3HKoHnNM35hcQXN65rDhyQsuGQKFIuuzHRPYPFrfHMJlCgXR6npHmUW2fiNajKFOsf3grmpzZs2mdXPPO178Xum8Iu3/Wxb0ngx92IC7irIR+Y4vfugibdq61bfOLnwD5tJvMTHanZvvMz17dmzxzdOLonXymQLqkhRKLpI57nVHW7/WPWKKZUVsu7e0FSyXGPHjpURaYfsajHFougIg7Bou3QlLs8TDuERLs/wrMoSv5/sM08/Labv6TNnxMm66RpWUSGLj4JwOF9X+fZqM2/prnrT1tj1F0ZxpqFZwgqKghOtpqg6c9+yZ1rPSDhNNSeid5Lj9PE6SSfPZYq2ow1pcZC8ts9kiva2dgkLLuniraVzzMe2TTbXrIxs2bnra5EtPZ/5zGdke8+9998riz1y7VXpA2fny4Xi1rNIuW697VZz33/fJ+kgPdlYteoFfHX/r4uRo0abF55/zpQUF5uZtsHRy5w7Z/7wu9/J75kAxeIXL4twiJdGd+7cubF4J02aJPEyb+lVSOmA+VPi9S6SIt6D+/dLvPPs6EnjHTVypMR74sTxnMRLfu7avl3iQEbjXbZ8WSxeZLIFRmHufk9c+J05E9nDqSNMRnPMOeZjVnUObB9uR3fFRZE5SpXVv3Su3HCZo2xsOC2KTEFYjTb+4qKiuOcJjzS47gSRJX7SQXoAssTDPHi58y5ovO7+Vp5B1ru/NRFfzkg939BrlenSyhlm8R+bTMvLmS+bxmk9Yd14cepFJzik/8Tit5mhvw82ik2G5i3VEs47+i6SExlS4drBc+UMVZ7LFHm/3mpubp5uyj1mLD+Q17fsGifPZIrmdfuEA1zSxd++63bzjU99wVy+LHK6D40Zlx5jxmcaP78RVDZBGriIS+PVuLncz7nAlq2JR96csYpFgpWt/D2a5ACFdJEsXrbCDBw0UOLlSrZFJV2kinfrli2xeFHe2UKyeAHzjRrvk0/8OXo3u8CcycIbzJxcjNDmzV8gC34wgQLMouwVdfdwki8tLS2ygl5lua8jR+9+Txb7rHrDlTISdGWRKykrk20zKkt4pIG0aLpUVvesaroYkXpl+Tx3/vxOsnzX0awr6+Xrno16PqFXKVMWBeB8HTd0995zjzkY0CwbBIT15S99yezbu7fTpm5MLSz8wJTHSrUf3P296C/ZAeFxegvxwtEFcaqjezhnE6xI/NOjj0ocLDBxgYmShS6a18hmE4RJY0++kr8hsod7fvSj2N9sKrVUwH2hNuTdGS8dCI2XLTLdhS9/8Yu23TggF+9RrqAKFcWCsmGEpiZQVr6qWZQRG4qSPZwn7Qh54qRJcbLc53fkXFl3H6mfLGGjUDHn8xsyhKuK77h93pUlPU898YRhSwxnqrqyLgdkWd2LrHJIJBsz+bKz5DxUpKBXKVOUTareYqbg1BgW7rjzXXx+7LHHYvNhuQCLFlCkxOOCxTWZmKuCgHy99957o98iYFENvL3zv9kEc5ty5bhMXw94yo6OMH2Cf/v3fzdvuekm8+McLIDy4qVNL8XFe/PbbzZ3/yD3fmqJ1/SJNF93fOxvzYc+/GHztW98QxreXIL5Up0Tvf0D7zf/8KlPma9/85syl5dL1J+uF9d9dBoUmD459KOuruNevf09sv+2w50gz7Cnk3SfquuYXuFzW3u7bGPRcBPJAky47t5Q/g6w+Y0p2gXzrkUlJaYt6nYR6DPA/cyIGFmeUSSSha9D67xDr1KmNLq5VGiAExKIwzXRocxQdLl+Uf2UJitDcz1y865YBPAl3rKyYAeXdwWEnc4iHe/WGEbUpJPOABcdD/7mGu7WGECc8GCUrekgbd2Jsr59Y+71aPD+8e//3tQk8RzDtg917ZcJCooKY/GymO0Ln/9ns2/vHhml+IF41bVfJpB4i4rl86SJk2Rv6VNPPmkSHRhPmcA3U/eJbMtXxyOYMNlbitOG5Sv894ATL3yJV+tLuqjats2MHTfejvIukJWymD8xizKaW7xkqZU4J6ZPzKCHDx0yFy1fISNFTK/IqmlXR3fIcaHAcIkYRFZHpCqLFeDk8eNm4ODBsZGkmy4c3vOX72quRS5z2eVy+Pn5iF6lTGn0WVzCqTGYMEpLy6K/ZA7CWrR4iZwa4+d2DOXKIowBAwdmxR+wC8Jj2bfs5fN4SRk5cmRsDnD27Avkb7YwhtV8o8eY++67T+b5XJAHxEvngrxGNpuAC0ewUabeuBNBt8bsty8XoKFiewz5xuk6NJLdcaQbW2O46PzQ4bjrq3eJSZxetKYjV/OlieC6E0Sp4F5v08ZN8t0POq+bKVx3gpg6v/ef/2mampulAfSDG28mnUTXneBPf/LfMiqeZusrjbwfOLghG3xdd4L/85OfmE/+wz+Ya6+9Vhxj+EHjZctWVyxMW6uqRJHSkedCoe7asd2OJiNu/0DkpJZzVpFGTnQBdGbYnnLq5ElZ1KOdm4iSrBXlqKZdfkMGWZ6Jk61FNnIIOFBZBojsA+U76ULx7dq5Q0y7mi4x49rvu3bskN+Vg8jae15ZvhOGK8ue1dqamk58cd5xvqFXKVNWanKBv/nbvzF/deONWWnkCYOw2KP5gQ980PzHf8T72aQBwB0YWLhggXnnLe+yijXzU1RQ4DiPJ7w5cy4wjz8RP28JcH+mChZn2shnoxOBAr/xppvMlVe9wby45sVOKzVx7K+O98lrZLPRiSCv4QCXq6+5OhZHutDRBVYEGinM4zRauV585AXx0sli1IFSR6GSjmw03OnAdSd4zI44mDvkrzaMXlCncO2n9bqrcN0JMlLDvd7Df3woabyUOfU6k9XOrjtB3Bje/b3vSbxLL7xQ7nnBOwzfTN0nuu4EMe0yKmVuOtGImHiVL5/TxXRbrq+8/LJ8pm7h5xZLACe4aIeFkSOntBSXlsoIDiDLNp1TtnPHqlk1lyKbnx9xL8BnwG8iY2XlGUc2cjJPXkyWODG3nqyri5OVdBUVy8pd7dAg22a/FxUXy++KCIeIrHLgL98JQ2UJ+9iRo2JyJhyX77QpnV2Y9jR6lTL1AuU3b37m7ucIQ50dMBJL9ZLjkOGW6CkymWDUmNHmW//2bQmP0XaqeHGKgDzPZYorr75SlCQg3lRxI8szmYK8hgNcgnB24W6NoUFUX6vqd9U7qs8V3K0xbFWhsaSRVv+r3ZUOP6BMRowYYfr2LZO/03M8l6dAeU6bPl3i5VqeIxeUXhAv23A03vm2s9tdWLR4cSzexfZzrsCCG8y4nOiCqfPCiy6KmXxxQyomWDsivWjZRTFzqZprkVXT7PPPPRfbR6pmXO4lklXTbkzWxsVe0KlWwbuyaoLlHqNK9hYjq+Za7mu6vLLIEJefLHxxvB8na8OtGD48rXaju9CrlWmI1xe8W2N6Cu7WmPMJQ4cNk7/Hjx83JSWl8rfu5MmEo6ZsgXiZ/sCVH/FyHT5yWOLtW567OXfOUR00eLA5aTlqvCxomzBxotzPFTCFEscmO4LSeI/ZvM5lvNOmTDF1djSopk5MoHg0am1t7rTfk4VK7n5P/ublWdmW5phHI4A7QRYA2YDiZPnOfX5XEAdxFdhRLXEDZImH+HR/K7+xPWnAgH5xe0NJd3v7OZnOcjmw+GmAVYyuO0HCwqzr5Ut4dFzOR0UKer2j+1/96leytNsPV151lRlne0+KH3z/+9FP8WB/0403RhwiB3V0z3zfo488Er0bj1mzZ5tl0RPnQbI0chwZSMfRfSIeQMMDq21vVk1EXmga03F0nyy8ruR16Og+ORI5uievtF64ju7pvScCW7pAJo7u3XhdR/fqazURHn3k4Ywc3bvxuo7ug8bbVUf3Xr7q6J5FO8mAF59sOro/eLDaNNrRHtCRJaZORosoPB1ZonD0MytxXVk+j7fKntGsV3bn9u1yODeKi1EiezpRnsgyAsbcqkejbbD5r7I6ysTJgivLCJK5zkM11bLI0JV1OWC2VVn9S7q2V1WJ433C8uPLArdpU1Obebvb0X14aowH4akx4akxvVGZ7t69K6nvXXzzTpgwMevKdOf2HWZIdEScCIxGCvLzsqpM04k3m8p0u41XtwIlAttTpkyZnBVliiJlL6aO/FAqR48clTlTXRSE0kExApSjjjJVtk+fPFFIAAXGKlwWyrmy7FdlHpORonZSkEVJtlsVQUdNR47IMtJlSkxHjn6ypGvDurVWNj9OlnQxuGAhkytLhy+/T77lOjol3yAKNVSmPvBTpgNHDTf/9dN7zZnTzWbOhGly3wsWCbmHUP/wv34oL6sXe0/WmsYzzea6i99gSvNsZUqhTH/+599LZVwy0d8pPpXGPfCbfat++zUP158wx5pPmTGjx5iLpsxNqUwPt9abp5592gwp6W+G9+vscJ6FGO4h58/acqMy+uHVw3tsJc8zl8+50Fx1ZcdiKvLWq0w1r6kqM4ePl/tepJvXlyxfaYYX9QuVaRKko0yTjUoVNFbZVqZTpvq/e16sffH5rCrTdOLNpjIdM86//nux3zb22VCm+KDFF62rIFlhy0paVZCqTHHHhxeiOFk7msM86pXF7ST+cFWWESkHU1SOHBWnIBkxYsZl1KnKlFGmOsPvquzu6MEfOsonXTjep41hhJqKb6hMo8iGMt1cf8B8qO4Bc8GvjpnGF/fIfS9+fP/9ZsXKDvJXX3mV2bFtW/RbBwbeMN+sW9rHfHznNHPTJdekVKbX/eiTpmliP3GL54dPfebOOHPrxz/2d+Lk3Yt+c8eZqqXFZu7A8eZb825LqUzv2/u0uTtvrZn3P0dN/abOR2vhOuzhRztMz5hav/ZV/9WyfW5faA70qTffrbjZvOtd74zejeStV5lqXk/ZYUz7f/kvSQ+a12VLxpvNNw4xHzq3yNw6bmWoTJMgqDJ98qmnzISJk+R7MuzetdOUlZZkTZmWlJXL/GEQtDQ3Zk2ZvvTSK2nFmy1lOnrMWHO2PZjf3QI7GqysrMhYmQJVqJhudVEQSgYTKHOgaq5FgelnPzOvKwsw3Y63ypfDuFG4jEgZdWLGxXSLcqSThvJSMy4rbTHXohi7IksHnrl8ZIlX04UixfE+YdHpQ6Em4nu+mnnDBUghQvRyfPrOT5ubb35rygu5bOKDH/qAbzx+F1t3soWeivctb73JNw6/C9lsIeJOsDWmWAAKCvPvxvXrYuZalClKbJ9Vkq6LQD9ZLuZA2e+Jy1A17RI+8TByVBMssjzH84SjI8yuyDY3NsVk3XTpCTbc53fC9OO713ILokh7Ar1Wmc6dNMPM+81J0348tYP4VGjdVithYXoMgll5I8zEdc3Rb11HY81xM3ljq6nc29kc6odhDUWRkbh9LlOUbjhmLtjKXEbyeSdAXi/5Y6M8kzEaWoUDXEJ0DTg7YNTE33Pn2mTuOeiFE5CuQuNljy/bYPzCT3TVnQx2MlIiaLzl5eW+4Se6iHfUqK5zJl72EKNs/MJPdmUSrxeU23g7WsNEChgBYtYtLCoxe3btknuA0Z66CEwl+9KmTbIiuri4OCbLX5RWu5UnLAXP8TzhEB5IR5a9p6z4Zk+4ysalyyrJWLj2d8IkbJdDeXlfM3169jpH2UavMvPOwRbfr794BVm3foP5/vfuNk1NiZVpUNMjwBECjhuuveYq6Qmy7YEXCTPvG66IHHLMkuzv/+CHckLEBtubSoSgZl4FzhDe9vabzeJFC4Qf8ajJi3Rwr2r7NvPLBx40v/7VL6NPdUY6Zl6AA4XLV11hPv3pf5CGirjUzLsiuthJ8/pXDzxg9u/bJ/f8kE5eg+tvfIt5y003mMqKilheh2beeCQy8+YaicytuUZPxZvIzJtrBDXzusDke6i21uBkQUeZagJF+bClhREpygeTLot8/GQBTjZwRI+sLP6xsiza0pEjplmOZiNMNdei3DDjEi7bYoLKtredtXHFy6JI3XRxQHirDZPVxIxINV10DNgSk+6INDTzJgGnp+DnktVdnGOYTJGmC8LiQGsc3ROPetgB+ARedfkqcV/Hvr1kirQrILxjx477+nS99a9vFVd14OWXIyv2sgWU44ED+yVePZlGgeN7OLNvj7xOpki7ArhseXVLp7wOEeL1DiwAdCzWrtsgc+L4ouU7oKPP6nv2mKKEAIqLBTotTU0x0y5Ki3nlkZWVnWRlv6dVWihSgCwKa+rkyXH7PVFo52znhrB5DhAO4VWMGB7bygKSyTY1NMYUKWB7C3te2c/qpqvFKuICK6/7W5EnDuJSRUrnnvwgXyJ5s+68OSi8VylTRmy5bnjXrVtrHn/8cRkNumD1bi436XNqDO7ovPyItys+PdMBDtq9cajf1L5lZfI3F1i3dq10HjSuECFe75CR5+HD5qLly8WjEdvw8EXLdyxE1dHDC7DoqAmUUZ2umGX1LOA37p1uaJARoMry+9ChQzrJVtjvtK9lpaUxWTk3dNEicRjB1j3Ab8SN2fkkB7BHTbOuLOkB/EXBTp42VUbJyOqIeeLkKaJQXdnWlhZTVl4eJ0scOjWBEh03foLkB/kSyZvlsjhLOxs9iV43Z6rO13MFNhmvWrVKKpaL6dOni9PqXEH9feJa0AUOsmdMz63zdjoJXtMaju65N3ZchyOGbIOTTijP7vanGyLE+Qg6lQ2NjTJK++1vfmOesJ16vZ55+mlxq1dTUyuyesbpc1bJYbZlRMpzmFhxGqEnuuA/mEVJmFu5LybY2bPjZAmH8OLD7TiAm7aQ6RfuubKMFllZ65XF3R/32NLCCTaMPjHnoiS51LSri5JENrrYiHSprLtqF2WJEt23d19cvnABODJq7Un0KmVKo39FdP7y3e95j23wIxt7swHC+uznPmcWLloo/lZdMErFmTnxM0fw/g99OPpLdkB4FRUjxKerV4nDV5U4nLMJ9oa+4corxam9t6MAVzgD4s2GY38XhMkJL14H+yFCvF7BUWsoE1B3ss70tZ1NvQ5bZQMYja2NzrWi1M6caRGvYgq2lgyw14kTJ2ImVMylzIXm9+kjvyv4zHxmPzsadEG4fgdwc08VqQJl55WlDWM0jON9hZp4ua+fAXOnrc3Nsm1Gwe84f+gXPeoOkE7AtJSbL5WVlXI4O880NGRv2q8r6FXKFGVDww9wlP6Vu76alUaeMAiLBTQLFy6MKREFIyd1Xj7MVty3vu2t5kt3de20ExcocBbuEN6YMWNi3Fxw0oWm56qrrhT5bHQiUOAfvuOjNt7R0nnwjkyJUzsV5DWy2ehEkNdwgMuMmTM65XWI7KGnzOc9NQfeU3yJNytx53U0x8OtcuHQAr2wUMUQPS0Hs+e8+QtMS0uLrJbFBHuopsYMtm0UClbNuPxlFDp77lwZoSLHpXtDMStnM+8YRbJQh4VEmG/VtMuIE6cSasblN1lsdPnlMjJVWd1nivkWs/eaF9fGTgNqtvJuviCvYA9rT6LXmXldoPw4aT5TEIa7EjUV8PQzJtrrywSlZaUSr+s5KBlYHIA8z2WKwYMHipIMCmR5JlNoXsMlRO7w5J+fNJ/61KfMA794oFuVG/F+9zvflXn47oyXufdvfvOb5u7v3d3lQ7i7AuK6++675co03qCqIM822yhSzJ6MyCZOmmRHZadlhMaJLoxI1Yz71BNPyCpfviOrJl9VpNzjt207dkRDzwySrqj3NzXjvrxpU8y0qyZf7rn7SFVWFanKirOK6PmxqYBJuydNvb1amQIqEudj+l3lbm/OgsO//eQII10Qtl9YXN69m4nSSHq6gkQ8vOGRDj85riD7S71IFl4u8zpEeqBR/8EPfmAHMH3M17/29aSHhGcTxPv73/9eTvtghTgL6roDKO3H//S48Hzk4UfMCy+80C2jVOL43e9+Z1Y/u1qun/3sZ90S7znTbkeq5bFRGX/PtJ4x+fl94vZ7MpdaFN2uokAWEypu/9xRHTIowkzSz/PGhu2mi7UgnEeKNyMFn7nHb66sbu3xyrIPNggYnXP+a08hdHTvQejoPnR035v3mdIY3n///eZ5W66c8YpSe3nzy+bvPv53gRd6eeteUDAavffH98oZsw/+6kHxSc30SNBwuhrvH//wR/OFf/6CHK7PNrY7P3WnuetrdwUOhzrelX2mjML/8R/+MXbA+g1/dYP5+je+bi69LFjbRrxA25u1a9fKgh3wyEMPm6uuibyD4E+PPirrG1A6e/fsFqXBHCsHfXMIPN6MwAYbBit1UaSy2MiOOjGf8p1TY3RECtT0ipMFV7Yr54XqSBnzMSNfwtW/jDDVnSDQEakrS7p0RKqycGW7DmlhJTMLsH5t69T1ziJN2i+Aydfbhob7TEOECNFlrLOdrl8+8MvYHD9/t2/f3mn/crZB+CjQz/zTZ+S7zrezWCaXozVGwz/5yU+EJ40uCpTFdIxUc2lmJuw/PfonWefAYj0uPtOB6Gq8bC3B4XwycASijr5Y/MOCHvzrYq7lkvnHQxHH8ChHwF/OB8V1oJp21eSLIs23v7myVdvTM/lKJ8AqUoAyZH/rqZMnZdEQ30HEjFsrK3zVtMtvyNTXnZRpnzhZK7dwwYKYUi/v2zc2ivUDihlfyD2JXqtM//Ohn5khty8zc65dLt52/K5nnn4mKh3B+957u6/cog++ScL6xFf+KSqZHKMun2NGvGWRb1hcnJji4rP/9DlfuUvffb2Es+BjfxWVTI5bvv2Pkk6e8wsPfi5Ih58c19T3rpK4MY2kguY1z/iFxRU0r+e/4woJCy4hsgsacbZKoExYgY5y494HP/RB+ZwrhYqyfOrJp2INH/Fwj1E1ih0FnysQV2NDoyhRFCvXyotXmsceeyyn5m3y+U9/+pOZfcFsU1VVJfFeZEdO3OfqKhiJ6Z5OF21t7RKuWnIAI9P606dldKeKhsVGxWWlsmeTUSZA0bTZET9HrOF8XsFnTKtWI4sM4C/WAUaCQTpBjEjz+uTHFjuRjpMnTphT9fWmtKQkFm4kLXmsEoqlC1m8KNXZeOSZKAc6FOw3xRqnmDYtsg2Hsvbilc0vy1Yg70rj7kavHpkev2Kk7bIUids6v8uLgwf2+8uVFUbCCojmieWmfuEQ37C4qIwuONrITw5vSoRTPC1Yj6p8xGBJJ8/5hQc/F6TDT47LTBwkcQeF5I99xi8sLi8S5TVL9AkLLiGyC5QHIyOO/7vnR/eYn/3Pz8xn7oyMFIuKi3I2SkRZ/uLnvzBvfOMbzbq168z37/6++exnP2uOHDkiygYlkItRIooUszKjYEaJX/rSl8xXvvIVU32gWjoUTzzxhCi5bIMwyefb3nObrecHzV1fvct84xvfMOs3rDc3v+Nm+a2r8dIhwVSp+84VpaUlVpFiwozMyqFIx44bL+ZNzKSYbHXVLuZQXdCDYlbTLvf5HTlXVhclocRc2VSrfNW064arpmO5N3SoHSUfkjSoaTeWLhuXLjZCVjkwpagn2BC2zMNGwUi8onJE9FsHbrjhelG2PY1eq0zLC0rMlEdPmLO1mTcOZ/adkLBK+theWgAM3X3GjHwxsckhKFpOnjaj1tabgpePRu8kx5n9J8xkm06eyxSFm4+aMesaot+Sg7ye9nidPJMp2utbhANcQmQPNN6//c1vze3vv920tLaYNWvWmJdsY4WC3fTSJvPu295tfvTDH2V9lKjmTpyN5Bfkm9XPrZZzdP/8xJ/NU089JYrugQceyPookUaeuVL2KjMX/KfH/mTW24YXZf4X26hfdfVV5sUXXsz6aJx4UdI0+Jdffrl5+OGHJR4WID36yKNm4YKFMnrKdBFUqbNHExQXdSzC2bq1ypw+3SCmWoB5lBEei4r0UG0wacoU02rrAmlVWcy44k7QdmpVlt8wt/bv10/MrbFw7e9btm715fHcc8+Lb28FssRPOtRcy9+W1jOmsDBf0qKIuBNskfOXXVkc9JMuDlFQEAdxKbz5QloDLPvpFvRaZTpr2ARTue2Mad2b+UkmDev2SFjXrog4hEiGI0ePmve+4a3GbDwUvdN1kPZz62vMG8cuFc8nqbBqzHxz7oldWeHc8sJec+mgmabc4zbRD+T1JecmyDOZonlLjXCAS4jsAaXB3Og73vEO+e7dczfUjhJQMNkeJRIe5k7mLMtKy0xzU+Q0JU79YJRVVlZm3vTmN4miz+Yo8emnnxY/2uzDBviWdUG8b3/H28Xcm02F6p2ThqcLtn7RgWAxFouhsoZocTIiHTfBvovRPZyAESH7St09nJhXGWXOW7Cgkywe5Fjgs3PHDpFlqocVs/0HDhRzK89yn7CIyztCZbRIuITvyhK/u7+VOFtams2IypFyKozKMiKdOHlynDtBnhk0cJAskvLj4I5QXfT0dhgXvUqZ4uSeFXOcv3fvPfd0MmtmAsL68pe+ZL7/n9/v5Hydl5G4eUGoCD+4+3vRX7IDwtu4YaO54yN3yNyWiyWLlsh9AOds4nHbm2eVINxY9emC79zft3evxItsNkGYDz/0sDjxz4Up7vUENXeyghUFNnDAQFnMwqht6tSpZu6cueKS8tOf/rSYILM1SlRz552fuVPixTS5bNkyMbES/wLbCLIw5wv/8oWsLoLi3XzkkUdEaRE+YPX1/AXzzbz588ziJYtlzvgjH/2I/JYt8zbx0nmAn64UvuzSyyTOBQsXmCuvvFLuqUexTBZB5UUdMyjwarTJtj2YdhmNqbn0L08+JSZWRpyM7tRcqubaRLJcKNAdVhHh9IEtazyvJl/CICzuIasKVU27hEv4xOOVJQ7iUtMu91ltjKy7j9RNl55gw30/Dh0m3867cTvf6Rn0KmXqdT6fC4wbN1Z6lPqSKnIdNw2R34sX5/kkR6Ch9YsbzvgqzhU4VgkTmS5cCdE1aGdEG3i8Sr3lrW8xt9x6i/nWv33LLF+xXPKYi98wh2YDHI5wqOZQbOUuYRPX9ddfb/79O/9uLrzwwth7hJmZOdRsdJyoq5hU1RUlvFeuWGk+//nPm09+8pNm6YVLY9uAMD+/+sqrWRklEi/h6KiUOObMmyNxfu5znzMrV66MlQF5gmxXlakXjMB27tgZ/RYB5lscyXuh+0hd+MlivUCRMjjxglXCXmC2b/LIEg/xeSEnyNg4FYw0/aDp8nYe/DjguL+pqSn6zYHn2Z5CrzPzUiiYcHIFjhyjB+Z9CbivL0ou0NraKn9xMO+CU2NyrWwwhfm99DSW2fAwlQj40vTyDZE+SkpKJB9nTJsRu959y7tl8dEVl18hl96n8zJkWPCFZ6lQUVkRF+8dH71D4l2yeElcvFg6cCIRdK9rKlz3xuskDg3/hutvkOuv3/XXwl3vszioosKmMQuHRdC5HDRoUBwv4iJOjd+9P3HixE6d8kzAlhM1gWIWZQTouuJTsyijOR3dJZLlOnniuLloxQozduxYkeV5HWXOdlwPIouF6oabbrLhDDVP2PaCcFVWR6gqKyNSGxdxEjf32erCiNSV9aaLRUncT8YBf7znK3qV04YjtRFnz/TSam0v964vfyV20K0f0jmwmoL64Ic/bB556I9iu//OdyNni+K0YeaMSGPAvZ/97Odm/fr1SQ/7TvdwcDwDTZ44yTxk49YN4LqBHVMRJqMBgwaa1atfMN+zPf5ESPdwcA4lv/Tyy8z//vSn0pOmx61OG5obm0TBslqQvP7p/T9Jeo5ruoeDf/iOvzGn6k7I0XN3/Z+7JK9Dpw3xSMdpQzomVBRLsg5aOs4TGGkGPSKwp+JFoSVTauk4beCdCDraDBIv8DscfP2GjfLuucBBwajRo82uHdtNUXGJrIJV4OigT58+Zu78+WIWBSgmf9kn7NDPmEtWXR69Ewkbh/ecP0r7ClBiuP07cfKkue5Nb5J74CnbfueZc3KMGmZZgOymDRtkDhnzrQIFWVhQYEZUVsbJbrRtaGFRseGYOcUaW4c5Vxp/w4k4kE5vvrjOX1yEThuSgLkIdQaP+ebKq6+JW1HWVRAGYb3v9veZv/v4x0VpuqA3rfemTJliLr70EnHYnilKS8tEkRLeQvtCqSJ14Tq65y/yPJcpUKTESycJjzVqulKocpXPNq+R5ZlMQV7DAS5XX3O1KNIQmQMFFPTKpqWDd8MvDr+rp+LN5uiQsPzi8LsyiTfRGAcnC0VFJWKGRSkBFA77RVFkrjtBP1lGjrK7pk/8fs/2tjbZG+ru9yQs3P4xt7p/3z65x284mydcwlcgS/ykg/TIPfv3TGurOXPmbJws+1vZ80rHyZXFOldYWCSOKRR+HDqh/fxYzdtrRqZ/ts+MqIjuBW0/a973/vfLx2SjvqCjJRr3b/3bt+Wz153gunXrTd9+kWOLsO3PnjVL3AnipOC2W26R+14EHZm6I0k/d4KPPPpYrLMwYtgQ88Y3v1k+J+KRzshU0+jnTvAFy7v/gEGRG05eJwuvK3ntdSf46qtbTUNTi3xvaW4yn/j438rn7sYXv/QVM2RoxPXZgP7l5q/fFVkh2934+jf+1VRURhpk6t4VdiShh0PnChzEXFNTE6t7R48cMe9/33tyvmISX7Ns9+iJeOvrT5unn3nWDB0WKfMJ48aYEjsSyunKFlrdaPh+I1M/t6UPP/SQmGRZ5IPywQzLlha2o+hCHUaoHGuGj1usba4so86WpiYxqwKVRVFhUmXkGCfLiS52lIkSe9G2E33tyJXPs2ZHFgqhjLEMokBdWRYZsbqa7S86UlZZoOlSWeZN2RKjHOTcVMvJlSVd69asMZetWhUbtQLC2Lt7t5k+vbNP3nBkmgClZX1liTXX2bOdJ91zhebmlli8eProTgwcNDgWt86pdgvy+sTi7c68BnQIuLriiD9bYK+dpqMn52gocy0H6t62bVXiJi6X1/333Sdxa90rLikVX79+stm8tlVt7xQvitRPNpvX/ffdL/GWlJbF8nqfHWVVbd/mK5+t69e//rXEmwjnznVeALRs+fLYlieUGQoP0yxzkapg2MNZFI0DJQRE1r7TKNL5izoUN7LiBN/+piZY+Wu/c5/fAWFPnznTdiz7y6pilSV84hEFHTXtIsv708+214VFRbF0Iav7WzVd/IbSHdA/fn8rK3eRQ97lwJyxyihQ0n6KtCfQa0amz7+4xkyZFllEcHDvbvPBD39IPm/cuMmcrvdf9j5z1kwpJIXX5Z2CE0/0ODLvyPTZZ58zM+dERm61NdVm1ozp0mM8fvy4LUh/V3wjR42KO1YtWRp1NOc3Mn1hzXpp0EFrY7258aab5HMiHsAdHe7atdtUJ5jf0TT6jkzt5ZfXycLrSl77jUwrx4yT7+T1rX/dMyPC7/zH98yU6ZF5o8b6OnPD9RGLQHfjy1/5qll8YeRwA/Jj5oypMnpj5FZuG9HTuJLbt0965zhBV9eQNDi1tbXm0KFD5rD9C25773ttT/0B+W2I7e3zGysjZ9pGEicDtYdrRZZRypKlS2N1D+tCXvsZM9OORk4cP2He9vabpc68Go3rLbZOcvQXaWA+T9NEWvjO/NavbLx8HmdHPxxazShj3LjxMjDbs3ePqbfPTpgw0QwdOiQu3iWL5ptBtk6RLhpr4uVZOBAu3/nMHN82q3g3b94sYbECnVXFbPtiZDN9+vTYb1defbWpOVhtjp84LunmhJtVdrSzxo4EJ02JvGtHa6tlz2y7VWgrVq4ULsRL/WarEYCvpoHfAObQYbYTyPc22wktKSkWM6n+Ns+O0kgTo25WNrPqGfiNTLFA5BcWxRSXYu+evTK/28/yZqEOacI0y5YWsHvnLqvECmVBD3tJUUYoHL7jOIFRp8rqAqKd27cHkkWZNdm46Xi4sjzLqHPFxRcLd3wAs4+U9Ok2GF1ABFxZlUkmO2fePLNh/QZzyaWd57QTzZeC7h6Z9nplmm0EVabZRjrKNJtIR5lmG6EyTQ4/ZfrgLx+UjguN6cYNG8xG28jQsH/z2982q5+NdGD4zvzVbtv5oXGnjL/+zX81//jJvzcLbH43NTeJEuJCFqVC3eJvImU62ipwwkF53h/dbw2++OUvmaO2weNZ0lRrlfSe3XskbLD0ogvNl//li7KIDkU7atRoUU4zLAeU2xW2E8CzS5YsldGYV5nibYg9iH91w/WSfmQxB1626nLzwnPPm9FjRosyffyxx2w7tVqUtii9aVPNL3/xgG3UJ5m6k3XmTX/1ZlO1ZatVBKWijGi02RbClrTFixd3UqZ7LYdx48eJ0v/C5z8vfKbYdF0wd46kG9CB+eY3/tVst2l9y1tvEiWOUidP8UKFKZf8Z+vJCau83/Gud4kShQPhsRcX+ClToHs6vSB8PC61tZ0VZxwnT54UhYrJt9jyGVERcU+KkuQ80DY7ylQPRCoLUI4DB0bOKA4qi6Xu4P59nWQp99MNDQypbRmMkY4EsjXVB2WbC47qNV0qy9aXypGjEspqPabjf0FUqbugHo2w+ZtoLr5XKVNW1PGC4LzYBUHidDjRBHw2lOncVReZe9c9ZM5uO2KWVPoP81kk5I4QcfzOpLcXrzYfMs3DiszVlfPMsILylMr0P1580LSaNnNFmX+89Nrwj6pgYzu9US/2nj5qavq3mLFDKsxVI+alVKYNFcVm9f5XzJCadjOufKjcd4F7LhZRKXDrRu/RDy+27DPtpfnmhhGLzFVXdiym8lOmsbw+etosKfZf8BU0rzee3GPax/Q3y8bMMpP7DA6VaRIkUqbDhg+TRpm5MvZ5ApQlI8AD+21DPaC/rDjNt/WBbWR8R+GgQGigkOPoLqwrzMGx/el0/WlRTImU6UE7mtPVs4Sp8X7unz8vYaK4dA6QNBDXAttm6MgYVFfXSONMI/iGq64UE9+zTz8jnxMpU04kOW5HxCi+Eza9xIWyRLkSDmDEfNYqFjoWKHQ6G/BFaYE9dtTD6Bv5y+0olM7Evr37xMlDMmVKHjfYRp9RJSNqFDTODRjN07HYvXu3/IajdRboEScdHO1IkFasV4wUUQaHaw/LaIz0BVGmbNE7YEeoerxaiA6Qt/tsuSbzyZtMmZK3W7duNZH9ra7+OicKnAVkXuRMmaJIx04YbwYMiPRsvDiwb59Ufr99ZdlQpmb8QPOhugfMBb86Zhpf3CP3vQi6KGbgDfPNuqV9zMd3TjM3XXJNSmV63Y8+aZom9jMjv++/9SPoAqR+c8eZqqXFZu7A8eZb825LqUz/dGaHuTtvrZn3P0dN/abOrv2QDboAqc/tC82BPvXmuxU3m3e9653Ru/7KVPN6yg5j2v/Lf3tM0LwuWzLebL5xiPnQuUXm1nErQ2WaBH7KNBdn2rr4t//7f32V6cc+8YmoRG6AZcZPmSZrvLKBf/vWt3yVKd6jvFswson/9+1vp1SmgA4II05diBgiokhfeXlzQvOuIpEyRZFWbauKnR3bGefMatvJw5OWi5wpU/cg20R47tlnYhXGRahMIwiVaahMk8GrTGdMnWLLJzfHqClwMs4iE1eprbpspXni8SeiErnB9OkzZATtxnv9m68zv0mxUCdT4GFsulWcrjI9d6bZ7Ny5M6eLefv16x8baCRTpoD50/0HquPer9crGNnjbIITZFIhkTJdY3XJspUro9/8wfacyhEj4kzIuVOm69al7CUnMg9nQ5le+9brzS2f/JCpfmWnaT/qf4pK0AY+f3g/UzljovnuF75uTh48nFKZ/ucj/ysF0rzFf5tCUGXaXpJvBkwbbS5eusy849I3pVSmx0yT+e79PzR1VQdMn+bOJtR0lGnRhKFmyqwZ5u9uuM2sWNExL+OnTMnrO77wj2b7K1tM627/k2PSyeuyysHmI7e8z8weOTFUpkngVabdlR9u3aMMP/rhyNaoXKOn4qXOu8q0wLSZVY5Dg1yBeEEqZap46qm/mL7l/eIcHbxegImexY+TJ0+S7VtBkFCZplCKEZwzzz79dJy5N9VzXd8aE2CjbAA93WX8+qe/MMde3J5QkaaDtsNWUdmwfvpf98upEDTsibBu/XpzevOBhIo0HaAQGWFWr91mXrGV5fHHHk/qu7Rq9SaR91Ok6QKleOqlveaZZ55NGS95jWwiRZoOyGs4wGXLq1skbswuIUKESI5LLrnYjKysML+1HfPf//a35i9PPSVzt3gkeuLxx+UvC7G4x17NyL2n5O8zVjFwn9+Rc2X5TWX8ZDUcV1bDJR7uR+51pIN77rMqq+nqCKez7JN//nNM9ne/+a35w+//YJqbmszFF68MrEiTIbLtKLlukgMNfOZNk6HLyrRyZKV5efPm6DcvzomJd/q03O3/2bVzp7ieyhYIa+2aF+U8xDs/dWfCBp6DuZO51esKCI8FEl+1I5FkivzllxPld9fAFoYDB/aLq8SvfvWr0budQV6rB5RsAS74O4ZzUPdsIUK83sHCzhXLlsk+7IsvuUTmdS+59NLIOZ/t7WbVFVfIPVYBT7Xt7/BhQ2TBGFt8uM/vBmXiyPIb+6kHDxpkKitt+K6sleNgcralqCzhDRs6RMInHu6zsCsiWyrp4R5/2WJEGlSWa9HixeJxCU9urizf+5X3lRXnKjt/4QIzccI4M3t2ZL9pNoCSZE6UbVF+2L9vrynvgv/3LitTVuqOrKiwQ+G/2IQ9LVtK5LKfGR4zV5pN92GvdahTBibXXy9oZCl9iBAh0gLtaqVte5k/BKzYx9tQsVVk7NEEtCPsEz1Vf1ocILiysno1L7U7QcIqKimxYbfGZAmHFd/17CcmfEeW+PFc5Mq2tbeZOjswOVxTE5P1cycoK7PPtZnWM2fkd4D8yRPHzeTJk+V7NsHion27d8frLnuhz+Dgt3A2Fbpu5rWgUNHyJAy7v1z2c7rD466AuYNsg/1RgD1xiToC+QWFsQ3F2YKGxwkxXh+5LgYPzm680hOMLuO/gl5oApDX2fAH7AIuZbY3zKrJrlTcECFez2CEyj5PVkHjOAGnFjiCpy1BsalDBkZ9elKLK8vFZxzRqyzP60kthIHDDEaHMVn7vDpyIFxXlnh5HmcMOFpAljiJm/sldqSHJdOVddOF0mRBq8th3949gRYadRW0O3G6y17orq76VM5ImfYkvvyVL5lLLl+VlUZezA02rB/+6L/M1VdflVShXXLxSjldRhVvpmCxBeHNnz/P3Hd/xJVbInDYsS5IyhRU2L+68Ubz1rfeJM7m1Zm+H8hrZHkmU5DXcIALcyA48g8RIkT6QKFWVo6IOU4Ao8eMEWcI7EFmry9gTyv+b1tbW+Jk+VxiR4iMUlWWvzxLGO52HGRbW5vFhaHuo3VliVcxfuJEiYs4VZa992fPxMtqupqbGq1iHi/3AL/jICKXijQX6LXKFHzgA7eLv8pMQRiEBcba3laqnslVVuG+/0MfjH7rOlAq//LFf5HwmIdINUKbM3eOyGdDoV5/ww3mXVEH7sSbijOyPJMpyGs4wIV5n672AkOECIFCHSkjVMylmEUZKY6dMMEMGTpURncAsyuO6OctWCAjQWS5Th4/boYOjzj3Z7EP4BmeJQzCIkxkGZHOW7BQwlEzbiJZ4iAu/Pu6skOHxctKupqazILFi2Pp4r6MSJM4Yzhf0auVKaaGbBxeTRiEFRT0yMZbpZsNEK/2ClOBnlw66UwGvOjgsSUokOWZTKF5rT3WECFCZAY1+XL2KKZX2hNGgliSOBlGTbu8c2paxTvUwMGDRRZTLnjqiSfkGZ7lPmERppp2eV5NvoTrJ0vYxIGsmnwTyXJgOCfYuOkSr0a9bESq6NXKFODei2O9/C6cqrtYtHiJrxxhpAvC9guLy3viSaI0kp6uIBEPb3ikw0+OqyunsiQLL5d5HSJEiOQQ961WUXXGOTGlKhj54QIR86wLFt2w2Ajl5wKzrheR8DpvLTmXlydmXAVx4ZyCE2tcnKqrkwMAWISEjGLAgP69ckSq6LLThkwQOrrvDCbhUzltCB3ddw9Cpw2h04bz0WlDEOB+ECf0KCwdkWJORUkyl3mopka2qQAOK+CkFg7g1pGjK6sjUhSefmalrcoy4uTEmP4DBsRGpCrL6PPYkaPilxhZzLw8BzRdaj5GlgVI2R6Rdrej+14/Mg0RIkSIEBFETL6tMYUFUGYFBYVm147tokgxq6ppddfOHbJDARmV5TsKVk27aprduH6dHASusmry3b1zZ8y0iywnzNSfqpMDBVQWk+9Rq1zFtBtNF7L4HSa9vdW066JXjkxPnbA9p3G5cfyMowndFuM3MsU/ai6cdoqPUOeQW+/ItKXhlGyozgXcnrF3ZJrLvB41aqQsoADhyLQzwpFpODLtKnSEisJiBMicKorWPdaNRUeLFi5IS7bKlsvYcZHDyFWWA8oPWaWK4oyMTPeZqVMnx8ky4q2ILnZyZXO5/aW7R6a9Upl2VwPnp0x7okED3fmCu8q0O/M6VKbxCJVpqEwzAUqy5tAhcfCAclSgJAHKUZGOLEqyoaHRVIwYEZPFY9y2HTvk0PppDDiiQJYD7adOnhwbpHTI9s3piDQ084YIESJEiIyBolu4YH6ccgQoRlc5gnRkUYCss3BlUZQ87ypSgCz3VZGCDtncKdKeQKhMQ4QIESJEiAwRKtMQIUKECBEiQ4TKNESIECFChMgQoTINESJEiBBZwaOPPmZ+9eBvuu369W9/b9at2xCNvWcRKtMQIUKECJEx/vCHh8zQERVm/MRJcuX1yTdNTc05uYZH42HrTVNL63mhUENlGiJEiBC9GI8/9rjZuHGjHOG4bt06+ZurS8N/5plnZDubi5N1Ha4Bjxw5EjlicdYsccyAh0TSIlcAAEV+SURBVKRsXITHxWcF8VTXVEe/9RxCZRoiRIgQvQRb9uyQywVbTV595VWzZcsW88rLr8jfXF0a/oH9kUO9E+Ho4cNm2LBh5vnVq80XP/85c/+9P87K9alPfiIaQzzOnIn3NdwTCJVpiBAhQvQwGOUdPHhQRpmKB3/1oNm6ZWvs+vw93zJXffdjcn3k7i9GpXCMsN1Mnz3HFBSXmdnzFsjfXF0a/uhxE0xV1fZoChJj48bsml8P7N8vCvp8RK9Rpk2NTdFPxtTV1UU/dS8aGxuin7of3cmZcwgV3RlvSWlJ9FPP5nVrS2v0U8/VNS96Mj/wWNMT6M54z57tmToPUKLvvuXd5s5P32lefOHFmPJEwd56y63mhutvMKfqT5n/3fS4OXTRILke39phYs3L6zgVpruAaTUXblWD4OSJE9FP5xd6jTIdNHhQ9BMVvy36KfcYPHhw9JMxffuWd5on6C7UdWPD4h6n1p15XVHR4VElr6feVIv+AzrOWvUeVdWd6FtmG6woerLuba2qin7qXnRnvMVFHR257nzXAIrzo3d81PTv199s2bpFzLYcmk9n4oYbbjC33nqrKNmhbaXRJ4wZUNhRNxJh965dZvNLm7p84UZ2zYsvmF07d0ZDzBz/9u//bn73xz9EvyWHymbrDOdcIzTzhggRIkQPYtUVq8wdf3OH+c53v2Puu/8+UaQoVL7f+U93ysXvX3rvx82lawrl+j/v/Fj06c7gmDWOVsR5fcXI0V2+Jk+bbgqLisVv7/PPPW+2b09t1k2FlpaWuDNMkyEd2fMBoTINESJEiF6Ay+cvM5dPXxS57Gc/NDY0mMOHj5iJk6eY0tIyuTdu7Bj5GwT9rRIfM3qUGTIkYpEbNXqMmTZjhuE8FI5EqT1UK/dDdEaoTEOECBGiB4H5/r577xNzL391rpjPLEjiYjHS2/75o+Yr9Y/LdeVn3iMyXuzcucNU2pGti7KyDvNwMpSVlsq1/8BBU1hQIIrVxaDBg2XUmwnYMpPXJ5jaUdneMjoNlWmIECFC9CCYD2W7yUc/8lFz0CoyFiShYLnHoqQ7PnqHnAm6qW6vaRlZJldVffb3VY62I9JDtYflM391dOqi7Vx79FPX8I2vfc288203R78lh8puefXV6J3zG71GmbqrebsTZ3pwAUpP4Uxrx8rGED2H9gwbrhDBcbat5+q8LjZiXhRFyvcZ02fIvVvffassQEKxjjrX3xScaJVrWr/IofrZxKHa2pgC5e+xY8fls4v8vHD8lQi9JmdKA5oqsg3MHa83FBYVRj+F6En0CRuubkNBfs/V+RtuvEEWG+lfFh/pAiQUrC5A+s2X/tN8pH2BXL/89P+LPh2PiRMnmeqD8Q4VGgMORE5Z5U17x5wpf/nu4vixY6aiMv6802zhpz//X/MPn/pU9FvvRPi2hggRIkQPg1Hod/79OzJPiomXz8yT8le3RB04Xmt2bN0u15bDHe70XPQtLzdlZWVxCnXvvv3RT6mBeZc5UzX3NjU1ms2bNspgJi/PmBEVI+R+tnGuvV08JvVmhMo0xGsK7cd2mMYfXmaa7n9j9E7P4OwrD0g6Wh77bPROiBCJce+994qJ994f32vu+EjE3AtQrihV8LHvf8X8cXmLXH//g6/JPT9MmTLFTJ40yRyqPpDRtaNqq9m1Y7tVckPNJBve1KlTozGE8MPrQpmeaz1t2mo2ytXd0HhJQ3fi3OlDEi/KpTvRk3kN+gyZbPpUzDUFs26K3ukZ5E+52uQV9e3RdPRU3aPOSby2DnYneirebLxrmHgZnd71tbtknhQHDqzuvfMzd8pnsLfxiPwF7mc/MEK9YM7cjK6Lli83l152uXzu5zhySQfjxo2LfkoOFlgVFxdHvyVGReVIs2jJkui38wuvm5Fpyx8/btq2Pxz91n1ghNLaA6MTXm44tx/vXmUK4Htm/Y+j37ofRRfeYQpm96wyzSsqN0VXfNnkV86L3ul+UN97pO7tfUbqXneDui51vr77lXim7xojUeZJGYXq1hi8IT344INyHywZNNn0W3dMrjeMXyD3QEND93aWYjgX/ZsE11z3RrPy0kuj3xLjTddeZz72N38T/eYPFOmdn/2sGXqemoPzv2AR/ZwQOBceOTJ7q8f27Nljxo8fH/2WGnjgwIY/YGDEpeCpkyfNggXBG6m8/CLpPRYuuE0auaCggh89esyU9x8g3xtOnzZDhwyS1XZBkVc6WK780en1puB80F6DhwyR7/Wn6sz8eXPlcxAwQkOholjSQXV1tak9nFlem7ZWUzD1atOnX0X0bmqQ12fOtpm29sgbevLEcbNoYaTB+OXvHzXPrdlgNmx+NeG1Y/c++btm42azZd9xs3ZzlXzff7DG7N5/0Pxl9Zo4ee9VVFhghg+L5PX6DRsd/ics//ny+Uc//aVZ/5L/83oR37MvrpfPWw6elvTwudbWo1e37oj95nchu2jubIkLPP/8C2bYiEgedqXuUQfONR03BRMvj94JBrfusehk1MhKG2/w9594DfHa0Xk6yDTePFvfztXtM4Vz3xm9EwzU+ZpDtWZg1HVo2u/awLFdftcAHClXRqLVB6vN1q0Rv7y7d+8Wxbry4pVmrk3PjZdebS4bO9f89bw3mA+/sYNje9tZs2PbNjsyOmf/VpmignzT3NiQk0vD3793r5kyZVJcfdy8+RUzbPhw+Xz0yJHY50WLl9jntpva2q53cryK1A0f4K93xozp0W8RbHl1i5k5c0b0W+agvMaMHRv91hl553BtkQL4aFy0aGH0W+Z48sknzaUBeiuKtWvXmSf+/KTpWx4xd5w902o+9rcfNY//5Tlzti03vmPHjxll6o4fMZs2bTatZyNbFFpbW8zyi5aYAYOHmT22gc4FBvTrZy5cNFc4/+GPj8QqT0F+nnnHO95unlubO/PpwjmzzO5dO81q24gXFFilaKF5/fzaTaauPjc+SzWvjx07YXbt2Sf3TtefMp/6x0/K51/89mFzoPqQGWB76Aussvnz08/J/eUXLjLPPr/WjB090iycP8ds37nbvPxqlbn2ysvMvgPV8hkZfv+fB34rf/mNz/hffcdNb5bP4NJlS8z8OTPl89e//q+mb79IB+rsmRbLP9JI/vAnD5hT9afNjGlT5PuWqu0SJiA+4iKNazdsNoePHDUfeu+74uJChvR60zTGXtwHH//QbfIXfOMb3zRl0TrfU3WPRuvaa640Q4aPMNt37Y1KZh9XXbbCN94JEyeZdS+9EpXKPoh3zZq1tn35S8wndXe+a2Dx4kXyFwWq+0wVKCtMwMmAU4fikmIzd+5cs80q1VzObWr4mzZtMkVFRWaJY3L9yU//V84aBThcAO6iont/+EPT1NIc/ZYebnrr2+JGpFteeSUWF9i3d4+5/s3x6yR++cCvzFtuujH6LXNQT5atWBH91hm9xsyLa6zJthC5+nJigQWNyqtVO2REs3PPfvlcWTFC/nKNHzdGDqblMyvcDtbUxu7zXeVVRv9yvWQbYoAHDo136NChck/jJU7i1mePHj8Z+zz3gpnymTg1rtMNjRI3n5FVGT5r3Dt2dzRYVB6Nm4pLQ44Ml5tW5Uxc06ZOjqVj0KCBcfeJn+/EqzJufjGqAkWFRbF4Na9JFzKEofnozWv9Tp6oDNyVP2lWGTe/VDmUWjmNd+DAgXLPxZJF82w+FMYUGH9RXgqW8vN99oxpZoVVWGC/VWAoMT8g6z6vYGTk5e9iyqTxZtaMKbE5ntkzp8lf0NLSKj5FudffNs4oTkAaSIsflI8XffKD1T3yUfMyUd3T+yobtO5pA4YiRUbD8j5LvdAwSZvWPY3LGy+XPsul8MZLnfSTd9Og4fNd65f3vp8Ml6K8X99YXnflXfPGq8+48brh6LvmAsWE4mQbjF6pFCnAt+8K28gzr7lw4UL5y/XVr3xVzMYsauLvnZ+6Uz7r9Z3/952YjPs7Cl0dSWhYemn4xOcqUtC3vONdQYni2hClp9eSCy80l1xyaZeuI4cPx4U1zrFsEs+oyuBWsFyh9yjTJPtMR4+sMPNspQWY6mgghw+LND40YDR6y5cuijVsjBQYOQCVB36Na7J9povmXWAmjo/4vYzEGTETTpk0ITbSIM5F8y+QzzSoeiJFSXGRGRM1YfE5UYPqB2SHDx0Se4aRDRyJF77EwW9w5i/fiUOVCvHyXT5Hn3WRbJ/pjGmTZXQINO/0+c3RDsiqS5bF8pp81rx288j9nAp9rUIYNmSw2bjpFbN+48umqalZvj/252es4i+U7xvt6KWtrU2+3/PfPze//M1DIsNv27bvin3mPjJ8dz/3DbCPGVdryD73wjrz1NPPm/628SDMNes2yX3iOWAbScKsrT0i6XB/03TzmbTzmXv6edDAyGhYkWyfKfVd655bf7x1jzpA+TBKp/wpi0zqHp2EyhHDJUz3WSwDGi/1nXgpYy17b7yAZ711LxGQHWufJUz9DujYUO+o46RtoX0n+Y34lC9IVecT7TMlPuLV+BK9a8RL/Bof+Q3ceEfYNiko32yAUS1K8T++8x+yxUZNsoyAuffYY4/J73d99S65UJ6sHmaOFgUtz1tZFG0QXHrxClNzYL/Zvq1KFB5KLlfYu2ePxLHHju6LC/Njo/ueRK+ZM2Xv06DBkcZX5/GYY6KBKygsMKdPN5jjJ07K7xzeVX2oVioun2lkMQczauAF4B4vAd/BkSPH5Dv3S+wzfO7fr9wMLC819Tbc0uhRWDpvdbq51Ryzvc0Rw4eaEyfroqORVonvsA2LdEywDR1xodS5x6gJGY0btLRG0gN4aflcbF+8ebNnxM0fAeZxWJ5OrxbZhsYm4UVYffuWSZzVhw7LC0tcwqM+EqfmC+kQ2EQQF7/ps3zG3NredsZ3znT95ldNse2xM1Jvb2+X/AXw4Xm4ExbhAP4qNz5zKXfSwWfNr0GDBpi+xYUJ50ynTBxn5syalvSaPmWimTV9iu9vQa4hzhF/ieZML5gx1fdZ9wqS1kQX5e5i7br1ZsiwyLyQt+5R7xutIta8HVk5QvLbrXsD+vc3h48ejZVvV+qezl02tZ41R44dl/p87PgJG16LhKnPMueoCoZ7h48ek981Pq17bryEpWm7aNE833j7FBTKaJww6+xosaAgX8LkWcIhXDoVhKPxUv+RcfnyBXnicut8JN5qc8Befu8a7xPxBnnXTp06Lb+BRO9aY2OjfNZ3DaQzL5wKmIhRiMy7DhgwQM4IvvSyS6X9nr9wvnxeumSpmThxopiFp06bai60I8ZpU6eZG95yg5k1a5aYjFGgyPH3qquvElPy6FGj5Z1NhJKSEjN16hQze9ZMM+eC2d1yMU+aKP/COVMfMJdysOaQKSmLLB7av2e3uf19HXNLuQK9ssYm22hE50wPH6ox02yj7TVv5AJwfmHNejE7ger9e817brtVPucSzAugKHs6r/fs3GE++IH3yefuxn/98B4zZvxE+bx/zy7L39+peK5xz4/vMyPHRLYW9FTdY2HLkkXzu6Xn31PxUue3btthhkfP0+3Odw1kkyPvEftUFfXOOgcUKt/v+j93Rcy4W7fIAicUMCNR6hYjVGQWL1lsrrjiCvl+7/33yuHlX73rq4HMzucLunvOtNco06O2N3wkakLB9Pr2m1NvffjjQw+LKy1GpZjx6KVMsj2yoKBiDhk2wqxeHVnwgrlx9KiKlA3aOjui2Lf/gIwcymzPcGRlpVm6dHH012CA87r1m0yZ7c0CTIBvvO4a+ZwIJ06cMM88u1pGrQX5+YbTIi66cKkd+XWMulKBCtNy5qzZvTviYSVoXj/66J8kXuU8Z87stPN6ROVIs3HjJvl+zI4w3vue4A2ay72trb1LaVDcc8+9ZnB0jrK5qcnc/Lbg22x27tplXnrpZcmH/Pw+Uu9WLF+WVhkofv6LX9qRXGT0wms6feqklHVv46ZNtuz2Zlz3nn5mtcxbshBoxfKLUjb48H7VjgTIfywY8L7yyjdEfw2GTOPVOn/tNemtIqbOs5gsDxc/FsVFheZtb32LfE4E6ttzz78Qc9XX1XcNZFOZohwx37JvE3Diin7GfIsS5Tv1CLMun1Gm06MrYXVbji6CYn50xowZ8p3nu6Mzly2EytQHvGRsIFY8b5XbwoUR05sfttkX49nnXrCjqzIxFwHmXNst1UED+pm33HC93EsFGvjlKy+Ofovg2af/krRCPfDLB01BcYk5aJWpgon5U3V15pZ3vT3wy+blnKoMUPgsEmlrOxs7FACz1dEjh82ypUvMwkUd+9KSwVthUuU1jcrv/vCw6T9wYIwzed3a0mpKigvNbe++Re6lgjevU8XrgvJes36jLPDwlnepbRjf9c63y72gcPMgnbr/l6efMYeOHDOnbc/eWwZzL5hlLr54pdwLCm8dSFX3Hvz1b01eQWFc3RsydIg5XFubUd1b/cwzSRt8Oq2nm1rMkagLOjBqzGizbctW8/7bb8tZvInyu8Y2/G+89mozNbrqOhW8db473zWQTWWaK+zbu89s37FDFgYujE6/nO8IV/NmASjSc5FOppiMuPLptZaWmerqWvPCC2siP2YZv/v9H2KKVOOlUWlubpFl9w899EhUMrugd37g0GFpVHipNW4Uy5hx48yTf3lGlF4ugCJl5E9cGm+fPn0s33JT39AYG9XnCvBCkba0tsh3TYOW9/ETdTkrbxco9IM1h0WhuGXA3jrK4IU163JWBoC6p4pU4+ZiRDFs+Ajzqwd/E5XMLijfU6cbhbcb707b8E61o5177vvvqGR2kSi/qYcTp0w2D/4msuUp20j1rj3x1F9yWs7dDfL5nh//t3n2hbXmrMk3+2tqzd3f/1HO3+veiNecMqWXzIiUrTRUdkBFLyoqtkotsminantuvALt218da8wATqKJm4UAjacbbGNXJC9jtrFm7Xp5uVHcerr+wQP75fueXbvNyNGjzZNPPS33s4nHH39CRqSAE/kBfItth6K1tdW0sXVjyza5nytg2mVE6lfex44dzWl5u1izfoPES9m7ZTBiRIUoltFjxuakDBQHbSfRrXuAecdJkyebPbt3yT5Rph+yjaptO8Uk7x/vbjNx0mSpJ9lGovymDpDfY8dPkLYg20j1ruW6nLsTtFUP/vZ3pu7UKclrypU6xju1r/qQdOB6Gpil165da9ZGR/k9idecMmUOg4J3G1aAYuNeYWGhqa/PvvstGgy3QVFFqi/ckOi+uZ07Ihu1s4mmxmYxN3kbFSo+G5tJB6uSsw324hGHq0iBm9d9CvJz2lNnrsyvvPk7ddp0SUPQI6gygZr7FDQ8lAd5MfuCOZIe5jFzAZRkxcj4o7GInwaeeLUOsEo7m6AhUwuQIi7embOkflBPsg3vO+yX37mIt6fetZ7As6tfMMUlJWb8xAnynfZNr2NHjsoK71wMDtJB1fZt5qLlK8ysOXPM1qrIdqSewmtOmboekajYQBt3fQFyDa8ilbjLSuU+WwOyDTdM9+V2lXuukSiv+Xs8h8qUxUYKuAPS4nKnJ51ruPVOFQp5oR0NkKt0nDx5Mq5uuwqN+PkNBZDt+A8fPZI03lzC5ZI4v7N/uLobb0+9a90FOiyFBYWR8rT5Sz4r4I3lqaoqt5an1Ij05lhIhcWgJ/GaU6asIkRxHaqJ7GXzNu6APXrZBnsRebnOnDkjlU/jI27AC8fn4dF9g9kEKwlBspeblZ3ZBnlNfGygBn55XWcb+q6sqA0KeFHeuGYjbq8iBf36BffH3FVoGfgpFPKFNPZzPMRkE6tWXR5r6Pir+aDxc488yXa9p1wpX+DHm8+khf2r2YZySZbfuajzhAu6+13rbriWNvJV8tdRqFrH2DPbk5g2ZYp5bvXq6KKxnl3I9ZpTpmx/YRVnYWFRp8ZdX7yBAyNLxbMJViyyJSC/T59OilRf7hNHj6W9TSEIJk8cLx00v5ebg325P2d2hwP1bIFViLxQ5eXlnfJaG1IcDeQSbH9hI/yIispO3GnwhgwbakZHvdfkEpRBc3Nzp4YdkC7yZdaM7G0g92LgwAGyDULrnFexVO/fL0o326B86UD6KTS+M3fOlpFsY+jQQbJtKVF+s+CPupFtTBhn40nxrnkdrvdGLFm8WN4fhVehar3KRUcpHfTr30+cu2Rzt0lX8ZpTpvSW2f5y+HCtOVV3Sio8ha+K9FD1QXPD9W+OSmcX1179BtPc0myOHT0iFU/j5XN+foFZflH2GxWwbNlFbEQ0e6LzFxovFy97eVlx4G0C6YAOBE7f/fIaNFslt+ry4FugugLKu7JiuB0d75ZVxC73MvzqtreZyy+9JCqdO1AGJSXFpqa6WkyqbjpoYEdVDs9JGSioe3gHamxs6Na6R/m2nT0jZe/yJl544xEq6NaYdPCmN15n8vrk2fyu8c3vimFDcmIRSfWulRQVmFlZ9LrTU0BJsW/XhatQt1dVSQdx2rT4UfnrGa85ZQrYR3rtlW+QE+LZIgEwC+WbdvOhD9wu33MBGo3b3/tuUzFieMwMxWgVs8+br7sqp43pRz/8AbNk0YKYSRPefK60eUDDkytcbhvTN113dae8plF5z21/nZOG1Ast7/62ARDrQJT72JEV5u1pOFzIFJTB3NkzJW7SQFoYMS6ce4G5eGXi/WnZgNa9ATZut+5xXXPVqpzVPeL95Cc+Ju4MNV7lDm9RPjnCJ/7ub8zokSM61flc57f3XQN85l3LVUe9J3Dh4kXSMdHOAqNROi50nIYMHWpamhpyOoXT2/CadNqQLXTFaUO2kK7ThmwhXacN2UImThuyja46bcg20nXakC2k6zwhW+ipeNN12pAt9AanDezR3vzyq2aoHSDIqNSOTnfv3GmGDB5o3ppFhwi5QOi0IQBGjxkdc3eVS+RFV4q58LuXbcANji76DxgQc/WVS0Q9qsXQXXntxUw7wsNZd3eDPB4woOP4tzFjx/QIf+IkbhfdUffgT11z4a0TuUDPxhu/hqKn3rXzEazxuP197zZjKkeYiuFDTYFpM7e/99bzXpH2BHrFyPQXP/+FmeAxJ+Ce70T0hIZcoaKiQk5QcNHS3GIOHer6ifFBgAs4FvV4UVtba5pztFdRMW58xLG6i57K6+6I1wtO2RgxYkT0WwTdke9ecB6oV7l0R93z4w/27sndweCgp+LlvNqhwyJ+mF1017tWXX1Qtp+EyD5YGPfmv8qe2T3VyLRXKFNMgL3JwXKIECFChOhZhGbeECFChAgRopchVKYhQoQIESJEhnhNK1NcXXkXEvDdzwUWjpK9spz87yu7dp2vLJcXOGH2YuvWqk6yhEe4XhC/n6xfutLim4BDyDfCwU/2fOR78GB1j/NNxOF85utFyFc5ZM6XNLvIBt/egNesMq3ats2MHT/eHDp8OFZg/OU79/ldsXbdenPRihVxslSe/MJCf9nly31ludxKF5FdIX8VNLTjJkyIk9V0Ea4rqxz8ZLnvVvy0+SbgcD7zddPlx5cX0U82fb62LtTWdokvDUF38i1IyCE9vjVd5ZuEw/nM102XH1/C8ZNNxqG38605VJsVvgVFRV3iyzM865XtLXhNLkCiQaNA9IT55597zkydPFkKbuasWXIP12v79uwx9adPm4uWLZN7ANnKihG28hSZ0aMj21PSkT1w4IBpO3PGVNfUxMniP7K8b19paDVdEdlWqcQXXtSxuR3ZfuXlcRwSytqy4TR8L18cR3BKSffwbbV8D3XmW275js8eX0nX3j3G2Brbme8IaXhGj4lsJ+kJvoHLLOR7XvB99OGHxYNPj/K16QJevsKhILt8SdfIyooe51tv/3LKSye+Phwy8bAULkDKEPRoOPLrwP6IX0kKpbCgwFRt3y6bjhX8jlx7e7sUPED2nP1eXVMbcxcGkD1mnw0qu8dWghLbw1JZqVjtbeb48eOxdAGe43lOoiA8gCzxEJ+fLHG6ssCVVb5UYi/fdDggi9s0P9mdNi8VyB4+clReJpWVv/bZkydOxnHgOT++yLplBvxk+VtXd8ocO3o0Jss9ONUcOiTnZyqUQyK+Xg7p5A0Nj5s3/E2nzJLJunwPWtl0+MpRd54yIzw/vkFl9+/dK+WLbFc4pJM38D17tk1ccrp8kUm3fL1l5idLJ9TLt2rrVnsvUr5d4ZA2X5tXXHwGcRwy5OstX77DzZWNpKszX77ngm99vf2clxe7x1/l4PdO9qYR6mtqZCqmg3GR3tEzf/mL9GRRLCMqKqSH9+orr4iC4f5ZO3pccfHFUpibX3rJFFi5dlupOS2f3pEr29LcbC657LJAsrg0W2zTSiU7YhuAFhsPjcsF0Z7YU3/+s5wRSPy46mLkiCwnrxDu2bNnU8rSwHEgNmmYdcEFcbL06nG04OWbDgdX9pXNm2NxubJH7Cif+Fy+x22j39jUJC+HpkvLgTCHDR/eia/LIZWsX97wIo8dO7ZLfJVD0LxpteVQWloqPXjSddJ2jhoaG9MqsyCyyre4uNhMnDQpIvvEE6bYxk3ejvHh69ZnLTPiGmdHC16+QWXzbRqGDhlqps+c0WUO6eSN8gUb1q7t4Juijmbj/YUvSq1iRIWtj7PT5tsV2fa2szauOcJ3W9VW+2xb1vkmen+RBYMGDe7EF1lvu5ItvpiRk6XL753EWjHNOVAgKMKRaRdRXV1tBtqKQaGCOfPmyaZdGkA1lVC4NBBF9uJ3gDyNCCOrvD59pFCByrZY5UChgiCyKBbAb0dshe3ft9wMHtyRLsJCDnmeA8iilPr3K5fwU8kSN2mgEqrs/IULhe85+5+XL2HwO0iXL3H4ytr0evmiSEfajsvAQYNi6aLRRq7INpRevl4OiWQbGhpE1s0b+PDC5dlerh/fIGVGPEFlOTM238alpjB+O23TVTliRKDy1TILUr6aN0OHDevgu2iRabUjNhuQL1/yDiCvZUY4fnyDyObZeJiuQJEC5TCysjIn9RlZ5csFXw5KEL5OupSvt8x43ltmfrKk3a98QYG9h2IBmi5ks12+yDY1NIoiRZaronKk5dBP8j0Vh0R11E+Wd5Ey88rSwW+zitCPr/tOZoWv5aR8AfKxdsXD1++dpF2nfT/f8ZpRpiNHjjQnTxyXngzXy7bnM2HCBKkw9HgAf1tbWkxJWZk4blZZek5UDioYPSlXdphtLBkxgUSyjNzpKbqy/EZl6T94kE3XiZgsvyNH2JoufiM8G7D06IkH+MluefVV6b2SBtKiHJSvK+ty2L1zV0w2G3yHDh0msvRGgXJosC+CmHxS8PVyAIn4DrejVC9feraTJk9OyJd0qWwqvsohkezjjz0mIxZkNW/S5YtsUL4ltmfux3fi5ClyQosfX01XMr68C0Fk+X2IHVn48aUDgZLz8nXfM5W1AQeqz3SKXFkuRl+Tp02zo5zWOL7KwS0znuN56pTL15s3ki77vB9fFLkbrnIQWfuMK+vl4MqmKl/+nmtvs9ymSpkqXy2HluamONlk5RuUL2Xmykq67DvllXXfyTjZDPnCKRHfgsL8OFnl4JYv7Trt+/mO15SZF2DqPXWqPmb6AxQyvSUKSns8FByNAiMOekn0jig4XuI+ffKtbMTMoLLMW6EwvbJkn5rCvLJqKkGWioRJhNMWtNdGhSkqxlTZYQamotI4YP7wky0uKpSjnlSWSgnU9AcissWd+LbY75wBmQlf0jV48JBYjxZZTDOYl5SDK+vHwb61sbxRDonyprS0JGbqjOMbTRdIxJcTLlpbWwLxhUNRUVEnWc4oVdOfypI3mKhcvi9t2iSNUZDyTcbXnMPEFi8LXL6J6nOiMoMvSlhHpMlkpcww0UXPv/XjS7qYwqCRdjlE0lWYVn12y0FlASMeL18Ug8tB653KwoH3zLbSvvWZE24G2lFmJ75OutxwXQ5MYdTV1WVYvraOYr68PHKurMoCt3xjsgHKNx2+fm2QG677TjKFwbx6rvmSLkzcZ86c7cSXcsC1aldMvCA082YIRoO2tI3r15QXg0KlN6ZA8dBQ0pOgUgD+Yp46c6bFTJrScWQVshz6TYXRCo8sjScVq7x/P7kHiFdl3XD5ToPkpos4iAszpsoSPi84sqocwXDbW0ORYrZ2wwWkww2XOYfGhtOd+DbZeDgay30+EV/i52BnL1/MyAMGdTiCJ17OEWWexA1XOXj50qjTI1VZwidvyDMv3zN2VEIZueEC4Rv9DODrV770iIPwJY00PH58CwsLOvEF8HPDRTZR+YrJMyqbjG9zU4PNmw5Z/evlm6g+y8H0ZWVxzyvf8Y5va9I4wF5+9Vk+D0zOl2dQpFKODl/i8OPrV59JO+Y8yk7BM33y8ujhx54Hypd5OAVhsR6CsF0OpMmvfOGLcvDyJc9cDnz21meeQZGyGt+V1frs8uUv9ciPL5135oEVyLZbrlz6PEhUn7VdCcIXRebly2jSjy/gN00Dz/CsH19v+fKXOuetz5HybU7Jl7/MFbdaWS9fyndkRWX0zvmP/C9YRD8nBCursjnMZrXreNubDApO0Bg1alT0W2JE9k8V2cZvkJhxB9hGYeeOHeIwnd4RK/VOnz4tlZVe2libBl6yHdu3x8nOX7DQ9paq5KUCKkslIoyxtldFb5nJ+2nTp8dk6WXR85pte21UeleWXtsU28NyZemFz503T5Tp/n37pAKpLIumkB1o07Vr504xdUyfOVPKopGXMsqBHp4f38tWXSG9O1cWDm22Adln40rEN9JTrJLePr1Vwhg/YUJCvnBg/pmX0ZX140veXDB3bowDL4/KDrd8lYPyXbHyYkljEL6Ub1f50gsfZBtqL18a76nT/PmmU76p+JKuI7W15tJVq2QFp1tHk/H1q8+k67ANq6/tVCLbYH+fO3++L19vfY7wnZYTvm597uB7uXxOVb5wuPjSS33LVzkwN6h54y3fQzU1Yjr044uVh7hQSi5fv/o82F6UD4oSWa3PNdXVsXLYXhVJdye+dpTlLV9GxrxnyLiyyeqzy4HfE/GdPmNGpzJLxpf1Ft7yhS8WCN4hlXXLl3QxfYRFp1N9hq/lwGeV7QrfY7auFhUUyuK0dLHl1S1mZhYPamfeFgtgIrxmzLwQ9e6f2mcr7hlbodR0AJ5+6inpRY21L0kyWSoPhU8v2ZWlwGkIimyB62IUV3a2fbm018X+KXrfvMhq/lBZoKYSsMZybLQvmStLuqjAffKMrIJTYEKh15aKA/CVtS8D4fKyeflywDNp8PItLik1F0YPek7EIRlfRhxqRgKkC9DgunzhwMu78pJL5B7IJV8sGTQanfjafHD3x6XLF7iyyfjSkNGYKGjMyK8gfP3qMxxY8NFkR+ZqFtV00WEYZeV6iq+Ugx25uXyTlW+QugAHpi/q6+s7lS98Z9hOqKYrEd+XMdPbPA/CF5M+ee7WZ8qsxIZZZkdpXr6Mnl0OyNLsTpg0KY4v54SyOj1VfRYOVlkBL1/CneO0QZnyJV10AFjo5y1fthbB2ZVN9E6i6DPhW2HrUT/HAhgEoZm3i+hX3k96OAo+U6j0mqg8cs/+5eWSnpZH9sTJk9KoubIDbMWhwrlgSXlRSbHM3yiQpfFDVp8HmIpQulrxgfu7+5lFGISLOUlBulCk7ba7o7L8hRPcgvD1lbX3USxeWRQpK3JdRPiWWPkz0TsRWYX7ORlfTDuuLD3ssr5lNl1OWHCwYVBGKsvfdPhiEuxUvvY+6ffK0ttlY7sL5SuLYqLQZ4D7WfnqNgPgJ8vfGF/39yhfTHJe2cB8feozON1QHxtBAf7Cl3J3EStfmw6FPgPcz4n4Uve53LgGDhxkP8WXOWlkQRFeblzZROULryB1AbB/kY6RK4tiga/eA4n46nvuyiaqzygWtz7zly1TDacjnnwUpBFF6uVA+aJEvHy55y1f37yR38/JMY2uLHxJm94Dyfi6ZQb8yhcQJtM7blzELXtGHZBG3zpq38lM+faLKvHzGa8ZMy8NBeaA3TbsI0eOyAtAjwdzhpo1+IsZiR4WJg3MLcju27vXXPvGN5pCW+gvbdwoC3WYX2TynoVMmCQwNVVt2SKmkgULF8qzhEGDhbmHXirnMaq5hXBUFtMFvSsqFT1V4k8kK6Mo27uTtNke5Qrbo0VGZZUDvU/CJOxUfFPJEle17SmOGjMmEN9UHJLxdcOdN3++2W/5whmvKPBlxNIVDvwlfMxI3vKNyHaEy/0Tx4+LSTMbZZYsb+B77MhRU96vXPjW1NTY+rZP+LLw4+Iulpkrm5CvbQSZwuA+pkhGEF3hkExW6z5zvpq38C0sKjSLlywVvkxh0CBqughPw03Elwad0VyqvNlpRzc0vIRLhxiTvvJFLht8k9UFyrfWcsSsO2fuvC5xSFW+Xr4oY0ZIJy3fQ4dqpAPeFb5aZsSVOm8iZutkfP048AzvZCZ8Fy5YYFv4lAbUTuhuM+9ras40plB37YqZkTBLyB4l2wtionxSdFO4zjnUVB80170pcoAs86ccCjzUVio2cCNLmNj2Dx86JL1RKhvAfFV9sNocPXJY5hyIR2W3vMqLV2RlqQQR2ZqaQ7bxPCJzDipLhd+1Y4dV4kVmflR2jFVoBw8eMKdO1smcEkCeStza3GRaz5y1FWSm3Gc+59VXXjaNpxtS8hXZl61so5W1DQ9QWfbdVtjyxawSz9fEcYjwjecgfG0+BuWLia+19Uwc3y2WAwcxu3x5oTE50UsNwjfvnH/5shDL5UtdYlHSELZC2CtZmR2yHILyxY9qIr719adjfKnHB/ZbZWobQBQp6ArfRPU5jq+tz8p3RGVlSr7plC98T1hlwZyhytIgsqqUtQs6JQDfmppqU3fiRByHpPW5oVHmSEEivlqfOVBeTW+SrgO54ZusPjfY9M6cHTF1JuKQsHx5J23HPej7C186KYB00THLhC9znLx/hYXFsToq+ZigPlNmjY3Nnfl66qjyxTKQCd+lS+GaviIF3a1MX3OreXEbaLvk0rAAesSYWk7V18t+TzUp6O/l5f3Mxg0b5TN2fHrzB22mubL02lhFy8pOfQ7Zc7YBZ6k4vyv4XFRUbOtGxz42/vKd+ypL2PTgMfHhalBlCb+1mb2wpTK3ApAlPXWn6uPMVsg2WSXU1NwcjK/lZv+J48By9FO24jPCUFnly+phV5Z0kt5OfO29RHw3rIucLEHY8GX04OVbbPOQOR0vXzgIF5eDTb+3fMkT8savfL18Jf9suF6+WmbsewQuX+UA1r74orzap07V+fJ1y5cevB/ftrNWtqTEl6+3fP34+pUv810gPz++jqbi63JIp3yNrfuM1Lx8cX/Yt7xvTJa0oFjgiw9XgCxp96vPwjf2OTnfsvJyCdvlC4egfCPvb3z5JuKr5evWZ6w5fuVLGZT17RsrE2S1fDvVZ97JgOWbjC/WNZVNxDdx+ZZIXqgs7wD1244dpL4DwiYOyszLV+uoyxfXqYn4ss0pFV/W6cB3rVM25zteU/tM5YSE6KIgJrJZFcbyd0wHjLqoALxk9KDVXRV44rHHpIDpfWEKo7eksqzqw/zBfQpa3JyVlErl0wUIVAydZ3BlWRCASYYwMJW4sv369RdTWJxsn3zT4tkvhixhuBwwvXCPynf1tdeK7MN//KOsaAzCV/LGvkDswZy3YEFSvjuqqmT0wAvk5QCC8MWkwxxaV/km5GDLl7gwIwXhe7btrJiQkvFlJTHbcfw4RGSHmnnz54ksygFrhlcWDsyhYQpjhbbLl7lbXRT0yuaXzYkTxxOWrx/fROWLvHqjQkkXFDB33JGuRHyT1VHgJ0savHWfua6RdhTq5euWL/nFWoNs89XyTYevlwPly/2g9bnQ8tW97C5ft3y184BWClqf/fgCOi6Z8A1SvqygJV2YVxctXiyyDDSOHzsqC438+LrlyyJKtrmgxFO9k1JHLSc/vqgk9rLr3n3ycVF01JwOwgVIXQSmJXcIjrs5mXTP63BXJX/td+6rez0wdfp027eyfQr7PxUIIEuvmUl6KhDgt0lTp0oFonKoLJWxvf2cVFg+A35j4QEuwlx3ZITFij/mOVxZKjzKzd0vhizxkw6Xg1TipibZgqOgkA/XHu7EFxOjly9xsAeT3mssXQn4ltoedn6+7U3a9KlsMr4D+nfmy4u//8C+Tnyrqw8G4ovLMcyHLgc+M6rGIYErC3/y0cuXe1Iemq4EfMX0ZTl4+ZKGOjsKQZECfuPy44t1A9OfG66Wr7vfc8y4sQnL159v1J2ghy/ly5YlBXEQl8sBWRpJzG9uuki7H99k5eu6i1S+TU3+fN3ynRV1BOHPN77MEvFlUZKXr5avl69f+UpZ2XeSfbIqqxyD1mdWm56x8fnxdcsXvnQegtdn26748CVdnfk2B+YLB7fuw5EwvXyZIy2yCo55V5WdOGlipHMJhxTlSxrZh4o5OBVfpsb8+MKBhUkjR3dM69Guiyn4PMdrZs6UZdosROAlAfSyOO7sqO1F0ogwD0CPrP5UnZk4ebJMdjNfwGQ4S7/Zi8ckPo0NsvScvPsBkaXnREUgTzRcle1rFQ8T98xf0ctikQujE+YfUb5gux3pMTfAyk6VJV2kncqmiwdAwr1llgNKXU+aAPTemN9w+YppyMZDZezEwfL14+Dly541vOEwzxeEL8/zjHLgd8qurKyvpD0yx/KKqbV5Qi91/bp14j4PJOVrX1rSpflIz3iCbbi8fAsK8uU58pG5Izgw8iFvgvLlHouhvLK4nFu3dq2ZbNPCohrq5egxY+P44tZxnI0/36bD5cAcobvfEwThS7pYEIcsDbXLF4tRQWFBp/JVvm59xvoyZOgwO2IYJ6Y9uLh8mUtnQYvL1y1fTH9NxDsivnyVLyNht3wT1Wc56zUBXy2zZHyH2BGLt8zSKV/eRe5hTMYxAfOMyJIfXr5gkI3P5atlhnIKyrePVRh4+QlSvox6XQ7s7a4YWRnHQdugIO2Vli/vJulCESbjy7YYTnxhMSadJNoVRrSdysyHr76T/MYiyq7wZUTq5YuP6K7on3CfqQ/ScSfICFVI24LUHg9mEeYKXHdValJgUZGaPwAFSq986LAO11gqC9Q0BAiXnpUrS+VhlSa9PA1XTSiYNSorK2M9PGSPHjkqJmNNl5pQ6GG6HPxkSRfHFjVbXvSCvXx54dU0lA6HRHmTDl848DK6bh2RPXK4VuZ51TyNLC8so4UgfHE4UGefUTMSIF287JjJXL40siAVh8R8n7Cy+Z34ssANMx/79lLxhUOfPnmd9nsGLV8tM299hi/+kdUUlogD9bm5ucVyGBYbVdMRoGGkU+eWGVMYeGDyK18aXnVjGcfBp3xts9Ll+kyZeWXT4ZusfIHWfdKFgmtsaPLly1aMiZMibiyTcciUb6LyhQNuHdWNpR8HkKy9cvOGdDGFwSpylK6XL51QdWOJ7IvPPy+jYrdd8eOgfIH7Tr7y8ss23GPp8R1q+UatFyqLEh1plWtXEJp5swAqkQsaWa97PYAcld4LKoAX2Pa94AXHabULVlCiWGh8XJAi3IzZWhO5EQXPE44L0uTlALyyVHzmqkqjIzuF8u2UhoAcgF/8frIoEMAiAn3BAfeln+bN387BCoLyRZGWefiSB5ihvHyBt3yT8e0sW+DLd2TlSFlB6fLlWT++fnUpWfm60PCZf3WhfmrbPWH7cQB+afDKEhfh+vEtKy2Lc3kJYhy88dlbbpmBZHy95esny0iGEVYQvonK11v3iYsV5NRbF1qfUTq+fL3wuRWULyBdXG5cyiGPTeYO/N5f4MfXmzeEf7q+vlNdUr5tbfFp4F3q5/M++XHwg7z/PrKES9p8+TrpBZko0p7Aa9CdYGFsryTmB3pTFBYjAz5jUsC5PT1gem1MrKtJYc0LL8iEPKMbeu6yvNvK0kNiftJXdulS33BpfOiZsehlu32GNGH20HSRp5g4WCJOPMTHXBQjWHptLodUsvQIt9t7eZanjIBto+jl2xUOvHikAdObn+xR26OlocPDDHMdpIuORCq+dCowl7LPjVEpvdEgfOkBwxVXeerWDb6YwhbZMgtcvgn4ppJVvpOmTJb5Ju4jk6jMWOTB9oh0ypd4vOGyMlTdumGihe/iC4NzYATN9gVW2uLveMuWLXIvCF9cE86ac0GsfLtaR1PJUpakBVkxz9t44fu8rR8sXnvD1VdJnaHupFu+Qes+fE+eOG6Wr7xY3t9MyiwIX6wsI2y7qu4TmcKgfDPhkCpv8EKENQtZTKiMStkL61dmXJquROWr72RQvrixpHyRTdSuwCFi2s1MkYZmXh90xZ0g5odNGzZIhVLTH8CkQIEzf6W9I0wKu3ZslyXi6nILqKs210VgIlm/cJnDw3xJ713NKpouJtnV/AGQZUKeY7a8HILK4iKssJh9aPF8WTDRVQ4R2R1iNvbK9u/HgqwpcXzxGgVfFCxIxqH64AGz5MKLAvJtkbluV3bj+nWmtKxvl8s3XVk/vphwWZnt5QtcF3KJysyP76OPPGJKioviZElXbU21rKzWFesgHQ6P/+lP0hmgoxWE77n2c7G9vyAdDunKFttO8LCKCg/fGlNrG+Vrr7tO7oE//O53kvagZZZu3e9qmWWDLx2mltYzsT26oCscAuXN40/I30sClC/tCvtjO/Pt/E4m4ssq5/ETJsbxTdSujB8/LiuDt9DM20WQ+cwFKehdoUjpyVJwgL/MW1LY9IIUMuFeFFmWToUAImsrMb1jeloKP1km7+n9Ea7K8hsy7MtiXiUWrv0dOdKh6VJZwiV8RTqy9GhRpKx0dPmqe65UHIRvNG86yxb78j1Vf6oT35N29IP3qFi4SThUjhwtvWSFnyx/GQWShk587T2/8pXPGfHtXL5FRYW+fNvazsneP5cvoCeu6VLZIOXLXw5z9sryWbYo2bxwZYNyQJb3gYV6QfgCzIz6nng5uHyJn3qm6UqXL6eTNFsl4sryGb75eX1i7zV/masOyjdo3ReOdkxBuIn4Kvw4uLLe+sxvrGlw+dKu+PHlHnu7XdlkHKgLLl9vXeC3hHyxqCYpXwVhEb+3fP3eSb+8kXRZvvn5hXGykXQVS9m7slgss2kF7U5kNDJd8+IaMQEweeyCORr2GiUaTeZyARJ7TZlP0sUKFDymCEy9VADMH/Ta2BPFd5QPZgZGjhQm5hQaQuZSdKKfSX4qSCJZtlPoYgV6Vp32i9lKttP2DtmfqnutNF1UNOJSWSo35kHiCyoLMP2xWAFZOhKUC2lQDpquRBww42nepJJtb+OE/nhZly/pYmUoveQgHDAJEYafLEv1WWGYjK9f+aYqs3T56kEDifiyGpY9doTByC9VmSUq375lZbEzKF2+mq5EfNMp32R5Q71h2xUmOpCI7xnb8ONI3+VAvYvkV3b5PvfMs6Zvv3IxATKKCVZmHe9vMtmgfJNxSFSfdR+4cBBz9UApN9xYki4/vqRLRqg2rUHeX0y6pMGvPpfa9kb3dsfxjXIA6fDV8iUuXWyULG/gStpS8WXFNh2OSjtS95p217y41uTl55lpU6Zm1dH91i1bzemG0/QYbb+iY67WdqlsXpwz022avfHlbGSKIl22coVtZJaLWcK9uLd85UpRgt2NaVM4Y/BsbNUfhUiB9ivvG7dfDNMgLxFbGChUQOWgsuEwm4qlsjSOEdmCTrKYgVkpqbIsF6fCU0jIAFY7YmbhPr8D5KmQxEU4Kkv4xCMveLTCI0vaGbF4ZWU/oOWrq/6QpcJjXmZOQ9NFWIk4kAbSEkSW00hUkQL4YBpy+fIMiwlw4h6EL6YeP76VFSNk/iQVX8rXux8wWZkF5ms5KV9FIr4cbszJJWxZAMn4JitftnZ14msba01XIr7plG/CvLGcmhubzPxFi+QeSMS3sanRFOYXxJUv70w6fJkSCMKX82QH27qM68mgfN33lzTiMtOfb2MgvjxLGC7fZPX5gB1F64p1ZJlTZNEaikjThSxcXb6Ec8QqnKDvLwrLW77KlzJyZeELN+UAlC+/efkSn8tX8tR2aojTT9ZbvnDw5WvvuelCkS5cMD+mSLdurZJB0br1GyI6Ztlyc8gqXFwcZgOswRk4eJB0kJkyidNdNi4UZlVVVVQ6OLqsTKlA9t/IF1/k2ZFJ6lVf2UT9qXpTc6hWRjL0vgE9Hwp0gB3J4OKK74DfkSOdriw9NLjRi6OHBVSWSkDvCmAKYwUaPm1VVntv7J+igqosf5lf4D6/q6z2FKlgmi6V9XIgbhoeV5bfWRLvlaWnzAHP9IxdWeRoiJ9bHXH7JeFa2SB8+csLM3na1DgOfGaOxY8ve87S4UsvGfAbiqnBNuxB+FK+/QYM9C1fwmbOBvBbMr7IxvG1I6+gfMkr9p9uWLc2MF+XAwteKF/qn8tB+A6P7MED/JaKr6aL37x8uVS2U/mmwZd4SvuWyT5TlU2Xb7ltZH3L18MXmUT12cvX+/5yceZmiR0Bu7L8xfnKZDsCYRSlssn4EsZOzt+Myibjy95svJIBzNNcQy0vL1+4evmiHOHb1fJlL3sivnDzK19+c2V5lvjIO5VlFGwji6ujOnfqLd9jdAgsB1++VtZ91xmRKtauXSd7c1FyKNwXnn9eZPjMaUMsMs0U+CgeM3Zc9Js/cKiC0k0HXTbz4jMRLZ4MiczDuTDzokjpvWiPhwqRaP8jysbda4Vbt+PHj4miUbMKBUgFpeFyZakQ9MQYZepiBZUFaioBVBh6qVQ27bX5yWq66HzwEquschhke6hqCkvEQWVdDsjysng5YHIi/W7epOLLyf9qCsslX0xkmIf17MNUfIOUb8TNWcSzSiq+MQ5p8EUpMdoDmPT3Wlm2JQQtX/Z7qiksUZmlwzeSrhLLt7O7OeJi/ktltXzjOKRTvpYvJ7XQrQ7Kl8Zf3Tom4pCIr1/eKF/bynd6f718fTlYWRSFW2bAT5Z0MZrFYhKEr+xJLiy0o55lgfh63990yxdzq7uXPRHfoOUrfG3HFv/fjH6VL+WAYmV/qi4AVA5By5d3PTJH2mHaVZewOm/Pwj7Si4OapRdeKJ85YGH69GnyezIkMvOmMtcCPNRxNuv0GR2ep3Jm5j3X5r/nqQPnpAfTXag/XW/Y46nQ/Z4UIoUq9+xfvnPflcWMhLlWesBRWSoNLy33tWICbP0tTc2GhRAKfQa++hkwF0GjTG9Mwe+aLyrLX0wnLD5gu4iCNFK58dSiFT7ueQ9f0kqa3XCVgyvL8m7OJ3TT68r68cURvUKfyZQvrse8fFGkKL0gfIFf+Xr5Vo4cKVtCCNuVpaH18iXtcEiHL3mkIF7bQ43bS8df5YsnGIXI2vjxLOTKUg/lc0C+3vpMHOrWzZWFLwfQe8sXDjTCCn0mUPkSr5VLh68bLn/TKV+/+kwcbWfPSNiuLJy8fGPla7kokKXMgvAlLNzrMQJx40rEF1Mtaypc2UR84eW2QfxNVr7E6cpKGqwidGUT8SUNQfmiSEs9HMhr8px3S0G8pNUNV+OSzx6+1E9G4S50rylKGDAyRZGiVFGwtAsy15kBiLOu7mT0mz84scZVpEHQ5X2mbBPYsGGDHHnkVlaU6POrn5cTBhYvWRy9F49cuxOkIHSvFS8f+5zY80gvnN7RlKlTY3uikKWXxh4u5vh0/xT7n5B13XNh4mH/G9sF2OfIHioqIL00eni6X0xlSQ+jG8J0Zcda7sh4ZemRckQS5h16vmxUnz5jRicONICMZPw4+PHFc43uF9O8wf0aK2G3Rflizim3ediJr+09Xmo58JkFIEH40ut0ZRPxnb9gofCls8CWDU7eZ1k/DQph4KotEV84MD+ZDl+44OZM+TJi8eMLhyB8cRHIPlI/vu5eOpcv93gOvtQhevBByjcZX299dvny7uKMX0x/Nn1eviwIgUM69TkV3w3r10vDPtvWZzdd2eLrLV/qPkfB8d7Q7ijfCjtC83JIVL5SR9OpzzYOzopFNhFfONAGBanP3jYoSPniTpAtgSgmzO20w9nmy6iSESm7GrBAILt+7drICHr27LhyUL7plG+1beM4NpMOBzh0qDY2CsVjE3/5ztFsfEeZ7t+7z+qD1Ct+E+0zZSph5/YdZteuXaLs1Z0pYD825VpZWRHrECi6ZZ+pd6FRKpNsrt0JHrDKV80fALs+833Y6tXMQIGKacb2hNSsApBl8p45B5XFtMCQn4pOZVNQUXh+rH1JdCQVk7UVSk0lQPesppIlXbg5wyMJvTFNFxUcRc6ISfdlKQd61bOjZhWQiC/7xThh35s3Cfl6OGAGYs9bEL5BZUkXLwkvsp5gA5LxBUHK148v88WsNqfRz4QvjYu7JzGRLB0ERtpeviguNYWBbPD1k3304Yelk8QCGO30JuKQTn1Oxtfd263pwhIyZ052+VK+NOTu+ytTGDatE0iXh2+u6rO7tzsRh2y8v37hwpfRq5hgs8yXkb2adkEivihnLBNB+QJv+bIAyTWjMiLld54BtIUoVb4vsB1uBm2pEGSf6dYtW2XLm2LG9BkJVw13yz5TFJ179SSwv4+2o1gtBEB/YdnyZWIHV/A7coy4VZa//cr72YK+IF7Wfp4+fbosqKFCyT0rO3DQQLnP7wqVxc+kG+6gwYMCyw4bOsxMsT0xRhUK0gMHt++DLBxG2cquz4NEfJFz84a/yfh608X3oBz8ZOHjJzvIKrbZttEIyjdo+frxZYXhYtsxzJQv5ZlKFj4X2p61H9+ZM2Zkna9Xlr8ciwbf/U5ciTikU5+T8S0tLYmTJU1jRo2WxlCRrfLt9P72KzcXLl3iyzcIh3T5olT8+Ho5JOMb5P0VU6eN3w2Xv/BdsmRxTvjOsKPJIHwpg3T4emVVhtGmzpWiSPGPzMiU/OE+CjUi2xFmpsCU6+qudLffuMjKyDRd5HJkqlDXgqyic8/CY4KbobrrrgrZRtsTbLejwalTJ8s9gCzmnIrhw2OZzIn7DY2NduR41kybOlXu6eIn4MpWbdtmG6jB4qLMK0tlmjp5cpysHCpse3KaLpWlYgbhkAu+mq5s8F1oR576IoR8c8/X5QAS8U3EAWSVb/1pc8iOVjLli1XBDbdH+NZZvpKuxHw1Xey5zpTvCNJlFSfoCb7eMkvEN5066ier8TEiZ+BCJ0I6xfYCWFouuyyY7uhuD0ivWWUKsHH7edPwu19fXy/zrl5QuFrZFInuAe9937jkeUwc8VkfNC7gF27O+PrI9jq+CcL1TcPrjG+i58H5yDdR+XQv32BxJXrPXqt8E3FIi68Nd9v2HbLvE2DyZf+xOddm9VDHnuBUCJWpD7qqTEOECBEiRO8Ee07poC1axELWlGqqE7pbmWZlzjREiBAhQoTIJhjARUai6SvSnkCoTEOECBEiRIgM0SvMvD++58dmxIiOzf0hQoQIESJEMpw6VW9ufvvbot8yx2tizjRd+RAhQoQI8frGQ398yFxz7TXRb5kjnDMNESJEiBAhcoxQmYYIESJEiBAZIlSmIUKECBEiRIYIlWmIECFChAiRIUJlGiJEiBAhQmSIYMo0csRciBAhQoQIEcIHgZTpRcuWm7Vr10a/hQgRIkSIEK8fcFTbrAtmR7/5I7CZ96LlK0KFGiJEiBAhXlfYykHnEzgQfmD0jj8COW1w8dyzz5j0nuiMffv2mrFjx0W/pUa68iFChAgR4vWNPXt2m/HjJ0S/dQ3McM6aw+HzAyI3kiBtZRoiRIgQIUKEiEe4mjdEiBAhQoTIEKEyDREiRIgQITJEqExDhAgRIkSIDBEq0xAhQoQIESJDhMo0RIgQIUKEyBChMg0RIkSIECEyRKhMQ4QIESJEiIxgzP8HVMuxyovwPycAAAAASUVORK5CYII=;" parent="1" vertex="1">
          <mxGeometry x="-611.26" y="-730" width="340" height="340" as="geometry" />
        </mxCell>
        <mxCell id="EDErFB_Okgi-UWxRIuTI-3" value="" style="shape=image;verticalLabelPosition=bottom;labelBackgroundColor=default;verticalAlign=top;aspect=fixed;imageAspect=0;image=data:image/png,iVBORw0KGgoAAAANSUhEUgAAAoEAAABNCAYAAADZ5r5eAAAAAXNSR0IArs4c6QAAAARnQU1BAACxjwv8YQUAAAAJcEhZcwAAEnQAABJ0Ad5mH3gAAB5CSURBVHhe7d0JdBRVugfwLwsJgWwEErKDLAZCAghB3ABRAQXcUATEwY0zZ5YzMz4HxxkRdMANFTjzGNcHLiibiuy7rCJbwpI9IJA9LBIgGyErr77bVUl3p6pTnVRDSP9/51S6763qW11VN91f36q61+WahAAAAADAqbjKjwAAAADgRBAEAgAAADghBIEAAAAATghBIAAAAIATQhAIAAAA4IQQBAIAAAA4IdUuYg4eOECTJ06SUwAAAABwMzuZlSk/q2czCHxs3OMUHhYm5wIAAADAzeTQwUN06NAh+4PAr7/5mm6//XY5FwAAAAC01BaepGuVZXJKCrI82pNrxx5y6sb46L8f0X8X/Fc1CMQ1gQAAANBkVUe31021xYVyrnOqTF1J5Rtfrpuqs3+R57RMCAIBAACgyaoTNlPVnu/F45mSq3Kuc/IY8Kxo/WMu3p1FuiVDEAgAAABNIlr+amvFc7fou2jVj6soPz9fpFuampoa+ZnjuHoHU5s+T4jnLT0AZA4JAi9cuECZpxuee7ZWK1WcNWvWNLrs5cuXaeUPK6myslLOUZednS3W3ZiMjOO0bt16OaXtypUrYr38aEtOTg4tW7ZcPNqyb99+Onz4iJzS9ssv+ygxKUlOqePKfOTIUcrMzKJdu3bLuQ3x/jgt7V/T42k5t6FjiYlUfvWqOB68fFNc+O0CnTp1itauWWvzQ6C6upqOSPuhoqKCkpOS5dyGlOUyMjKk47VOzm2I18vblpCQIC5+1aKUdzjhMC3+erFIq1GW27dvn1hWC19se/HiRfGhx9uiRtTx1bxPT9PWrVtt7pe9P+8VZSrboyUtLY02bdxU96imsLCQvv/ue7G+xv53lPU2djwAAKxVrF5AHqOep+rO3cjj7seppLhETOzIkSPi8+ebxd9QXl6eyDPHn1O8DF+vlpmZKT4vq6qq6vLPnz8vluPPdfPXf/vNt1ReXk4FBQW0Yf0GMe/LL76k1atW08cffUxffflV3XJcNpe5bOkyOnv2rMh3tDYxT5BbcD9q03OUnNNyOSQIPHnyFJ2y8SWm4C/bHt17UHKK7S8evnPl0qVL4gtXC5e15Nsl9JuOIDA1JYWKi4pI5Z4YC9u376Bz587RRWndtkR26UI10vpDG7mT+rAUpBw5rB1UKBKPHaM9u/fIKXXZ2TmUkZ5OR48eocvS+9P6hcPH4rQUmJ389aT0qH1Mdu/cRWWlpeJ4pDRyPLSclNfj5+dHiYnaQWxOTq4I7NavX0/Hjx+XcxtSlktNSZWOV7Hm8eL18rbxh0GOtF+0KOUNGDhAlOXu7i7PsaQsxwEgfxCpKZLqz8GDByn+ULwIsDhoVCPqeA+pjkvBVTuvdnTgwEF5TkMRkRGUmpoqHTPpWNkIxP07dKDc3Fzy9/cXj2pqpA9TXz9f8SEq/nds1GFlveJ4nNA+HgAA5qoObSS37v3oXJsAGjV/lQjEikuKqVfvXmI+fx888eQT9Lspv6MD+w/Qm2+8SbNnzRaB4dwP59K5s+fI3c1dfGeUlJTQZ59+Rp98/In44bx/33764fsfRGDHP4xXLF9Baalp0vdjovhcXbd2XV2rI39Oj39qvGiw4XW5uLiI9U9+ZjK5ublRelo6ZWVmiWDwenDx8CavMfPkVMvmkCAwuk+0FLnZDrAYtzwsXLiQ+vTpI+eoO3vmjLRXpV8NF7QvOOVfDoGBgXQmv0DO0RbQsSMVFReJimRLJ2k5Dw8PKrp8Wc7RIG0rL+cuVTZbeBmlctrSUVqvt7e3nFLXrdst1NarrXjOX/Rc0dWIY2H2qIWPQWVFpel4xMTIufbhdfAvOQ5MrlypvzvKWrfu3cR753/+/DztljFluYCOATaPl7JtISEhVFxcLJ6rUcoTgeCAAXJuQ8pyto4Xf2iFhYdRVFQUZWVliXWrUep47969RaBl67guWriIevbs2eix2rljJ7m6udY9quFfyAelgFO0AIr/He0fR8p6GzseAAANlJfS/HnzxRm75cuW07vvvSvPIOreo7sI5BYvXkwuri40ZMgQipG+X8rKymjMmDHi7A1/zvL3FweEERER0vdPH+rXvx/5+PhQ5+DOdQ0cvHxpWSm1adPG9Bp3N2rfvj25urpS165dxZkPH18fmvXvWeIz/PDhw/TpJ5+Sl5eXeL1/B38RTLINP+2mLTv33vTTzwcbb1RqjIuRXcSknE6mLSlb5JTJqJhRFNMtVk7VW7h5IRVV1gdXV0uv0vSnX5dT9d5e+ha19TYFO8zPw5+mPjhVTplskn6NpJ1Nk1PaZTHr8qKDo+mh20fLqXrW709tvUzPcnr3i/V2MK39p2c79JZnz/7TwmWkn00Xrbb8T1tdXkmvqZRRvy+U4Oqa5jEwbaP0DyxVUQ4uY8JiGizH5W1N2SrWS9dquTga1fdBG/vM9IHAooN7q5anvL9r0jr5XaqVZzruReJ5rbS9HbwCVOuHad+mi+e8XJUd+0Xr2L8jbYdn3Xao7z/z98fHI0Dj/Vmvl/+OjBmpul4AAGu1BSdp/J9fpdLSUhGYffDBB3TixAkaMnQIderUSV6qZZn/qel0cXP5SUGnp6cnnZeDS3NBgZ0a5POynQM7yiminLzGG61sCewYQM+Mf0ROaXNIFzFq1/1lZGVQku9Ri4nz1CRfTLRYLqFU/Vouzjdfjl9njQMY82W0ymLW5VkHSQrr96e2XqZnOb37xXo7tJZjerZDb3n27D8tXEai7xHp9UcotUMixWuUUb8vTMvyc7X3zkzbKC3jd5RSpDLVluPylPUm+R2jJP9jjewzZb1HNMtT3l+yVJZWeabjbiqH35tW/TDt2/rl7NkvWtvBZZgvp7Yd5u+Pj4fW+7NeL+9LrfUCAFhzDe1BK1etpC3bttDGTRtFS97j4x5vsQGglklPPiKCOmucHxkeKqfqjR45nJ57ejyNe3gU3X1HnJxrwgHgpCceEUGfOS7/vmF30+NjH2zwGl7H3/7wglgfv94c51kvb5QmB4F6r/sDAAAAaKk4ACsqKhGBnR4cpPXsdgt9+uUS+vSLJZRw1PI6+vuH3SUFgB50j1Xgxi2DO3b/QucvXKBlP6yVc2+sJgeB4rolqzPJvbr2or7Ft1lMnKcmNqCfxXJx3uqnnTnffDl+nTU+HWa+jFZZzLo8fq0a6/entl6mZzm9+8V6O7SWY3q2Q2959uw/LXrLUNsXau+d6dlGvfuWGVme3vrRnP3SnO3Q+/7sWS8AwPV2qbFr8g3Awd+vpzJFSKPW6meNr/XmII9P7XLrXlvpuYJfHxFmKmNg/1jV1kUtFZUV4hSxVm8TjmDoNYEAAADgPLg7mAwbvTw0Ra+oKHGTx9q1a8m7vTfFDYojX19feS7Rr6ez6PiJX+VU427t2YNu7X6LnLK8JpCDtoG39aXDR5MoQnre1tOTtu+uH+Xj/mF3U5AU7J3/rdAiPyY6SrT0eXpIy+/5hVLSTPuAT9uaB5K/nsqiBKlsBbcixkqvNS+LcT63ILLtu/dZXE+o9R6MuCawyUFgRnqGuBWcKwDfoq3cEg6tCx/nsLAw8Q/p6+MrjjMfb6W/u6RjSdS3f1/xHFoXPvbK/7Vy7AEAzMXHJ1DZlSsWQVpzcA8P7du1o0FS4Mf9+VZVVdLQoUMtrjFcv3kbZWVly6nG9ekTTcOHmAIsZtSNITdaB38/em7i43JKm0OCwH+++k/RPx7jPto6dOggnkPrwn3M8e32LCc7m96b8x7NeH0GhYSafulkS/+IRv3zQ8vCd/t18Pcnb+kHQElRMQ2+czDde++98lwAAFMQ6ObuTkuXLGlwI4S9+DTo05Mni353OQgkFxeqlPK4SxhzzQ0CnY1DgsC333qH3pw9S06BM3hzxkya/vprOPZO6NvFi+mWW7ri8hAAsKAEgRwzGGHJ8mV1QWBObi6lJCXT6DGWXWCpBYFtg86QlzQpairaUvGvpuulGwsCuQ9a7miaGzREF2dSurkBbUtyQ4PAkffdTx5WO5Mj+607tssp/TasX0+ffPSxnKpndHmhoaH0+aKFcko/o8v7YM4c2q0yJJzR5Q27dxi98uqrckqbvUGg2rFnf/zzn2jM2LFySj8j6xJzprrZ3LqEIBAA1ChB4IzXpouzB8pQb/YKCgoSnenPfuftuiBw27af6NTJk/SHP/5BXsrEOghsH3ma3DwrpMCv/vPcw+8SVRQG0ZWCiEaDwBUrvqNLFy/SrVG3Utu2poEMbh+s/7Pu7SWWfdD2DulNo+W+W23NE/25Vpj6c2V+nn51/blu5L53z5j6mGVXS8tp+mT7+u9VOKSfQL14DFQe3sx8sjUuqi2/SZXLuixHlMejLTSF4eX99tt1KY/zHUHt2Iv1NfFDwsi6xIwsr8XXTYPrEgCAOf6xe8/QIXLKfvxa6x/MI0aOoBenviintHn4XqbqMm8qy+lWN7m3LxV5evDoTzws7eZNm+nXX/XfcKJIKI2nRN+jdZN58GZrXnJhksU8Tit4OfN5XI4jOCwI5JaHsQ9ZNuGa43m8jF687DdfL5ZTDXF53Hqi1+9fnKpZXm5Ozg0vj1up9u75WU5Z4vJ4vj1slcf59pZnC2+nrWPP+4n3l16OqEtGl9fS66atumRveQAA1wOP97tt6zY5pa2N3yWLgM+9fQm5uFVTVZm+7lnuuftuem36a/TOu+/Qs88+a1cr4M3OYUGg0vKghefZ0wLFy2Zna18IKsqzo4WJW0C0yuNxDW90edyCpNWszuXZ28JkqzzOb2qLlRqlFUsL7yd7WqAcUZeMLq+l101bdcne8gAAroeTJ082uCnEGp/2ZZVF9TenKq2A16rd5ZzGHTp0iI4cOSIeudcTe8R5D6J+xbdRzKVYii7sI075Mh7utI97DPUt6ifm86TMY7Ed+9bl88RpBS9nPo/X4QiGXRPIrSHmX5xpqWk2v2hZr969LQbLDwwMrLs2rSnl3XHnnRQqd9LIzMv721/+YnGhJ7eMNHbtgnV5cXGD6KmJE8RzI8tLiE+g71Ysl3NNfvxhpfxM27gnn5CfmTw1YaLoT8no8hRa1wR+t3wFJSTUN1UX5BfQgf375ZQ6vv7D/NQB3xX2nwULxPOWUJdslWd97JtSNyMiI+kvf/2reN6S66YC1wQCgBpH3hjCo5KdO3uW7rrL8no+82sC3Tyvkm9UihRx1bdpubhXi2sBr54PEWlb1wRywJeekW7x2caBYO9evUXXaI0pKSmhDRs2UGVFJZWWlVLUrVF09OhRmvbKNNHdzeKvF5Ofnx9lZGTQo489Snukz+Np0/4uXvv5Z59TeXm5eC0LjwwX3eFwt2yLpc/cuLg4WrN6jbhZJSoqSgTFL//9ZYvPdz2uy40hfEqpsS/CxvAX7/pNG8Vzo8vr0bW+o8im4iDp/Q8/FM+NLO+rL76gt2bNlnOb7vWZM+i5F14wvDyFVhD4j2nTdAWZjVEqqDPUpZulbioQBAKAGkcGgfEJCbRrx0565R+vyHNNzINA355pdE0KACsudBZp1i4iUwSAeoJADvjUPte08q3xXcU/rvyRXF1dyc3Njaqqqig4OJgeGPGACAK3bN5C9z9wP23auEncdOLn708PSGm2bNkyGjFiBG3cuFHahmui0cVfms9B4E/bfhKnpRf8ZwG5uLpQTEwM9b+tP0VGRorX2uOG3hgCAAAArduYh8eKH4888Y9cvfgshPI6LsPcoEGD6KX/eUlOqePr/6pK/MTpYGXiU8R6bwpprnbt2tHESRNp0tOTaMLECfTM754RASDjLmfGPzWeAgICxOMT0jYqASCbNGmS6AR7ypQp9Oxzz0rBah8RADIug18/fcZ0cb3iI48+0qQAsDEIAgEAAKBZ+HIePnvAk/mlNI3hYEd5nXJJkCInJ8fmjSF82pev/6syux5QuUawWudNIUaYs+I9mrd2Hs1dM1dM3L2LgruI4bwFmxY0mMddxCiv4YnTCl7OfB6X4wgIAgEAAMAwfA21ntZAXiYwKEhONXQ847gIBLW0aV9C12rcRcfQCuugsDE8JKa9N4JYQxcxAAAAABK+iU655tkWXsbWwAHcTyCfZtVSc9WLqkt9KOju7XUTjxxSLl8LqAePic43hvA1gDwmPj/qvR6wNUAQCAAAAC3S9u3aIy4pQ8NdThlQNxWl9627IUQvDviUoM/8uV4B5R2pQ0FA3cQjfyhszfOr9bOcJ6UVvJz5PC7HERAEAgAAgOG6desmTvmqTTyvOVxcXMRUW+lFVcUBdROnlXnKpJdyU4a9Fr30Bf1n8v/Se+Pm0FuPvF039Bv3E/jWhLdp3sT5Yj5Pyjw263ezRd70Ea/TjJEzRVrByymv4YnX4QgIAgEAAKDJ8vLyRNdy1hOPAzzjjZmqE89Tew2XZW7cuHHys3r9Y2MoLm6g7ik81L6WQXtwP4HLl68Q/QF++eVXtPfnvfTZZ5+L0U54LOWVP6ykpUuW0fTXXqdD8fFiXmamqauW+fPm07q16+jrr76mxKQkWrp0Ke3ff0DM++D9D+josWP0/pz3RYf/b8x8g376qWnj5NuCIBAAAACaJCwslEKlIKu2tsaQicviMllubq7oZ89aeFgIDR7YX/fUs3vz+07Vwn0DVldVkbu7O3UMCBDXFZ49c4YCOplO33bu3JnGjB1N0dG9KTU5Rczr2NE0r3v37pSbl0sebTzIw6MNXS2/SsXFRWJe5+Bg6hwUROHh4WIf9Ovfj1JTU8U8IxnWWTSPPdrcoaf4LiHlIlGjy+MOlJsrJrZv3QgaRpbHlWbbloYV3V4jRo0SzdlGl6fQ6iyaRyhJSa6/q6mplI6pnaEu3XLLLTRs+HDxvCXXTQU6iwaA623z5s3Sd9k2mjt/rpzTMlXX1Ihg0OLUs3loJeVXVlbWD4Enz+ORQHgev5ZVV1eTq5Tmjqe5LOvgjEtXCdkadV1GDIHWTysIhNYPQSAA6LF3714R7OTnF1DfvrFU7nKFtiRvleeajIodSTHdYuWUbRwYcSubIj09nbKysigwMEi0HPJnEveh19bbS17CNO7u6NtHyyn7FRYW0o4dO8WP9bTUVHp68tOiL0Aj16Hg08cenh509uxZ6t+/PxVXFzXYX81dF0YMAQAAAIeLiIig5KRkOnH8OF26dJnSszIs+rvjifP0Mg8AGQ+7lpuTK87w5GSb+hC01RdfU9TU1pKvrw916OAvWt74PRi9DkVEZAQlJSZR/KF4SpL2m+r+MmhdahAEAgAAgCEWLVwkWtC6dO1C+fmWN3kYYeeOneTq5kohISFibF5H4BsxDh44SOVXymnAgAFyrmPw/goN5esqQ6ni6lU59/pBEAgAAACGmDV7Ft13/3302GOP0aOPPkq9u/aifsW3WUyc11STJz9NU6dOpRenvijG22Vx3oMsyw/RP3axmv79+tHMN2ZSTGwMxfY1nbY2eh0K3l+jx4ym5194XowtrLq/DFqXGtwYYgfcGIIbQ5gRx/5mqZsKXBMIAGp27txJPr6+cso4oSEhonUsISFB3DxhNG9vb+oVFSWnWrfrcmPI2IdGU0Z6885bcweSylAzRpfXo2vzbxEfJ0XpPMg1M7I8/tJ+a1Z9J5FN9frMGSKQMro8hVYQ+I9p0+jHH1bKqaZTKqgz1KWbpW4qEAQCgJolS1eQq0f92L1GiAgNJs82bjRI+iF6+PBR2rp9F3VtZufS5jzd3SgyIoTiBg4U6fj4BHKzuvbQCDXV1WIbzK1ds47CIyPklDHS0tLomclPy6mGcGMIAAAAOER0TF9DJ2scAKot19TJ28dbLrne4DvuoKzsPLpw8XKzJy6Hy1MTFh5OgZ2DVV/XlMnN3YOio6Pl0u2HIBAAAACcXkV1DXUO69LsicuxJTsrW/V1TZnONfNSJwSBAAAAAE4IQSAAAACAE0IQCAAAAOCEEAQCAAAAOCEEgQAAAABOCEEgAAAAgBNye1MiP6+Tn5cnOv99fNzjFiNGmPt5z890733D5ZT0mvw8MVZg7+hoMXEX1BcuXJDnquMOc4feO6zuNdF9ounue+4R85pS3h133km33zFYtbxTp06J4V+UeYUXCqmsrEzM02JdXlzcIOoTEyPmGVledXUN1V6rrcvnKT2t8c6NuUNf89cMv+9+Cg0LNbw8xa6dO2no0CENjv2li5fIz9+v7nV+fv6UJ9UhW4KCgmjUQw/WvaZb9+700OjRYl5LqEu2yrM+9k2pmwPiBtLgwYPFvJZcNxVJiYliMHWtzwMAcE7JyakUFGLs50JleRm5u7lKnzehdObMWSq8XESBQZ3luc1XVlJEXm09xYgkjMcKjoiMpERpW4xYz2/nz1G/vjGUm5MjtsEcb091TQ15erWXc5qHt6WdV1sKCQmWcxqKPxRPhw4dor++9JKcU8+wEUOs6RlFwnpUAlv0lGc9woUtekaRuJHl6Rn1Qa33by1GlKc1Yog1PSOWmI+Y0ZgbUZdQNy1hxBAAUMMjhsQMMPZzoeTieYsRQ05k5ohOno1yLj+bAvx9LEYMuUv6kb94yQpD1pOWkkRTJk+gfXv3NhgxhLenvKKSfAKC5Jzm4W3pFOBPA27rL+c0dENGDAkMDBRf9Fp4Hi+jFy/bpUsXOdWQKC9I/07lXwBa5bVv3/6Gl9etWzfRWqaGy+P59rBVHufbW54tvJ22jj3vJ+UXmB6OqEtGl9fS66atumRveQAA0Do4rCVQodUCZU8rlsJWC5OR5fGXot5WKnNGl6fVwmR0eXpbvfS2BCq0jr09rVjmjKxLzJnqZnPrEloCAUBNa2oJnDX7XUPGKM46fZpmzviXzZbA3IKzck7z8DjIXbuEN7kl0MXRQeDI++4nD09POWVSWVFBW3dsl1P6bVi/nj756GM5Vc/o8rjl5PNFC+WUfkaX98GcObR71245Vc/o8obdO4xeefVVOaXN3iBQ7dizP/75TzRm7Fg5pZ+RdYk5U91sbl1CEAgAalpTEGg0rSDwjrvulFPG4JitxQaB0HrYGwRC64EgEADUfP75QvL285dTJn5+ftSmTRs5ZVtVVRUVFRXJKZOOAR2kIM1PBFBr16yj84UXqV37+hsp2nm1k9Lt5FTjrG/ca9e2Lfn5tqfhw003OJYUl1DG8ePiuZF6RUWRj6+PnDLJyDhOJSUlcso41sGmOYcEgfPmzqO2Xl7iOd8dCq1XB+kfkl0tL6eX//4yfcwtVC4uIq9U+uepqq4Wz6H1UY69u5sbDZR+NQ+MM/1yBgDQcvzECYrs0pV8fX3lHHXFxcWUk51FUbfeKufoU1BwhtykIDM8PFzO0bZ/3z6KGzhATmnLSM+gXr17yambS2Pv3SFBIAAAAICa48dPUEmp7RYvH28fioqyLwBUcCBYcKZATmmQops4nT9cuQsVI+Md7pbL3d2dPDw8yEVuNKmtrRUtn54ql0k1R2Pv3SFB4N69e8XGIUgEAACAm8HGDRtpyJAhDU7TLv56sWEtgb4+vrRp0ybq0aMHlZaWkmdbT+rZo6c47Z1xPIOef/55cnNzk5duvhsSBGZnZ9OO7Tvo+Reel3MAAAAAWiYO9PLz8iksPIymPDtFzjXh6wKtA8PmWLtmLeXl51FIcAjt2rWL+vXrRz179qR169bRtFemUVZWlrxk84WHhVsM7GDNIUHgzBkzaeTIkXTPEOPvqAEAAICbx8aNG6lTp05yqmW4Wn6Vhg4bKp5zkPfeu+/RlOem0PKly2nq76c6dASkmpoa8cingPl0sHJK2MgWQL1wTSAAAAA4jNHX1BnB/D3N/XCueFy0cBFNmDiBOPR5898NRs1tlWwFgU0eOxgAAACA5efnU2pqGqUkp1BBfgGFhIbQ/HnzRXcuS75dQpmZmdL8VIqNjRVBCQdnfJo0ODhYLHem4AwlJiXS3p/3krubO61etZqSk5KpqLiI9uzeQykpKZQQn0BHjx2lUydPUUZGBuXk5tD+/fvFiFcL/2+hKONK2RVxz0KfPn3Ee+IY5nDCYSosLKSw0DA6ceIEPfzww+TqahowjftKbe1sjR3ssGHjAAAAwHlUVlYSuRBlZmXRpk2bpUAwlC5fviwCLu7nLy8vX5rvQlG9eonH7KzsuuU4zfOra2qouraG/P39RWf+1dU1FNs3loI6dxZDdLpJAaKHpwdVSOvi5208PGjz5i2iZY/XHdm1C3WRJnN8py6fli0tK6Unxz8puqbh9Llz5+QlnBdOBwMAAECztPRrAp0ZrgkEAAAAcEJNDgL/9dq/btoetAEAAACc3apVq2n1j6vsDwIBAAAA4OanOwgEAAAAgNYNdwcDAAAAOCEEgQAAAABOCEEgAAAAgBNCEAgAAADghBAEAgAAADgdov8HH0WvAi1eTIAAAAAASUVORK5CYII=;" parent="1" vertex="1">
          <mxGeometry x="-623.0000000000001" y="-910" width="416.23" height="50" as="geometry" />
        </mxCell>
        <mxCell id="3-IewmxNhxPS0ONpbSXm-38" style="edgeStyle=orthogonalEdgeStyle;rounded=0;orthogonalLoop=1;jettySize=auto;html=1;exitX=0.5;exitY=1;exitDx=0;exitDy=0;" parent="1" edge="1">
          <mxGeometry relative="1" as="geometry">
            <mxPoint x="-44.99499999999989" y="-420" as="sourcePoint" />
            <mxPoint x="-44.99499999999989" y="-420" as="targetPoint" />
          </mxGeometry>
        </mxCell>
      </root>
    </mxGraphModel>
  </diagram>
</mxfile>
